<svg width="166" height="166" viewBox="0 0 166 166" fill="none" xmlns="http://www.w3.org/2000/svg">
<circle cx="83" cy="83" r="83" fill="url(#paint0_linear_380_201)"/>
<path d="M54.6994 97.9616H128.036C132.064 97.9616 135.365 94.6609 135.365 90.6323V67.6786H54.6994C50.6708 67.6786 47.3701 70.9794 47.3701 75.008V90.6395C47.3701 94.6609 50.6708 97.9616 54.6994 97.9616Z" fill="#D5D6DA"/>
<path d="M43.2839 96.0878H129.78C132.785 96.0878 135.243 98.5453 135.243 101.551V104.628C135.243 112.945 128.439 119.755 120.116 119.755H43.2839C40.2786 119.755 37.8211 117.297 37.8211 114.292V101.558C37.8211 98.5453 40.2786 96.0878 43.2839 96.0878Z" fill="#D5D6DA"/>
<path d="M71.239 119.503C68.2338 119.503 65.7763 117.045 65.7763 114.04V101.306C65.7763 98.8697 67.3978 96.7869 69.6103 96.0878H43.2839C40.2786 96.0878 37.8211 98.5453 37.8211 101.551V114.285C37.8211 117.29 40.2786 119.748 43.2839 119.748H120.123C121.052 119.748 121.968 119.661 122.854 119.496H71.239V119.503Z" fill="#B8C1C9"/>
<path d="M123.928 96.5202H130.335V72.0676C130.335 69.6533 132.309 67.6786 134.724 67.6786H135.329C135.48 67.6786 135.596 67.8012 135.596 67.9453V96.9382V102.473V119.755H116.62C116.39 119.755 116.202 119.568 116.202 119.337V104.239C116.209 99.9939 119.683 96.5202 123.928 96.5202Z" fill="#657285"/>
<path d="M116.253 67.8804C116.253 67.8804 122.371 67.2966 124.49 70.8135C126.609 74.3305 124.49 87.5765 126.284 89.9188C128.079 92.2682 130.198 93.6879 130.118 96.4553L116.966 96.5995C116.966 96.5995 105.399 97.0175 105.486 103.179C105.572 109.341 105.486 120 105.486 120H98.8626C98.8626 120 95.8069 93.0465 102.509 91.4394C117.197 87.9225 116.253 67.8804 116.253 67.8804Z" fill="#B8C1C9"/>
<path d="M94.8918 79.5338C94.8918 79.5338 93.4144 78.6114 92.7658 78.7483C92.1244 78.8852 90.3659 79.3897 90.3083 80.1176C90.2506 80.8455 92.8235 81.9914 94.7189 81.35C96.6214 80.7085 94.8918 79.5338 94.8918 79.5338Z" fill="#FFD0C5"/>
<path d="M102.74 118.177C102.74 118.501 102.581 118.724 102.308 118.876C102.308 118.876 102.308 118.876 102.3 118.876C101.796 119.15 100.996 118.941 100.03 118.897C99.9077 118.89 98.6321 119.438 96.8232 119.596C94.7621 119.769 93.9982 119.142 93.8757 118.854C93.7748 118.609 94.6612 118.335 95.6485 118.018C95.699 118.004 95.7422 117.989 95.7927 117.975C95.9224 117.932 96.0593 117.888 96.189 117.845C97.3637 117.456 98.524 116.987 98.8123 115.798C99.1222 114.537 98.1997 111.006 98.1997 111.006L101.472 110.653C101.472 110.653 101.789 114.343 101.991 115.488C102.099 116.101 102.38 116.591 102.545 117.117C102.56 117.153 102.567 117.189 102.581 117.225C102.661 117.535 102.74 117.852 102.74 118.177Z" fill="#FF9783"/>
<path d="M60.6523 96.0879H111.013L62.9945 93.9258L53.5969 96.4482L60.6523 96.0879Z" fill="#B8C1C9"/>
<path d="M102.74 118.177C102.74 118.501 102.581 118.724 102.308 118.876C102.308 118.876 102.308 118.876 102.3 118.876C101.572 119.344 100.275 118.696 98.1636 119.668C98.07 119.712 97.3637 119.661 96.8736 119.654C96.2322 119.647 95.3098 119.704 95.0936 119.668C94.099 119.51 93.9477 119.02 93.8828 118.854C93.7819 118.609 94.6683 118.335 95.6557 118.018C95.9295 118.126 97.2556 118.587 98.8195 118.285C100.196 118.025 101.565 117.341 102.545 117.11C102.56 117.146 102.567 117.182 102.581 117.218C102.661 117.535 102.74 117.852 102.74 118.177Z" fill="#131F2D"/>
<path d="M102.416 118.753L101.933 119.654H100.881V118.998L102.416 118.753Z" fill="#131F2D"/>
<path d="M119.633 86.7406L109.053 85.7316C109.053 85.7316 92.8595 85.8037 91.3533 87.9441C91.3533 87.9441 88.4633 89.9476 91.728 98.2354C94.9999 106.523 98.8339 114.797 98.8339 114.797C98.8339 114.797 99.814 115.063 101.155 114.962C101.681 114.919 102.401 114.739 102.401 114.739C102.401 114.739 101.666 102.379 100.03 97.5652C98.3943 92.7583 97.8898 93.6879 100.787 93.9546C103.677 94.2212 112.981 96.3617 117.254 95.8284C121.514 95.295 119.633 86.7406 119.633 86.7406Z" fill="#131F2D"/>
<path d="M61.5459 118.177C61.5459 118.501 61.7045 118.724 61.9784 118.876C61.9784 118.876 61.9784 118.876 61.9856 118.876C62.49 119.15 63.3765 119.178 64.335 119.142C64.4575 119.135 64.5656 119.135 64.6665 119.135C64.6953 119.135 64.7169 119.135 64.7458 119.135C64.7674 119.135 64.789 119.135 64.8034 119.135C65.7547 119.157 65.6538 119.445 67.4627 119.596C69.5239 119.769 70.2878 119.142 70.4103 118.854C70.5112 118.609 69.6248 118.335 68.6374 118.018C68.587 118.004 68.5437 117.989 68.4933 117.975C68.3636 117.932 68.2266 117.888 68.0969 117.845C66.9222 117.456 65.7619 116.987 65.4737 115.798C65.1638 114.537 66.0862 111.006 66.0862 111.006L62.8143 110.653C62.8143 110.653 62.4972 114.343 62.2955 115.488C62.1873 116.101 61.9063 116.591 61.7405 117.117C61.7261 117.153 61.7189 117.189 61.7045 117.225C61.6324 117.535 61.5459 117.852 61.5459 118.177Z" fill="#FF7955"/>
<path d="M61.5459 118.177C61.5459 118.501 61.7045 118.724 61.9784 118.876C61.9784 118.876 61.9784 118.876 61.9856 118.876C62.5189 119.121 63.3909 119.157 64.335 119.135C64.4575 119.135 64.5656 119.128 64.6665 119.135C64.6953 119.135 64.7169 119.135 64.7458 119.135C64.7674 119.135 64.789 119.135 64.8034 119.135C65.7547 119.157 65.6538 119.445 67.4627 119.596C69.5239 119.769 70.2878 119.142 70.4103 118.854C70.5112 118.609 69.6248 118.335 68.6374 118.018C68.3636 118.126 67.0375 118.587 65.4737 118.285C64.0972 118.025 62.7279 117.341 61.7477 117.11C61.7333 117.146 61.7261 117.182 61.7117 117.218C61.6324 117.535 61.5459 117.852 61.5459 118.177Z" fill="#131F2D"/>
<path d="M104.779 118.177C104.779 118.501 104.621 118.724 104.347 118.876C104.347 118.876 104.347 118.876 104.34 118.876C103.835 119.15 103.014 118.544 99.2447 119.438C97.2268 119.913 96.0377 119.142 95.9151 118.854C95.8142 118.609 96.7007 118.335 97.688 118.018C97.7385 118.004 97.7817 117.989 97.8321 117.975C97.9619 117.932 98.0988 117.888 98.2285 117.845C99.4032 117.456 100.564 116.987 100.852 115.798C101.162 114.537 100.239 111.006 100.239 111.006L103.511 110.653C103.511 110.653 103.828 114.343 104.03 115.488C104.138 116.101 104.419 116.591 104.585 117.117C104.599 117.153 104.607 117.189 104.621 117.225C104.7 117.535 104.779 117.852 104.779 118.177Z" fill="#FFD0C5"/>
<path d="M82.7556 114.011C82.9358 114.919 84.233 114.768 85.6743 114.415C87.1229 114.062 86.777 114.48 88.8309 114.256C90.8849 114.026 91.5118 113.262 91.5767 112.959C91.6344 112.685 90.6182 112.591 89.5228 112.469C89.3858 112.454 89.2489 112.44 89.112 112.418C87.8796 112.267 86.9788 111.467 85.8617 110.819C84.8023 110.199 83.224 107.684 83.224 107.684L80.399 107.907C80.399 107.907 81.8764 110.156 82.4529 111.136C82.7916 111.712 82.77 112.469 82.7268 113.06C82.7123 113.363 82.6979 113.687 82.7556 114.011Z" fill="#FFD0C5"/>
<path d="M85.6816 114.407C87.1301 114.054 86.7842 114.472 88.8381 114.249C90.8921 114.018 91.5191 113.254 91.5839 112.952C91.6416 112.678 90.6254 112.584 89.53 112.462L89.5228 112.476C89.5228 112.476 88.2904 113.348 86.5752 113.391C85.1771 113.427 83.6997 113.024 82.734 113.038C82.7124 113.355 82.6907 113.687 82.7556 114.004C82.943 114.919 84.233 114.761 85.6816 114.407Z" fill="#131F2D"/>
<path d="M76.4784 72.5649C76.4784 72.5649 77.1487 70.9145 77.891 70.8496C78.6333 70.7848 80.9827 70.41 81.1484 70.7487C81.3142 71.0875 81.1484 72.2982 80.6439 72.7306C80.1395 73.1702 77.0117 73.8765 77.0117 73.8765L76.4784 72.5649Z" fill="#FFD0C5"/>
<path d="M71.9453 95.9654L65.8628 112.332C65.8628 112.332 64.9259 112.426 64.0322 112.166C63.2107 111.928 62.2666 111.301 62.2666 111.301C62.2666 111.301 63.7728 95.5906 66.5402 92.3187C69.3076 89.054 71.9453 95.9654 71.9453 95.9654Z" fill="#131F2D"/>
<path d="M66.7782 89.1189C66.7782 89.1189 63.7585 85.2849 64.4792 79.8149C64.7098 78.0925 65.8269 76.6151 67.4124 75.9016H68.479L68.4357 75.8079C67.4772 73.7252 67.5781 71.3181 68.6664 69.293C68.6736 69.2858 68.6736 69.2714 68.6808 69.2641C69.0771 68.4858 69.387 67.6786 70.2663 67.6786H58.1444L57.467 88.3477L66.7782 89.1189Z" fill="#B8C1C9"/>
<path d="M45.9504 88.5639C47.1972 89.0612 48.5737 89.1116 49.8565 88.7008C54.5265 87.209 66.1727 83.6921 69.2716 84.6866C73.1705 85.9406 84.8671 109.226 84.8671 109.226C84.8671 109.226 84.6004 109.579 83.8798 109.846C83.2095 110.098 81.588 110.083 81.588 110.083C81.588 110.083 71.03 101.032 69.7689 98.394C68.5149 95.7563 68.0104 93.2411 66.7492 93.4934C65.4952 93.7456 50.5339 99.6552 47.1395 96.131C43.7451 92.6141 44.6316 88.0378 44.6316 88.0378L45.9504 88.5639Z" fill="#364154"/>
<path d="M58.5695 61.8628C58.8506 61.2862 59.1605 60.2628 59.3118 58.4395C59.2902 58.6197 58.9731 60.9187 58.0867 62.2231C54.4544 64.6085 47.4855 72.5721 47.6224 74.0855C47.6224 74.0855 45.1721 69.9272 45.1288 69.8983C45.1288 69.8983 40.603 64.1401 45.9648 60.8466C48.689 59.1746 48.6746 57.0198 48.5665 55.1532C48.4512 53.2867 49.3088 45.2439 54.7715 47.3483C54.7715 47.3483 55.6508 46.9591 56.0399 47.0168C56.0399 47.0168 55.7228 47.0816 55.5571 47.2474C56.1913 47.2113 57.0921 47.2546 57.8488 47.687C59.8595 48.8185 61.6468 59.0305 58.5695 61.8628Z" fill="#131F2D"/>
<path d="M57.8777 62.3384C57.8993 62.3456 56.1264 63.2681 54.7932 62.9005C53.5392 62.5618 52.7176 60.933 52.7392 60.9258C53.2725 60.8177 53.4239 60.0899 53.4095 56.9549L53.6473 57.0053L57.6831 57.8053C57.6831 57.8053 57.5894 59.0737 57.5894 60.27C57.5894 61.279 57.6471 62.2303 57.8777 62.3384Z" fill="#FFD0C5"/>
<path d="M57.6831 57.8053C57.6831 57.8053 57.5894 59.0737 57.5894 60.2701C55.3265 60.2052 54.1373 58.144 53.6473 57.0054L57.6831 57.8053Z" fill="#FF9783"/>
<path d="M53.2293 56.5658C53.2293 56.5658 52.0474 54.692 51.7591 53.0921C51.5573 51.9534 52.141 47.7158 56.3931 48.3284C56.3931 48.3284 57.6254 48.4509 58.7929 49.2364C59.7154 49.8634 61.0486 51.2039 59.5568 54.901L59.1677 56.1478L53.2293 56.5658Z" fill="#131F2D"/>
<path d="M58.4397 58.9368C58.4397 58.9368 53.0923 59.0233 53.0923 55.6937C53.0851 52.3642 52.3932 50.1301 55.8093 49.9355C59.2253 49.7409 59.8883 51.0093 60.155 52.1192C60.4288 53.2362 59.8307 58.8287 58.4397 58.9368Z" fill="#FFD0C5"/>
<path d="M53.3878 50.5625C53.3878 50.5625 57.0416 48.0689 58.1947 49.7914C58.5479 49.4887 59.1676 49.2725 59.9964 50.2742C61.236 51.7732 60.1333 54.4325 60.1333 54.4325C59.6217 54.4902 59.5064 52.7462 59.2397 51.8958C59.0379 51.2544 58.3677 50.6057 58.0506 50.3175C57.5821 51.3697 56.2993 53.8848 54.5337 54.3389C52.2851 54.9154 51.3122 54.3172 51.3122 54.3172C51.3122 54.3172 53.0347 52.9479 53.3878 50.5625Z" fill="#131F2D"/>
<path d="M45.972 76.7231C45.4459 74.5107 47.2404 70.2226 49.1142 66.6697C50.815 63.4482 52.5735 60.8394 52.732 60.933C57.2146 63.5924 57.6182 61.3799 57.6182 61.3799C57.6182 61.3799 61.6901 61.9204 62.8432 63.9022C64.4359 66.648 66.1727 74.8782 67.8807 74.7557C68.6662 74.698 76.5433 71.736 76.5433 71.736C76.5433 71.736 77.8549 72.9684 77.6027 74.4746C77.6027 74.4746 73.711 77.0763 70.4247 78.741C68.6879 79.6203 67.1096 80.2328 66.3745 80.0599C64.8755 79.7067 62.5333 76.2331 61.2721 74.1863C61.2721 74.1791 61.2649 74.1791 61.2649 74.1719C59.6505 83.3101 61.8486 85.3929 60.7316 86.3514C59.5569 87.3676 57.8849 85.8686 54.195 87.4685C51.7735 88.5207 48.4224 90.0341 46.1594 90.3007C44.9775 90.4377 44.0911 90.2359 43.8028 89.4359C42.9596 87.1081 46.981 80.9319 45.972 76.7231Z" fill="#FFA9D6"/>
<path d="M57.2507 56.9189C57.2507 56.9189 57.3516 57.3441 58.4038 57.2793C58.4038 57.2793 59.2902 57.2216 59.2614 56.7604C59.2614 56.7604 58.4038 56.4289 57.2507 56.9189Z" fill="white"/>
<path d="M55.9534 82.8922C56.0615 82.9354 56.184 82.8777 56.2273 82.7768L58.1371 78.2222L57.4596 77.9627L55.8237 82.6255C55.7876 82.7264 55.8453 82.8489 55.9534 82.8922Z" fill="#364154"/>
<path d="M58.1371 76.5718L58.5623 76.7303L58.1443 78.2149L57.4596 77.9555L58.1371 76.5718Z" fill="#131F2D"/>
<path d="M58.375 75.3683L59.2037 75.6854C59.3623 75.7502 59.4055 75.9592 59.2758 76.0745L59.1893 76.2043C59.0596 76.4133 58.8722 76.579 58.6488 76.6871L58.5551 76.7376L58.1371 76.579L58.1155 76.5214C58.0218 76.2979 57.993 76.0457 58.0362 75.8079L58.0651 75.6133C58.0507 75.4331 58.2164 75.3034 58.375 75.3683Z" fill="#131F2D"/>
<path d="M43.7955 89.4359C44.0838 90.2359 44.9702 90.4449 46.1521 90.3007C47.716 89.6161 54.4688 87 54.3967 85.2271C54.2814 82.6039 53.0995 82.5174 53.9355 79.2743C54.6057 76.6727 48.3646 71.8369 47.3701 70.7847C45.4963 74.3377 45.4459 74.5034 45.972 76.7159C46.9809 80.9319 42.9595 87.1081 43.7955 89.4359Z" fill="#FF64AE"/>
<path d="M61.2649 74.1936C62.5261 76.2403 64.8683 79.714 66.3673 80.0671C67.1096 80.2401 68.6807 79.6275 70.4175 78.7483C69.1491 79.0726 67.9168 79.0654 66.7132 78.9501C65.416 78.8275 65.034 77.2348 62.9801 74.8422C61.6541 73.2927 61.3298 73.6819 61.2649 74.1936Z" fill="#FF64AE"/>
<path d="M55.0021 79.2168C55.0021 79.2168 56.1336 78.3375 57.2002 78.5465C58.2668 78.7555 58.7929 79.4906 58.7497 79.8221C58.7064 80.1609 58.1443 81.0977 57.3227 81.1842C56.5083 81.2707 54.1805 80.6797 54.1805 80.6797L55.0021 79.2168Z" fill="#FFD0C5"/>
<path d="M52.7321 60.9331C52.7321 60.9331 48.3719 61.1998 46.8657 63.3041C44.7397 66.2661 39.6445 79.4402 42.0588 81.1193C44.7758 83.0147 55.3121 81.0617 55.3121 81.0617C55.3121 81.0617 55.6364 79.5627 55.1896 78.8348C54.7428 78.1069 47.4783 76.9322 47.1468 76.6007C46.8081 76.262 51.3339 70.0641 51.3339 69.0552C51.3411 68.0534 52.7321 60.9331 52.7321 60.9331Z" fill="#FFA9D6"/>
<path d="M121.11 87.4973L111.186 86.6613C111.186 86.6613 94.9926 86.7334 93.4864 88.8017C93.4864 88.8017 91.0361 90.3368 94.308 98.358C97.5799 106.379 100.888 115.207 100.888 115.207C100.888 115.207 101.623 115.308 102.509 115.236C103.626 115.143 103.994 114.782 103.994 114.782C103.994 114.782 103.763 103.806 102.127 99.1435C100.491 94.4879 99.8644 94.9563 102.754 95.2158C105.644 95.4752 113.774 97.5003 119.38 96.4265C123.611 95.6266 121.11 87.4973 121.11 87.4973Z" fill="#364154"/>
<path d="M95.9223 118.861C95.9872 119.02 96.1313 119.481 97.0394 119.654H100.246C101.349 119.15 102.235 119.092 102.927 119.085C103.54 119.077 104.008 119.099 104.347 118.883C104.347 118.883 104.347 118.883 104.354 118.883C104.369 118.876 104.39 118.861 104.405 118.854C104.65 118.703 104.787 118.487 104.787 118.184C104.787 117.86 104.7 117.542 104.621 117.233C104.614 117.197 104.599 117.16 104.585 117.124C103.605 117.355 102.235 118.04 100.859 118.299C99.2951 118.595 97.9691 118.133 97.6952 118.033C96.7007 118.335 95.8142 118.616 95.9223 118.861Z" fill="#131F2D"/>
<path d="M104.455 118.753L103.972 119.654H102.92V118.998L104.455 118.753Z" fill="#131F2D"/>
<path d="M94.1711 81.4508C94.1855 81.5445 94.2144 81.631 94.2504 81.7175C94.6684 82.6399 103.389 83.8146 104.477 83.2237C104.967 82.9642 105.673 78.5681 106.307 73.79C107.093 67.8804 107.763 61.3871 107.763 61.3871C107.763 61.3871 104.145 62.5258 103.727 64.4572C103.309 66.3814 103.223 78.287 102.135 78.8708C101.046 79.4545 96.4341 78.9573 94.8413 79.2095C94.8341 79.1951 93.9982 80.5139 94.1711 81.4508Z" fill="#FFA9D6"/>
<path d="M107.518 47.6798C108.195 47.1393 109.176 47.2041 109.81 47.2402C109.644 47.0744 109.327 47.0096 109.327 47.0096C109.716 46.9519 110.595 47.3411 110.595 47.3411C110.595 47.3411 113.918 45.6403 115.453 50.0004C115.453 50.0004 115.186 49.6689 114.826 49.3013C115.712 51.8093 114.818 55.6001 112.015 56.2775C110.199 56.7171 100.578 53.2578 107.518 47.6798Z" fill="#131F2D"/>
<path d="M107.497 62.3384C107.475 62.3456 109.248 63.2681 110.581 62.9005C111.835 62.5618 112.657 60.933 112.635 60.9258C112.102 60.8177 111.95 60.0899 111.965 56.9549L111.727 57.0053L107.691 57.8053C107.691 57.8053 107.785 59.0737 107.785 60.27C107.785 61.279 107.727 62.2303 107.497 62.3384Z" fill="#FFD0C5"/>
<path d="M107.691 57.8053C107.691 57.8053 107.785 59.0737 107.785 60.2701C110.048 60.2052 111.237 58.144 111.727 57.0054L107.691 57.8053Z" fill="#FF9783"/>
<path d="M112.145 56.5658C112.145 56.5658 113.327 54.692 113.615 53.0921C113.817 51.9534 113.233 47.7158 108.981 48.3284C108.981 48.3284 107.749 48.4509 106.581 49.2364C105.659 49.8634 104.325 51.2039 105.817 54.901L106.206 56.1478L112.145 56.5658Z" fill="#131F2D"/>
<path d="M106.934 58.9368C106.934 58.9368 112.282 59.0233 112.282 55.6937C112.289 52.3642 112.981 50.1301 109.565 49.9355C106.149 49.7409 105.486 51.0093 105.219 52.1192C104.945 53.2362 105.543 58.8287 106.934 58.9368Z" fill="#FFD0C5"/>
<path d="M105.63 66.3093C105.724 65.9273 104.924 65.6463 104.729 65.985C104.362 66.6192 104.289 67.4192 104.145 68.0534C103.727 69.8695 104.145 72.3558 104.145 72.3558L105.63 66.3093Z" fill="#FF64AE"/>
<path d="M105.378 50.2742C106.199 49.2725 106.826 49.4887 107.179 49.7914C108.332 48.0618 111.986 50.5625 111.986 50.5625C112.347 52.9552 114.069 54.3173 114.069 54.3173C114.069 54.3173 113.096 54.9226 110.848 54.3389C109.082 53.8849 107.799 51.3697 107.331 50.3175C107.014 50.5985 106.343 51.2544 106.141 51.8958C105.875 52.7462 105.752 54.4902 105.248 54.4326C105.241 54.4254 104.138 51.7733 105.378 50.2742Z" fill="#131F2D"/>
<path d="M108.123 56.9189C108.123 56.9189 108.023 57.3441 106.97 57.2793C106.97 57.2793 106.084 57.2216 106.113 56.7604C106.113 56.7604 106.97 56.4289 108.123 56.9189Z" fill="white"/>
<path d="M94.1711 81.4509C94.1855 81.5446 94.2144 81.6311 94.2504 81.7175C94.6684 82.64 103.389 83.8147 104.477 83.2238C104.967 82.9643 105.817 77.4944 105.205 72.6082C104.549 75.4044 104.347 81.141 102.805 81.4076C101.046 81.7103 96.4557 81.1266 94.1711 81.4509Z" fill="#FF64AE"/>
<path d="M103.814 72.5792C105.983 83.0219 104.167 84.629 105.291 85.6524C105.298 85.6596 106.293 86.0848 106.3 86.092C107.475 87.1081 107.504 85.8758 111.194 87.4757C112.952 88.2396 115.201 89.2485 117.168 89.8467C117.91 90.0701 118.609 90.2359 119.229 90.3079C120.411 90.4449 121.298 90.2431 121.586 89.4431C122.422 87.1153 118.4 80.9391 119.409 76.7231C119.417 76.6871 119.424 76.6511 119.431 76.615C119.503 76.2475 119.517 75.8223 119.481 75.3611C119.294 73.0116 117.809 69.5884 116.267 66.6769C114.566 63.4554 112.808 60.8466 112.649 60.9403C108.167 63.5996 107.763 61.3871 107.763 61.3871C107.763 61.3871 103.072 69.0119 103.814 72.5792Z" fill="#FFA9D6"/>
<path d="M105.94 85.9479C105.933 85.9407 105.947 85.9479 105.94 85.9479C107.114 86.964 107.496 85.8758 111.186 87.4757C112.945 88.2396 115.193 89.2486 117.161 89.8468C118.163 90.0197 118.912 90.1783 119.222 90.308C120.404 90.4449 121.29 90.2431 121.579 89.4432C122.415 87.1154 118.393 80.9392 119.402 76.7232C119.409 76.6871 119.416 76.6511 119.424 76.6151C119.51 76.1971 119.525 75.7863 119.474 75.3611C119.265 73.5738 117.946 71.6352 116.462 68.8101C115.467 69.8623 107.987 68.6444 109.759 79.0366C110.293 82.2148 106.408 83.476 105.94 85.9479Z" fill="#FF64AE"/>
<path d="M106.3 86.474C106.3 86.474 104.65 86.0848 103.9 86.3875C103.144 86.6974 101.637 87.4757 101.774 87.8937C101.911 88.3117 103.698 88.5351 104.455 88.1171C105.212 87.6991 105.767 88.2324 106.689 87.9225C107.619 87.6198 106.3 86.474 106.3 86.474Z" fill="#FFD0C5"/>
<path d="M112.642 60.9331C112.642 60.9331 118.725 61.0124 119.813 63.9455C120.901 66.8787 120.57 77.1844 118.977 80.2906C117.384 83.3895 108.332 87.5838 107.331 87.7496C106.322 87.9154 105.695 86.3659 105.738 86.2001C105.781 86.0344 115.251 78.3663 115.208 77.5664C115.157 76.7664 112.642 60.9331 112.642 60.9331Z" fill="#FFA9D6"/>
<path d="M109.99 70.6695L112.21 70.9578C112.642 71.0155 113.038 70.7128 113.089 70.2804L113.183 69.5453C113.24 69.1129 112.938 68.7165 112.505 68.666L110.285 68.3778C109.853 68.3201 109.457 68.6228 109.406 69.0552L109.313 69.7903C109.255 70.2227 109.558 70.6119 109.99 70.6695Z" fill="#131F2D"/>
<path d="M111.822 70.3419L112.722 70.4598L112.902 69.0879L112.001 68.9699L111.822 70.3419Z" fill="#00A3FE"/>
<path d="M109.76 69.0324L111.717 69.2889L111.763 68.9388L109.805 68.6823L109.76 69.0324Z" fill="#00A3FE"/>
<path d="M109.675 69.6421L111.633 69.8986L111.678 69.5485L109.721 69.292L109.675 69.6421Z" fill="#00A3FE"/>
<path d="M38.6139 119.676H75.9739C79.4837 119.676 82.3303 116.829 82.3303 113.319V107.323C82.3303 103.813 79.4837 100.967 75.9739 100.967H38.6139C35.1042 100.967 32.2575 103.813 32.2575 107.323V113.319C32.2575 116.829 35.1042 119.676 38.6139 119.676Z" fill="#FF64AE"/>
<path d="M35.3564 119.676H63.2323C66.742 119.676 69.5887 116.829 69.5887 113.319V107.323C69.5887 103.813 66.742 100.967 63.2323 100.967H35.3564C31.8467 100.967 29 103.813 29 107.323V113.319C29 116.829 31.8467 119.676 35.3564 119.676Z" fill="#FFA9D6"/>
<path d="M69.6683 100.996H72.6591C73.2644 100.996 73.7617 100.506 73.7617 99.893V98.8552C73.7617 98.2498 73.2716 97.7526 72.6591 97.7526H69.6683C69.0629 97.7526 68.5656 98.2426 68.5656 98.8552V99.893C68.5728 100.506 69.0629 100.996 69.6683 100.996Z" fill="#B05638"/>
<path d="M68.5642 100.168H73.7603V99.073H68.5642V100.168Z" fill="#A0462D"/>
<path d="M68.5642 98.6648H73.7603V98.4774H68.5642V98.6648Z" fill="#A0462D"/>
<path d="M91.0794 81.6454L93.3351 79.6779C93.7963 79.2816 93.8396 78.5825 93.4432 78.1213L92.7586 77.3357C92.3622 76.8745 91.6631 76.8313 91.2019 77.2276L88.9462 79.1951C88.4849 79.5915 88.4417 80.2905 88.8381 80.7518L89.5227 81.5373C89.9263 81.9985 90.6254 82.049 91.0794 81.6454Z" fill="#131F2D"/>
<path d="M89.7042 81.7508L93.622 78.3375L92.9025 77.5116L88.9846 80.9249L89.7042 81.7508Z" fill="#B05638"/>
<path d="M88.7183 80.6133L92.6362 77.2L92.5131 77.0587L88.5952 80.472L88.7183 80.6133Z" fill="#016EB9"/>
<path d="M78.9143 73.545L81.098 72.6297L79.1089 66.0859L75.628 67.5489L78.9143 73.545Z" fill="#FF64AE"/>
<path d="M79.0585 70.8352C79.6783 70.5758 79.9737 69.8551 79.7143 69.2353C79.4549 68.6155 78.7342 68.3201 78.1144 68.5795C77.4946 68.839 77.1991 69.5596 77.4586 70.1794C77.718 70.8064 78.4387 71.0947 79.0585 70.8352Z" fill="#C63CC0"/>
<path d="M76.2813 68.2486L79.1708 67.0328L79.1093 66.8867L76.2198 68.1024L76.2813 68.2486Z" fill="#A0462D"/>
<path d="M80.3845 74.9431L81.0764 74.6477C81.4799 74.4747 81.6745 74.0063 81.5016 73.6027L81.0908 72.6298L78.9215 73.5378L79.3323 74.5107C79.5125 74.9215 79.9737 75.1089 80.3845 74.9431Z" fill="#C63CC0"/>
<path d="M63.6504 99.0858L66.0142 99.1074L66.7782 92.3114L62.9946 92.2826L63.6504 99.0858Z" fill="#FF64AE"/>
<path d="M64.854 97.4355C65.5314 97.4427 66.0791 96.895 66.0863 96.2247C66.0936 95.5473 65.5458 94.9996 64.8756 94.9924C64.1982 94.9852 63.6505 95.5329 63.6432 96.2031C63.636 96.8734 64.1765 97.4283 64.854 97.4355Z" fill="#C63CC0"/>
<path d="M63.3221 93.1744L66.4571 93.2007L66.4584 93.0421L63.3235 93.0158L63.3221 93.1744Z" fill="#A0462D"/>
<path d="M64.4432 100.952L65.2 100.96C65.6396 100.967 65.9999 100.607 66.0071 100.167L66.0143 99.1147L63.6649 99.0931L63.6577 100.145C63.6505 100.585 64.0036 100.945 64.4432 100.952Z" fill="#C63CC0"/>
<path d="M52.1699 98.7471L54.8868 98.7688C55.0526 98.7688 55.1823 98.6462 55.1967 98.4805L55.8237 90.7332L51.3555 90.6971L51.8528 98.4517C51.8672 98.6174 52.0041 98.7471 52.1699 98.7471Z" fill="#FFA9D6"/>
<path d="M53.5465 96.7942C54.3464 96.8014 54.9951 96.16 55.0023 95.36C55.0095 94.5601 54.3681 93.9114 53.5681 93.9042C52.7682 93.897 52.1195 94.5384 52.1123 95.3384C52.1123 96.1311 52.7537 96.787 53.5465 96.7942Z" fill="#FFD2EC"/>
<path d="M51.7395 91.7556L55.4438 91.7866L55.4454 91.5992L51.7411 91.5682L51.7395 91.7556Z" fill="#131F2D"/>
<path d="M51.7375 93.3215L55.4418 93.3526L55.4495 92.4373L51.7452 92.4063L51.7375 93.3215Z" fill="#FFD2EC"/>
<path d="M53.0707 100.945L53.9644 100.952C54.4833 100.96 54.9085 100.534 54.9157 100.016L54.9229 98.7688L52.1483 98.7471L52.1411 99.9939C52.1266 100.513 52.5446 100.945 53.0707 100.945Z" fill="#FFD2EC"/>
<path d="M56.9766 100.96H59.8449V90.9566C59.8449 90.4161 59.4053 89.9837 58.872 89.9837H57.9495C57.409 89.9837 56.9766 90.4233 56.9766 90.9566V100.96Z" fill="#B2CBFD"/>
<path d="M58.2811 90.099H58.6414C58.8576 90.099 59.0234 89.926 59.0234 89.717V88.8738C59.0234 88.6576 58.8504 88.4919 58.6414 88.4919H58.2811C58.0649 88.4919 57.8991 88.6648 57.8991 88.8738V89.717C57.8991 89.926 58.0721 90.099 58.2811 90.099Z" fill="#1A51AA"/>
<path d="M56.9761 99.3748H59.1381V93.1698H56.9761V99.3748Z" fill="#1A51AA"/>
<path d="M37.7418 100.938H48.8475L45.4891 94.3726H34.3907L37.7418 100.938Z" fill="#8C8C8C"/>
<path d="M37.5112 100.938H48.6169L45.2585 94.3726H34.16L37.5112 100.938Z" fill="#D1D1D1"/>
<path d="M51.6581 100.938H48.6168V100.707H51.6581C51.723 100.707 51.7734 100.758 51.7734 100.823C51.7734 100.888 51.723 100.938 51.6581 100.938Z" fill="#8C8C8C"/>
<path d="M40.4803 98.149C40.6461 98.603 41.0641 98.8697 41.41 98.7399C41.7559 98.6102 41.9073 98.1418 41.7415 97.6877C41.5758 97.2337 41.1578 96.9671 40.8119 97.0968C40.4659 97.2193 40.3218 97.695 40.4803 98.149Z" fill="#131F2D"/>
<path d="M87.0723 95.187C86.2363 94.6681 86.366 93.7168 86.366 93.7168V76.9178L85.0544 93.7096C84.9535 95.0068 85.9264 95.4104 85.9264 95.4104C85.9264 95.4104 87.9083 95.6987 87.0723 95.187Z" fill="#B8C1C9"/>
<defs>
<linearGradient id="paint0_linear_380_201" x1="83" y1="0" x2="83" y2="166" gradientUnits="userSpaceOnUse">
<stop stop-color="#EEF0FF"/>
<stop offset="1" stop-color="white"/>
</linearGradient>
</defs>
</svg>
