<svg width="602" height="401" viewBox="0 0 602 401" fill="none" xmlns="http://www.w3.org/2000/svg">
<path d="M299.5 42L0 221.5L301 400.5L601.5 221.5L299.5 42Z" fill="#E4E7FF" fill-opacity="0.35"/>
<path d="M299.5 27L0 206.5L301 385.5L601.5 206.5L299.5 27Z" fill="#E4E7FF" fill-opacity="0.5"/>
<path d="M299.5 14.5L0 194L301 373L601.5 194L299.5 14.5Z" fill="#E4E7FF" fill-opacity="0.75"/>
<path d="M236.556 271.748C236.08 269.218 238.74 265.634 240.129 264.158C240.526 264.369 242.741 263.714 246.084 264.158C250.847 264.79 252.038 268.585 253.229 271.748C254.42 274.91 251.443 278.073 249.061 279.338C248.308 279.738 243.106 280.603 240.725 279.338C238.343 278.073 237.152 274.91 236.556 271.748Z" fill="black"/>
<path d="M289.553 243.264C289.105 240.892 291.608 237.532 292.916 236.148C293.289 236.346 295.374 235.732 298.52 236.148C303.003 236.741 304.124 240.299 305.245 243.264C306.366 246.229 303.564 249.193 301.322 250.379C300.613 250.754 295.718 251.565 293.476 250.379C291.234 249.193 290.113 246.229 289.553 243.264Z" fill="black"/>
<path d="M244.13 276.663C243.039 276.151 243.584 273.588 244.13 272.05C244.567 270.82 245.767 270.171 246.313 270C247.222 270.171 249.26 270.718 250.133 271.538C251.224 272.563 249.587 275.126 249.041 276.151C248.496 277.176 245.222 277.176 244.13 276.663Z" fill="#FFBBDF"/>
<path d="M193.553 243.264C193.105 240.892 195.608 237.532 196.916 236.148C197.289 236.346 199.374 235.732 202.52 236.148C207.003 236.741 208.124 240.299 209.245 243.264C210.366 246.229 207.564 249.193 205.322 250.379C204.613 250.754 199.718 251.565 197.476 250.379C195.234 249.193 194.113 246.229 193.553 243.264Z" fill="black"/>
<path d="M200.22 248.567C198.973 247.908 199.596 244.613 200.22 242.636C200.719 241.054 202.091 240.22 202.715 240C203.754 240.22 206.083 240.923 207.08 241.977C208.328 243.295 206.457 246.59 205.833 247.908C205.209 249.226 201.467 249.226 200.22 248.567Z" fill="#FFBBDF"/>
<path d="M295.13 246.663C294.039 246.151 294.584 243.588 295.13 242.05C295.567 240.82 296.767 240.171 297.313 240C298.222 240.171 300.26 240.718 301.133 241.538C302.224 242.563 300.587 245.126 300.041 246.151C299.496 247.176 296.222 247.176 295.13 246.663Z" fill="#FFBBDF"/>
<path d="M355.5 169L351.5 215" stroke="black"/>
<path d="M373.5 164L377.5 209" stroke="black"/>
<path d="M364.5 167L365.5 191" stroke="black"/>
<path d="M348.5 165L343.5 204" stroke="black"/>
<path d="M348.5 168.812V161.094L377.5 151V161.688C376.908 163.073 372.004 166.743 369.806 167.625C366.847 168.812 363.296 170 357.969 170C353.708 170 349.881 169.208 348.5 168.812Z" fill="#A9AFE8"/>
<path d="M364.439 164.665C359.389 166.008 349.709 162.987 345.5 161.309L354.109 149C361.57 149.186 376.721 149.671 377.639 150.119C378.787 150.678 378.787 155.154 377.639 156.833C376.491 158.511 370.752 162.987 364.439 164.665Z" fill="#F9FAFF"/>
<path d="M263.5 134L291.735 117L323.5 130.964" stroke="black" stroke-width="2"/>
<path d="M272.5 128.714L292.669 131L307.5 123" stroke="black" stroke-width="2"/>
<path d="M290.5 31V139" stroke="black" stroke-width="3"/>
<path d="M287.181 15.3184C288.274 13.1752 296.287 7.28131 300.158 4.60227C301.296 4.37902 303.982 3.79856 305.621 3.26275C307.67 2.59299 310.402 3.26275 312.451 4.60227C314.09 5.67389 314.5 9.06734 314.5 10.6301C314.045 12.6394 311.632 17.9975 305.621 23.3556C298.109 30.0532 298.109 31.3927 291.962 32.7322C285.815 34.0717 283.083 30.0532 281.717 28.0439C280.351 26.0346 285.815 17.9975 287.181 15.3184Z" stroke="#B8BFFA" stroke-width="5"/>
<path d="M291.32 17.676C292.248 15.8185 299.047 10.7105 302.331 8.38863C303.297 8.19515 305.576 7.69208 306.967 7.22772C308.705 6.64726 311.023 7.22772 312.762 8.38863C314.152 9.31737 314.5 12.2584 314.5 13.6128C314.114 15.3541 312.066 19.9978 306.967 24.6415C300.592 30.4461 300.592 31.607 295.377 32.7679C290.161 33.9288 287.843 30.4461 286.684 28.7047C285.525 26.9633 290.161 19.9978 291.32 17.676Z" stroke="white" stroke-width="5"/>
<path d="M242.315 269L195.5 241.71L226.515 220.226L274.5 215L242.315 269Z" fill="#C7CFFF"/>
<path d="M302.5 232.83V211H300.74L253.817 235.78C250.885 239.123 244.785 245.928 243.846 246.4C242.908 246.872 241.891 250.137 241.5 251.71V270L300.74 235.78L302.5 232.83Z" fill="#D3DEFD"/>
<path d="M226.828 178.018C208.229 186.437 174.13 204.13 159.406 211.925C158.476 212.416 157.081 215.637 156.5 217.186V227.124L189.048 247C193.698 246.805 203.811 246.298 207.066 245.831C211.135 245.246 226.828 237.647 233.221 235.893C238.336 234.49 254.726 221.668 262.282 215.432C262.282 216.601 262.631 219.407 264.026 221.278C265.769 223.616 268.094 221.278 271.582 221.278C275.069 221.278 287.856 217.186 293.668 215.432C299.48 213.678 314.592 204.91 314.592 203.74C314.592 202.571 309.361 195.556 307.036 194.972C305.176 194.504 301.999 193.997 300.643 193.802C316.917 181.721 350.046 157.207 352.371 155.804C355.277 154.05 351.79 138.851 350.628 138.266C349.465 137.682 323.31 121.898 317.498 124.236C312.848 126.107 306.261 130.861 303.549 133.005L302.386 137.097C301.805 138.461 300.061 141.657 297.737 143.528C294.83 145.866 270.419 156.389 266.932 157.558C263.445 158.727 250.076 167.496 226.828 178.018Z" fill="#B80259"/>
<path d="M226.828 175.458C208.229 183.944 174.13 201.782 159.406 209.639C158.476 210.135 157.081 213.382 156.5 214.944V224.962L189.048 245C193.698 244.804 203.811 244.293 207.066 243.821C211.135 243.232 226.828 235.571 233.221 233.802C238.336 232.388 254.726 219.462 262.282 213.175C262.282 214.354 262.631 217.183 264.026 219.069C265.769 221.426 268.094 219.069 271.582 219.069C275.069 219.069 287.856 214.944 293.668 213.175C299.48 211.407 314.592 202.567 314.592 201.389C314.592 200.21 309.361 193.138 307.036 192.549C305.176 192.077 301.999 191.566 300.643 191.37C316.917 179.19 350.046 154.477 352.371 153.063C355.277 151.295 351.79 135.972 350.628 135.382C349.465 134.793 323.31 118.881 317.498 121.238C312.848 123.124 306.261 127.917 303.549 130.078L302.386 134.204C301.805 135.579 300.061 138.8 297.737 140.686C294.83 143.044 270.419 153.652 266.932 154.831C263.445 156.009 250.076 164.849 226.828 175.458Z" fill="#E0247F"/>
<path d="M254.79 237C252.454 237 253.816 215.844 254.79 205.267C255.568 204.889 257.592 204.36 259.461 205.267C261.329 206.173 261.407 208.289 261.212 209.233L262.38 220L267.051 217.733L301.5 203V213.2C300.138 214.333 296.362 217.28 292.158 220C286.903 223.4 257.709 237 254.79 237Z" fill="#C7CFFF"/>
<path d="M257.736 236C255.498 236 256.803 214.844 257.736 204.267C258.482 203.889 260.422 203.36 262.212 204.267C264.003 205.173 264.077 207.289 263.891 208.233L265.01 219L269.486 216.733L302.5 202V212.2C301.194 213.333 297.576 216.28 293.547 219C288.511 222.4 260.534 236 257.736 236Z" fill="#D3DEFD"/>
<path d="M234.076 158.184C234.99 158.184 237.502 157.395 238.645 157L241.5 162.329C240.548 163.316 238.188 165.526 236.36 166.474C234.076 167.658 234.076 166.474 232.363 166.474C230.65 166.474 229.507 165.289 228.365 165.289C227.223 165.289 226.081 163.513 226.652 162.329C227.223 161.145 226.081 158.184 228.365 158.184H234.076Z" fill="#FFCCCD"/>
<path d="M191.179 222.537C196.342 222.065 198.415 219.982 198.806 219L203.5 219.589C203.304 221.947 202.092 226.781 198.806 227.253C194.699 227.842 193.526 231.968 184.139 230.789C174.752 229.61 174.752 224.895 173.578 222.537C172.405 220.179 184.726 223.126 191.179 222.537Z" fill="#FFCCCD"/>
<path d="M170.284 211.158C173.014 210.653 177.866 208.842 179.951 208L184.5 211.158C182.984 214.105 179.041 220 175.402 220C170.853 220 170.284 219.368 163.461 217.474C158.002 215.958 155.879 212.632 155.5 211.158C159.291 211.368 167.555 211.663 170.284 211.158Z" fill="#FFCCCD"/>
<path d="M239.969 163L236.5 155.962L245.172 153.617L267.141 148.338C270.031 145.797 276.737 140.128 280.438 137.782C285.062 134.85 297.781 132.504 300.672 133.09C302.984 133.56 308.188 136.414 310.5 137.782L308.766 138.369L302.984 140.714L239.969 163Z" fill="#4754C7"/>
<path d="M312.523 208.332C312.081 206.969 318.232 200.193 321.364 196.975L327.994 193C329.284 193.189 331.973 194.022 332.415 195.839C332.967 198.111 330.757 201.518 327.994 204.925C325.232 208.332 313.075 210.035 312.523 208.332Z" fill="#132458"/>
<path d="M319.5 172.451C319.5 168.76 340.313 148.612 350.719 139H360.144L362.5 152.265C352.486 160.339 332.341 176.949 331.87 178.795C331.281 181.102 329.514 196.674 326.568 198.981C324.212 200.827 321.66 199.75 320.678 198.981C321.463 198.212 322.799 196.443 321.856 195.521C320.678 194.367 319.5 177.065 319.5 172.451Z" fill="#FFCFE9"/>
<path d="M305.736 137.323C310.842 138.857 313.278 139.241 313.859 139.241C315.406 140.094 318.848 142.055 320.241 143.078C321.981 144.357 327.203 148.193 329.524 150.751C331.844 153.309 329.524 155.227 327.783 156.506C326.042 157.785 319.66 161.621 316.179 166.737C312.698 171.853 305.736 171.213 302.835 170.574C299.934 169.934 298.774 165.458 297.033 163.54C295.293 161.621 289.491 156.506 285.43 152.669C281.368 148.833 282.529 144.357 283.109 141.799C283.689 139.241 286.59 134.765 291.232 134.125C295.873 133.486 299.354 135.404 305.736 137.323Z" fill="#D8DCFF"/>
<path d="M302.327 191.058C302.327 189.171 303.109 172.194 303.5 163.94C303.109 163.351 302.092 162.054 301.154 161.582C299.981 160.993 298.808 159.814 296.462 158.045C294.116 156.277 287.665 151.561 286.492 149.792C285.319 148.024 282.973 147.434 280.04 148.613C277.694 149.557 274.371 150.578 273.002 150.971C270.656 151.954 265.143 154.155 261.859 155.098C257.753 156.277 244.85 160.993 243.677 161.582C242.504 162.172 226.082 167.477 220.804 169.246C215.525 171.014 211.42 173.373 207.901 176.32C205.086 178.678 177.794 198.525 164.5 208.153L167.432 209.922C169.387 209.725 174.119 209.45 177.403 209.922C180.687 210.393 183.854 214.048 185.027 215.817C188.155 218.175 194.646 223.009 195.584 223.48C196.757 224.07 195.584 229.965 195.584 232.912C195.584 235.86 197.344 233.502 199.103 237.039C200.863 240.576 199.103 245.292 200.276 245.881C201.449 246.471 204.968 244.702 212.593 244.113C218.692 243.641 238.594 237.628 247.783 234.681C249.933 234.091 254.234 231.733 254.234 227.017C254.234 221.122 255.994 206.385 258.34 205.795C260.216 205.324 261.859 205.599 262.445 205.795L263.618 212.869C276.521 206.385 302.327 192.944 302.327 191.058Z" fill="white"/>
<path d="M287.5 189.677L284.305 184C283.507 184.811 281.43 186.433 279.514 186.433C277.118 186.433 277.118 188.055 275.52 189.677C273.923 191.299 272.326 199.409 274.722 197.787C277.118 196.165 277.118 196.165 280.312 193.732C282.868 191.785 284.039 191.84 284.305 192.11L287.5 189.677Z" fill="#FFCCCD"/>
<path d="M320.333 150.423C323.133 148.058 328.5 147.861 330.833 148.058C332.389 148.846 335.5 151.133 335.5 153.971C335.5 157.519 333.75 163.433 331.417 166.389C329.083 169.346 318.583 177.034 311 181.173C304.933 184.485 291.361 190.438 285.333 193L279.5 185.904L281.833 184.13C289.806 178.808 306.1 167.809 307.5 166.389C309.25 164.615 316.833 153.38 320.333 150.423Z" fill="#4754C7"/>
<path d="M321.955 146L325.5 135.647L313.682 135L312.5 138.882L321.955 146Z" fill="#FFCCCD"/>
<path d="M316.353 119.268C316.829 118.332 322.106 115.366 324.685 114C325.479 114.195 327.185 114.702 327.661 115.171C328.256 115.756 331.827 118.683 332.423 121.024C333.018 123.366 330.042 132.732 328.256 135.073C326.471 137.415 322.9 138 318.139 138C313.378 138 309.807 136.829 308.616 133.902C307.426 130.976 315.758 120.439 316.353 119.268Z" fill="#FFD41A"/>
<path d="M314.929 123.917C313.653 123.917 315.567 121.583 316.205 121H317.481C317.907 121.194 318.758 121.7 318.758 122.167C318.758 122.75 318.12 123.333 316.843 123.917C315.567 124.5 316.205 123.917 314.929 123.917Z" fill="#FF881A"/>
<path d="M320.034 126.25C319.523 125.317 320.672 124.306 321.31 123.917H323.862C324.5 123.917 324.5 125.667 324.5 126.25C324.5 126.833 324.5 128 322.586 128C320.672 128 320.672 127.417 320.034 126.25Z" fill="#FF881A"/>
<path d="M328.237 120.197C327.257 115.239 323.337 114.375 321.5 114.563L324.562 111.747C328.237 111.183 336.444 110.394 339.873 111.747C344.16 113.437 345.998 120.197 345.385 126.393C344.773 132.59 342.323 131.464 338.036 134.844C333.749 138.224 327.012 140.477 325.787 139.914C324.562 139.35 329.462 126.393 328.237 120.197Z" fill="#FFE0B1"/>
<path d="M325.68 220.406C321.67 219.265 329.117 212.988 329.69 211.847C330.138 210.955 336.818 207.086 340.331 205.135C341.94 205.09 345.386 205 346.303 205C347.448 205 348.021 209.565 346.876 211.847C345.73 214.13 340.574 217.553 337.137 219.265C333.7 220.977 329.69 221.547 325.68 220.406Z" fill="#132458"/>
<path d="M373.659 156.078C381.118 149.547 379.875 141.305 378.321 138L356.758 142.665C348.211 150.829 331 168.674 330.533 174.739C330.067 180.804 334.613 197.482 336.944 205.063C335.584 207.201 332.748 211.828 332.282 213.227C331.816 214.627 337.527 213.81 340.441 213.227C341.606 211.283 343.821 207.162 343.354 206.229C342.772 205.063 344.52 197.482 345.686 187.568C346.618 179.637 344.52 174.933 343.354 173.573C350.348 170.462 366.199 162.609 373.659 156.078Z" fill="#FFBBDF"/>
<path d="M319.883 107.746C320.826 108.195 324.208 106.811 325.781 106.062L330.5 111.114C328.337 112.05 323.776 114.034 322.832 114.483C321.652 115.044 320.472 117.289 318.703 117.851C316.933 118.412 313.984 117.289 312.804 116.167C311.625 115.044 312.214 115.605 310.445 116.167C308.675 116.728 306.906 115.605 305.136 114.483L305.136 114.483C303.367 113.36 305.726 109.992 306.906 107.746C308.086 105.501 309.6 106.062 313.394 106.062C317.189 106.062 318.703 107.185 319.883 107.746Z" fill="#FFF9E9"/>
<path d="M351.008 77.1617C352.392 76.6916 356.579 77.3575 358.5 77.7492C356.963 83.6243 353.659 95.7271 352.737 97.1371C351.585 98.8997 345.822 108.887 344.093 110.062C342.71 111.002 331.992 113 329.11 113L324.5 105.362L330.263 103.012C333.144 101.837 340.636 93.612 342.364 91.262C344.093 88.9119 349.28 77.7492 351.008 77.1617Z" fill="#FFCFE8"/>
<path d="M346.339 94.2409C346.798 92.3848 352.656 82.6403 355.528 78L372.757 80.3201L377.351 85.5404L375.054 91.3407C373.905 94.2409 369.311 102.361 369.885 109.902C370.46 117.442 378.5 136.003 378.5 137.743C378.5 139.483 374.48 144.704 369.885 147.024C365.291 149.344 363.568 147.024 357.825 145.284C352.082 143.544 350.359 138.323 348.061 134.263C345.764 130.203 345.19 120.342 344.616 118.022C344.041 115.702 345.764 96.561 346.339 94.2409Z" fill="#FF64AE"/>
<path d="M343.997 128.265C344.472 127.812 348.551 126.566 350.53 126L353.5 131.664C352.708 132.041 350.768 132.796 349.343 132.796C347.561 132.796 345.185 135.062 344.591 136.195C343.997 137.327 341.028 140.159 339.84 141.292C338.652 142.425 332.713 141.858 329.15 141.858C325.586 141.858 328.556 140.159 330.931 139.593C333.307 139.027 333.901 136.195 335.089 135.062C336.039 134.156 336.673 132.796 336.871 132.23C336.079 132.041 334.257 131.89 333.307 132.796C332.357 133.703 331.723 134.082 331.525 134.158C331.327 133.893 331.05 133.136 331.525 132.23C332.119 131.097 335.089 129.398 338.058 129.398C341.028 129.398 343.403 128.832 343.997 128.265Z" fill="#FFF9E9"/>
<path d="M368.808 99.3924C369.262 94.7342 373.54 88.5232 375.622 86C376.569 86 378.916 86.1165 380.733 86.5823C383.005 87.1646 382.437 90.0759 382.437 91.2405C382.437 92.4051 379.598 109.291 378.462 113.367C377.326 117.443 372.783 123.266 369.376 126.759C366.65 129.554 357.261 131.418 352.907 132L349.5 125.013L352.907 123.266C355.179 122.101 365.968 115.696 366.536 113.949C367.104 112.203 368.24 105.215 368.808 99.3924Z" fill="#FFBBDF"/>
<path d="M353.533 73.4374C352.032 71.4287 352.491 64.231 352.908 60.8831C353.95 60.2554 356.284 59 357.285 59C358.535 59 364.788 59 365.414 59.6277C366.039 60.2554 366.664 64.0217 366.664 64.6494C366.664 65.2771 369.791 67.1603 374.168 65.9049C378.545 64.6494 375.418 69.0434 375.418 71.5543C375.418 73.563 372.083 74.4836 370.416 74.6929C371.25 75.9483 373.042 78.7102 373.542 79.7146C374.168 80.97 373.542 84.1086 371.666 84.7363C369.791 85.364 366.664 87.2471 362.912 87.8749C359.911 88.377 359.161 87.2471 359.161 86.6194L360.411 78.4591H357.285C355.409 78.4591 355.409 75.9483 353.533 73.4374Z" fill="#FFCCCD"/>
<path d="M352.023 63.2133L359.722 60.8483C360.314 61.6367 361.735 63.4498 362.682 64.3958C363.867 65.5783 366.235 67.352 368.012 67.352H371.565C372.75 67.352 371.565 70.8994 370.381 73.2644C369.196 75.6293 369.196 75.0381 369.196 77.9943C369.196 80.9505 371.565 83.3154 372.75 83.9067C373.934 84.4979 376.895 82.1329 375.71 80.9505C374.526 79.768 375.71 73.2644 375.71 70.8994C375.71 68.5344 377.487 56.1184 375.71 53.1622C373.934 50.206 366.235 49.6148 362.682 50.206C359.129 50.7973 353.208 53.1622 352.023 56.1184C351.076 58.4834 351.628 61.8337 352.023 63.2133Z" fill="black"/>
<path d="M314.5 108.857L299.5 106L300.125 108.286L314.5 110V108.857Z" fill="white"/>
<path d="M296.479 107.503C294.706 106.502 295.74 105.417 296.479 105C297.71 105 300.172 105.125 300.172 105.626C300.172 106.252 300.91 108.129 300.172 108.755C299.433 109.38 298.695 108.755 296.479 107.503Z" fill="#FFD41A"/>
<path d="M412.5 234.327V156.852C413.08 156.07 414.82 154.622 417.14 155.092C419.46 155.561 432.8 164.287 439.18 168.591C439.953 169.569 441.5 171.878 441.5 173.286C441.5 174.695 441.5 224.349 441.5 249" stroke="#B8BFFA" stroke-width="3"/>
<path d="M412.553 165L375.5 186.449L405.026 205L441.5 183.551L412.553 165Z" fill="#A9AFE8"/>
<path d="M412.553 164L375.5 185.449L405.026 204L441.5 182.551L412.553 164Z" fill="#F9FAFF"/>
<path d="M412.553 215L375.5 236.449L405.026 255L441.5 233.551L412.553 215Z" fill="#A9AFE8"/>
<path d="M412.553 214L375.5 235.449L405.026 254L441.5 232.551L412.553 214Z" fill="#F9FAFF"/>
<path d="M374.5 252.864V177.479C374.695 176.706 375.787 175.391 378.594 176.319C382.104 177.479 403.745 190.236 404.33 193.136C404.915 196.035 404.33 196.615 404.33 198.355C404.33 199.746 405.11 248.031 405.5 272" stroke="#B8BFFA" stroke-width="3"/>
</svg>
