<svg width="1440" height="1294" viewBox="0 0 1440 1294" fill="none" xmlns="http://www.w3.org/2000/svg">
<path d="M97.5 1018.5C58.3 1007.7 15.8333 980.667 -0.5 968.5V1224.5C1.5 1223.67 9.7 1224.1 26.5 1232.5C47.5 1243 67.5 1309 108 1289.5C148.5 1270 128.5 1238.5 216.5 1232.5C304.5 1226.5 332.5 1214 308 1190C283.5 1166 212.5 1126 206.5 1087.5C200.5 1049 146.5 1032 97.5 1018.5Z" stroke="#E3E6FF"/>
<path d="M94.9139 1002.37C56.9483 991.922 15.819 965.77 0 954V1201.65C1.93702 1200.85 9.87879 1201.27 26.1497 1209.39C46.4884 1219.55 65.8586 1283.4 105.083 1264.54C144.308 1245.67 124.938 1215.2 210.166 1209.39C295.395 1203.59 322.514 1191.5 298.785 1168.28C275.057 1145.06 206.292 1106.37 200.481 1069.12C194.67 1031.88 142.371 1015.43 94.9139 1002.37Z" stroke="#E3E6FF"/>
<path d="M93.0589 979.292C55.8353 969.077 15.5098 943.508 0 932V1174.13C1.89916 1173.35 9.68572 1173.76 25.6387 1181.7C45.5799 1191.63 64.5715 1254.06 103.03 1235.61C141.488 1217.17 122.496 1187.38 206.059 1181.7C289.622 1176.03 316.21 1164.2 292.946 1141.5C269.681 1118.8 202.261 1080.97 196.563 1044.55C190.866 1008.14 139.588 992.06 93.0589 979.292Z" stroke="#E3E6FF"/>
<path d="M1440 322.336C1424.46 333.454 1384.33 329.52 1360.27 283.853C1330.2 226.769 1297.1 215.224 1240.34 215.224C1184.18 215.224 1140.34 181.872 1123.79 133.768C1107.24 85.6637 1044.74 107.471 1006.56 89.5119C976.021 75.1447 956.9 24.5177 951.157 1.00013" stroke="#E3E6FF"/>
<path d="M1440 345.735C1423.34 357.662 1380.32 353.441 1354.54 304.449C1322.31 243.209 1286.82 230.823 1225.98 230.823C1165.78 230.823 1118.79 195.043 1101.05 143.436C1083.3 91.8286 1016.31 115.224 975.389 95.957C942.653 80.5438 922.156 26.2303 916 1.00027" stroke="#E3E6FF"/>
<path d="M1440 298.938C1425.58 309.246 1388.33 305.599 1366.01 263.257C1338.1 210.33 1307.37 199.626 1254.7 199.626C1202.58 199.626 1161.89 168.702 1146.53 124.1C1131.17 79.499 1073.16 99.7182 1037.73 83.067C1009.39 69.746 991.643 22.8054 986.313 1.00026" stroke="#E3E6FF"/>
</svg>
