<svg width="25" height="28" viewBox="0 0 25 28" fill="none" xmlns="http://www.w3.org/2000/svg">
<path d="M6.45898 24.3589H1.92383V8.09604H6.45898V24.3589ZM4.18896 5.87763C2.73877 5.87763 1.5625 4.54007 1.5625 2.9252C1.5625 2.14952 1.83922 1.4056 2.33177 0.857115C2.82433 0.308626 3.49238 0.000488281 4.18896 0.000488281C4.88555 0.000488281 5.5536 0.308626 6.04616 0.857115C6.53871 1.4056 6.81543 2.14952 6.81543 2.9252C6.81543 4.54007 5.63867 5.87763 4.18896 5.87763ZM23.4326 24.3589H18.9072V16.4423C18.9072 14.5555 18.873 12.1359 16.5493 12.1359C14.1914 12.1359 13.8301 14.1858 13.8301 16.3063V24.3589H9.29981V8.09604H13.6494V10.3144H13.7129C14.3184 9.03669 15.7974 7.68825 18.0039 7.68825C22.5938 7.68825 23.4375 11.0539 23.4375 15.4255V24.3589H23.4326Z" fill="white"/>
</svg>
