<svg width="25" height="28" viewBox="0 0 25 28" fill="none" xmlns="http://www.w3.org/2000/svg">
<path d="M23.8566 7.54354C23.5839 6.4005 22.7807 5.50028 21.7609 5.19478C19.9124 4.63965 12.5 4.63965 12.5 4.63965C12.5 4.63965 5.08767 4.63965 3.2391 5.19478C2.21927 5.50033 1.41606 6.4005 1.14344 7.54354C0.648132 9.61536 0.648132 13.938 0.648132 13.938C0.648132 13.938 0.648132 18.2607 1.14344 20.3325C1.41606 21.4755 2.21927 22.3382 3.2391 22.6437C5.08767 23.1989 12.5 23.1989 12.5 23.1989C12.5 23.1989 19.9123 23.1989 21.7609 22.6437C22.7807 22.3382 23.5839 21.4755 23.8566 20.3325C24.3519 18.2607 24.3519 13.938 24.3519 13.938C24.3519 13.938 24.3519 9.61536 23.8566 7.54354ZM10.0757 17.8627V10.0134L16.271 13.9381L10.0757 17.8627Z" fill="white"/>
</svg>
