<svg width="1440" height="893" viewBox="0 0 1440 893" fill="none" xmlns="http://www.w3.org/2000/svg">
<path d="M413.5 170.076C163.1 69.9541 48 149.55 0 191.267V853H1440V271.161C1437.5 246.491 1450.6 76.4533 1309 18.4499C1167.4 -39.5535 1020.5 54.1626 956 94.1753C843 159.76 663.9 270.198 413.5 170.076Z" fill="url(#paint0_linear_162_442)"/>
<path d="M413.5 191.312C163.1 88.439 48 153.703 0 196.567V893H1440V295.174C1437.5 269.827 1452.1 111.19 1310.5 51.5927C1168.9 -8.00445 1044 76.6309 979.5 117.743C866.5 185.13 663.9 294.185 413.5 191.312Z" fill="url(#paint1_linear_162_442)"/>
<defs>
<linearGradient id="paint0_linear_162_442" x1="768" y1="14.051" x2="768" y2="862.025" gradientUnits="userSpaceOnUse">
<stop stop-color="#F4F6FF"/>
<stop offset="1" stop-color="white" stop-opacity="0"/>
</linearGradient>
<linearGradient id="paint1_linear_162_442" x1="768" y1="31" x2="768" y2="902.273" gradientUnits="userSpaceOnUse">
<stop stop-color="#E5E8FF"/>
<stop offset="1" stop-color="white" stop-opacity="0"/>
</linearGradient>
</defs>
</svg>
