<svg width="1229" height="743" viewBox="0 0 1229 743" fill="none" xmlns="http://www.w3.org/2000/svg">
<path d="M1211.55 184.986C1247.57 102.347 1217.64 27.2292 1198.17 0H-38V501.363C-13.8011 565.474 50.4137 711.849 198.446 736.053C365.097 763.301 477.071 705.366 533.039 649.611C589.008 593.856 667.405 511.222 806.797 461.167C993.359 394.175 1166.54 288.284 1211.55 184.986Z" fill="url(#paint0_linear_91_46)"/>
<path d="M1158.79 177.118C1193.28 97.9944 1164.62 26.0711 1145.97 0H-38V480.04C-14.823 541.424 46.6803 681.574 188.462 704.748C348.076 730.837 455.321 675.367 508.926 621.983C562.531 568.599 637.618 489.48 771.125 441.554C949.808 377.411 1115.67 276.023 1158.79 177.118Z" fill="url(#paint1_linear_91_46)"/>
<defs>
<linearGradient id="paint0_linear_91_46" x1="541.915" y1="154.016" x2="846.629" y2="869.443" gradientUnits="userSpaceOnUse">
<stop stop-color="#EBEDFF"/>
<stop offset="1" stop-color="white" stop-opacity="0"/>
</linearGradient>
<linearGradient id="paint1_linear_91_46" x1="517.427" y1="147.466" x2="809.117" y2="832.533" gradientUnits="userSpaceOnUse">
<stop stop-color="#E4E7FF"/>
<stop offset="1" stop-color="white" stop-opacity="0"/>
</linearGradient>
</defs>
</svg>
