<svg width="147" height="80" viewBox="0 0 147 80" fill="none" xmlns="http://www.w3.org/2000/svg">
<path d="M23.2812 38.488C23.4372 38.884 23.6172 39.172 23.8212 39.352C24.0252 39.532 24.2232 39.628 24.4152 39.64V40C23.6952 39.964 22.7832 39.946 21.6792 39.946C20.4552 39.946 19.5432 39.964 18.9432 40V39.64C19.3992 39.616 19.7232 39.562 19.9152 39.478C20.1072 39.382 20.2032 39.22 20.2032 38.992C20.2032 38.776 20.1312 38.488 19.9872 38.128L18.9072 35.176H14.9832L14.5152 36.418C14.1792 37.282 14.0112 37.948 14.0112 38.416C14.0112 38.86 14.1432 39.172 14.4072 39.352C14.6832 39.52 15.0852 39.616 15.6132 39.64V40C14.7972 39.964 14.0532 39.946 13.3812 39.946C12.8292 39.946 12.3732 39.964 12.0132 40V39.64C12.6012 39.532 13.1172 38.902 13.5612 37.75L17.6652 27.22C17.7972 27.232 18.0072 27.238 18.2952 27.238C18.5832 27.238 18.7872 27.232 18.9072 27.22L23.2812 38.488ZM18.7812 34.816L16.9992 29.956L15.1272 34.816H18.7812ZM49.0295 27.616C48.6215 27.64 48.3275 27.688 48.1475 27.76C47.9675 27.832 47.8415 27.97 47.7695 28.174C47.7095 28.378 47.6795 28.708 47.6795 29.164V38.092C47.6795 38.548 47.7095 38.878 47.7695 39.082C47.8415 39.286 47.9675 39.424 48.1475 39.496C48.3395 39.568 48.6335 39.616 49.0295 39.64V40C48.3695 39.964 47.4275 39.946 46.2035 39.946C44.9195 39.946 43.9715 39.964 43.3595 40V39.64C43.7915 39.616 44.1035 39.568 44.2955 39.496C44.4995 39.424 44.6375 39.286 44.7095 39.082C44.7815 38.878 44.8175 38.548 44.8175 38.092V28.678L40.4795 40.018H40.1915L35.3315 28.426V37.048C35.3315 37.756 35.3675 38.278 35.4395 38.614C35.5115 38.938 35.6675 39.178 35.9075 39.334C36.1475 39.478 36.5375 39.58 37.0775 39.64V40C36.6095 39.964 35.9615 39.946 35.1335 39.946C34.4735 39.946 33.9515 39.964 33.5675 40V39.64C33.9635 39.58 34.2515 39.478 34.4315 39.334C34.6235 39.19 34.7495 38.962 34.8095 38.65C34.8815 38.338 34.9175 37.876 34.9175 37.264V29.164C34.9175 28.708 34.8815 28.378 34.8095 28.174C34.7495 27.97 34.6235 27.832 34.4315 27.76C34.2515 27.688 33.9635 27.64 33.5675 27.616V27.256C33.9515 27.292 34.4735 27.31 35.1335 27.31C36.2375 27.31 37.1855 27.292 37.9775 27.256L41.6135 36.022L44.9255 27.31H46.2035C47.4275 27.31 48.3695 27.292 49.0295 27.256V27.616ZM69.6171 38.488C69.7731 38.884 69.9531 39.172 70.1571 39.352C70.3611 39.532 70.5591 39.628 70.7511 39.64V40C70.0311 39.964 69.1191 39.946 68.0151 39.946C66.7911 39.946 65.8791 39.964 65.2791 40V39.64C65.7351 39.616 66.0591 39.562 66.2511 39.478C66.4431 39.382 66.5391 39.22 66.5391 38.992C66.5391 38.776 66.4671 38.488 66.3231 38.128L65.2431 35.176H61.3191L60.8511 36.418C60.5151 37.282 60.3471 37.948 60.3471 38.416C60.3471 38.86 60.4791 39.172 60.7431 39.352C61.0191 39.52 61.4211 39.616 61.9491 39.64V40C61.1331 39.964 60.3891 39.946 59.7171 39.946C59.1651 39.946 58.7091 39.964 58.3491 40V39.64C58.9371 39.532 59.4531 38.902 59.8971 37.75L64.0011 27.22C64.1331 27.232 64.3431 27.238 64.6311 27.238C64.9191 27.238 65.1231 27.232 65.2431 27.22L69.6171 38.488ZM65.1171 34.816L63.3351 29.956L61.4631 34.816H65.1171ZM91.7474 27.616C91.3514 27.676 91.0574 27.778 90.8654 27.922C90.6854 28.066 90.5594 28.294 90.4874 28.606C90.4274 28.918 90.3974 29.38 90.3974 29.992V40.036L89.9654 40.018L89.4794 40.036L81.6674 30.136V37.048C81.6674 37.756 81.7034 38.278 81.7754 38.614C81.8474 38.938 82.0034 39.178 82.2434 39.334C82.4834 39.478 82.8734 39.58 83.4134 39.64V40C82.9454 39.964 82.2974 39.946 81.4694 39.946C80.8094 39.946 80.2874 39.964 79.9034 40V39.64C80.2994 39.58 80.5874 39.478 80.7674 39.334C80.9594 39.19 81.0854 38.962 81.1454 38.65C81.2174 38.338 81.2534 37.876 81.2534 37.264V29.164C81.2534 28.708 81.2174 28.378 81.1454 28.174C81.0854 27.97 80.9594 27.832 80.7674 27.76C80.5874 27.688 80.2994 27.64 79.9034 27.616V27.256C80.2874 27.292 80.8094 27.31 81.4694 27.31C82.0694 27.31 82.5854 27.292 83.0174 27.256L89.9834 35.842V30.208C89.9834 29.5 89.9474 28.984 89.8754 28.66C89.8034 28.324 89.6474 28.084 89.4074 27.94C89.1674 27.784 88.7774 27.676 88.2374 27.616V27.256C88.7054 27.292 89.3534 27.31 90.1814 27.31C90.8534 27.31 91.3754 27.292 91.7474 27.256V27.616ZM107.438 27.256C109.778 27.256 111.53 27.79 112.694 28.858C113.858 29.914 114.44 31.456 114.44 33.484C114.44 34.792 114.152 35.938 113.576 36.922C113.012 37.894 112.19 38.65 111.11 39.19C110.042 39.73 108.764 40 107.276 40L106.16 39.982C105.464 39.958 104.96 39.946 104.648 39.946C103.412 39.946 102.488 39.964 101.876 40V39.64C102.272 39.616 102.56 39.568 102.74 39.496C102.932 39.424 103.058 39.286 103.118 39.082C103.19 38.878 103.226 38.548 103.226 38.092V29.164C103.226 28.708 103.19 28.378 103.118 28.174C103.058 27.97 102.932 27.832 102.74 27.76C102.56 27.688 102.272 27.64 101.876 27.616V27.256C102.38 27.292 103.106 27.31 104.054 27.31H104.612L105.332 27.292C106.316 27.268 107.018 27.256 107.438 27.256ZM107.42 27.58C107.048 27.58 106.766 27.622 106.574 27.706C106.394 27.79 106.268 27.94 106.196 28.156C106.124 28.372 106.088 28.696 106.088 29.128V38.128C106.088 38.56 106.124 38.884 106.196 39.1C106.268 39.316 106.394 39.466 106.574 39.55C106.766 39.634 107.054 39.676 107.438 39.676C108.89 39.676 109.922 39.172 110.534 38.164C111.146 37.144 111.452 35.608 111.452 33.556C111.452 31.504 111.134 29.998 110.498 29.038C109.874 28.066 108.848 27.58 107.42 27.58ZM134.709 38.488C134.865 38.884 135.045 39.172 135.249 39.352C135.453 39.532 135.651 39.628 135.843 39.64V40C135.123 39.964 134.211 39.946 133.107 39.946C131.883 39.946 130.971 39.964 130.371 40V39.64C130.827 39.616 131.151 39.562 131.343 39.478C131.535 39.382 131.631 39.22 131.631 38.992C131.631 38.776 131.559 38.488 131.415 38.128L130.335 35.176H126.411L125.943 36.418C125.607 37.282 125.439 37.948 125.439 38.416C125.439 38.86 125.571 39.172 125.835 39.352C126.111 39.52 126.513 39.616 127.041 39.64V40C126.225 39.964 125.481 39.946 124.809 39.946C124.257 39.946 123.801 39.964 123.441 40V39.64C124.029 39.532 124.545 38.902 124.989 37.75L129.093 27.22C129.225 27.232 129.435 27.238 129.723 27.238C130.011 27.238 130.215 27.232 130.335 27.22L134.709 38.488ZM130.209 34.816L128.427 29.956L126.555 34.816H130.209Z" fill="#091156"/>
<path d="M36.6029 48.432C36.3389 48.4467 36.1446 48.476 36.0199 48.52C35.9026 48.564 35.8219 48.6483 35.7779 48.773C35.7339 48.8977 35.7119 49.0993 35.7119 49.378V54.834C35.7119 55.1127 35.7339 55.3143 35.7779 55.439C35.8219 55.5637 35.9026 55.648 36.0199 55.692C36.1446 55.7287 36.3389 55.747 36.6029 55.747H37.4059C37.8606 55.747 38.2053 55.6847 38.4399 55.56C38.6819 55.428 38.8579 55.219 38.9679 54.933C39.0779 54.647 39.1586 54.2327 39.2099 53.69H39.4629C39.4409 53.9173 39.4299 54.218 39.4299 54.592C39.4299 55.01 39.4556 55.4793 39.5069 56C39.0083 55.978 38.1686 55.967 36.9879 55.967C35.5799 55.967 34.5166 55.978 33.7979 56V55.78C34.0619 55.7653 34.2526 55.736 34.3699 55.692C34.4946 55.648 34.5789 55.5637 34.6229 55.439C34.6669 55.3143 34.6889 55.1127 34.6889 54.834V49.378C34.6889 49.0993 34.6669 48.8977 34.6229 48.773C34.5789 48.6483 34.4946 48.564 34.3699 48.52C34.2526 48.476 34.0619 48.4467 33.7979 48.432V48.212C34.1059 48.234 34.5753 48.245 35.2059 48.245C35.7926 48.245 36.2583 48.234 36.6029 48.212V48.432ZM51.5397 55.076C51.7157 55.5307 51.9687 55.7653 52.2987 55.78V56C52.0054 55.978 51.6131 55.967 51.1217 55.967C50.4911 55.967 50.0217 55.978 49.7137 56V55.78C49.9924 55.7653 50.1904 55.7323 50.3077 55.681C50.4324 55.6223 50.4947 55.5197 50.4947 55.373C50.4947 55.2483 50.4507 55.076 50.3627 54.856L49.6917 53.052H47.0297L46.5787 54.218C46.4321 54.614 46.3587 54.9147 46.3587 55.12C46.3587 55.3473 46.4357 55.5123 46.5897 55.615C46.7511 55.7177 46.9931 55.7727 47.3157 55.78V56C46.8977 55.978 46.4761 55.967 46.0507 55.967C45.7207 55.967 45.4457 55.978 45.2257 56V55.78C45.5924 55.692 45.8821 55.373 46.0947 54.823L48.6797 48.157H48.8557L51.5397 55.076ZM49.6037 52.832L48.3717 49.543L47.1177 52.832H49.6037ZM64.9364 48.432C64.6798 48.4467 64.4891 48.487 64.3644 48.553C64.2398 48.6117 64.1554 48.7143 64.1114 48.861C64.0674 49.0003 64.0454 49.2093 64.0454 49.488V52.799C64.0454 53.327 64.0088 53.7817 63.9354 54.163C63.8694 54.537 63.7558 54.8597 63.5944 55.131C63.4111 55.4463 63.1398 55.6957 62.7804 55.879C62.4284 56.0623 62.0288 56.154 61.5814 56.154C60.7748 56.154 60.1588 55.956 59.7334 55.56C59.4108 55.2593 59.1944 54.9183 59.0844 54.537C58.9744 54.1557 58.9194 53.5873 58.9194 52.832V49.378C58.9194 49.0993 58.8974 48.8977 58.8534 48.773C58.8094 48.6483 58.7251 48.564 58.6004 48.52C58.4831 48.476 58.2924 48.4467 58.0284 48.432V48.212C58.3364 48.234 58.8058 48.245 59.4364 48.245C60.0304 48.245 60.4961 48.234 60.8334 48.212V48.432C60.5694 48.4467 60.3751 48.476 60.2504 48.52C60.1331 48.564 60.0524 48.6483 60.0084 48.773C59.9644 48.8977 59.9424 49.0993 59.9424 49.378V53.019C59.9424 53.6057 59.9828 54.0933 60.0634 54.482C60.1441 54.8707 60.3091 55.1823 60.5584 55.417C60.8151 55.6517 61.1891 55.769 61.6804 55.769C62.4578 55.769 63.0041 55.5197 63.3194 55.021C63.6348 54.5223 63.7924 53.822 63.7924 52.92V49.488C63.7924 49.092 63.7191 48.8207 63.5724 48.674C63.4331 48.5273 63.1728 48.4467 62.7914 48.432V48.212C63.0554 48.234 63.4294 48.245 63.9134 48.245C64.3534 48.245 64.6944 48.234 64.9364 48.212V48.432ZM77.9895 55.45C77.8208 55.6993 77.6522 55.879 77.4835 55.989C77.3148 56.099 77.0912 56.154 76.8125 56.154C76.5118 56.154 76.2625 56.066 76.0645 55.89C75.8738 55.714 75.7308 55.406 75.6355 54.966L75.3935 53.866C75.3055 53.4847 75.2212 53.1913 75.1405 52.986C75.0672 52.7807 74.9535 52.6157 74.7995 52.491C74.6455 52.3663 74.4292 52.304 74.1505 52.304H73.1055V54.834C73.1055 55.1127 73.1275 55.3143 73.1715 55.439C73.2155 55.5637 73.2962 55.648 73.4135 55.692C73.5382 55.736 73.7325 55.7653 73.9965 55.78V56C73.6592 55.978 73.1935 55.967 72.5995 55.967C71.9688 55.967 71.4995 55.978 71.1915 56V55.78C71.4555 55.7653 71.6462 55.736 71.7635 55.692C71.8882 55.648 71.9725 55.5637 72.0165 55.439C72.0605 55.3143 72.0825 55.1127 72.0825 54.834V49.378C72.0825 49.0993 72.0605 48.8977 72.0165 48.773C71.9725 48.6483 71.8882 48.564 71.7635 48.52C71.6462 48.476 71.4555 48.4467 71.1915 48.432V48.212C71.4995 48.234 71.9468 48.245 72.5335 48.245L73.7215 48.234C73.8608 48.2267 74.0185 48.223 74.1945 48.223C75.0452 48.223 75.6978 48.4027 76.1525 48.762C76.6145 49.114 76.8455 49.5723 76.8455 50.137C76.8455 50.423 76.7758 50.7127 76.6365 51.006C76.5045 51.292 76.2772 51.5523 75.9545 51.787C75.6392 52.0143 75.2248 52.1683 74.7115 52.249L74.8435 52.271C75.3275 52.3517 75.6795 52.4983 75.8995 52.711C76.1195 52.9237 76.2808 53.261 76.3835 53.723L76.6585 54.845C76.7318 55.1823 76.8088 55.417 76.8895 55.549C76.9702 55.681 77.0802 55.747 77.2195 55.747C77.3442 55.747 77.4468 55.714 77.5275 55.648C77.6155 55.582 77.7145 55.4757 77.8245 55.329L77.9895 55.45ZM73.9195 48.432C73.6922 48.432 73.5198 48.4577 73.4025 48.509C73.2925 48.5603 73.2155 48.652 73.1715 48.784C73.1275 48.916 73.1055 49.114 73.1055 49.378V52.084H73.8425C74.5685 52.084 75.0672 51.9227 75.3385 51.6C75.6098 51.2773 75.7455 50.83 75.7455 50.258C75.7455 49.6567 75.6025 49.202 75.3165 48.894C75.0305 48.586 74.5648 48.432 73.9195 48.432ZM89.4563 54.592C89.4563 55.01 89.482 55.4793 89.5333 56C89.0346 55.978 88.195 55.967 87.0143 55.967C85.6063 55.967 84.543 55.978 83.8243 56V55.78C84.0883 55.7653 84.279 55.736 84.3963 55.692C84.521 55.648 84.6053 55.5637 84.6493 55.439C84.6933 55.3143 84.7153 55.1127 84.7153 54.834V49.378C84.7153 49.0993 84.6933 48.8977 84.6493 48.773C84.6053 48.6483 84.521 48.564 84.3963 48.52C84.279 48.476 84.0883 48.4467 83.8243 48.432V48.212C84.543 48.234 85.6063 48.245 87.0143 48.245C88.0923 48.245 88.8586 48.234 89.3133 48.212C89.262 48.696 89.2363 49.1287 89.2363 49.51C89.2363 49.796 89.2473 50.0233 89.2693 50.192H89.0163C88.965 49.7153 88.899 49.3633 88.8183 49.136C88.7376 48.9013 88.602 48.7327 88.4113 48.63C88.2206 48.52 87.931 48.465 87.5423 48.465H86.6293C86.3653 48.465 86.171 48.487 86.0463 48.531C85.929 48.5677 85.8483 48.6483 85.8043 48.773C85.7603 48.8977 85.7383 49.0993 85.7383 49.378V51.974H86.4643C86.721 51.974 86.919 51.9153 87.0583 51.798C87.1976 51.6733 87.2893 51.5303 87.3333 51.369C87.3846 51.2003 87.425 50.9913 87.4543 50.742L87.4873 50.522H87.7403C87.7183 50.83 87.7073 51.1747 87.7073 51.556V52.084C87.7073 52.458 87.7293 52.9787 87.7733 53.646H87.5203C87.513 53.5947 87.491 53.4187 87.4543 53.118C87.4176 52.81 87.315 52.579 87.1463 52.425C86.985 52.271 86.7576 52.194 86.4643 52.194H85.7383V54.834C85.7383 55.1127 85.7603 55.3143 85.8043 55.439C85.8483 55.5637 85.929 55.648 86.0463 55.692C86.171 55.7287 86.3653 55.747 86.6293 55.747H87.4323C87.887 55.747 88.2316 55.6883 88.4663 55.571C88.7083 55.4463 88.8843 55.252 88.9943 54.988C89.1043 54.7167 89.185 54.3207 89.2363 53.8H89.4893C89.4673 53.998 89.4563 54.262 89.4563 54.592ZM102.935 48.432C102.679 48.4467 102.488 48.487 102.363 48.553C102.239 48.6117 102.154 48.7143 102.11 48.861C102.066 49.0003 102.044 49.2093 102.044 49.488V56.055H101.791L97.1714 48.916V54.724C97.1714 55.01 97.1934 55.2227 97.2374 55.362C97.2888 55.5013 97.3841 55.604 97.5234 55.67C97.6628 55.7287 97.8791 55.7653 98.1724 55.78V56C97.9084 55.978 97.5344 55.967 97.0504 55.967C96.6104 55.967 96.2694 55.978 96.0274 56V55.78C96.2841 55.7653 96.4748 55.7287 96.5994 55.67C96.7241 55.604 96.8084 55.5013 96.8524 55.362C96.8964 55.2153 96.9184 55.0027 96.9184 54.724V49.378C96.9184 49.0993 96.8964 48.8977 96.8524 48.773C96.8084 48.6483 96.7241 48.564 96.5994 48.52C96.4821 48.476 96.2914 48.4467 96.0274 48.432V48.212C96.2694 48.234 96.6104 48.245 97.0504 48.245C97.3804 48.245 97.6664 48.234 97.9084 48.212L101.791 54.196V49.488C101.791 49.202 101.766 48.9893 101.714 48.85C101.67 48.7107 101.579 48.6117 101.439 48.553C101.3 48.487 101.084 48.4467 100.79 48.432V48.212C101.054 48.234 101.428 48.245 101.912 48.245C102.352 48.245 102.693 48.234 102.935 48.212V48.432ZM115.344 48.212C115.293 48.7327 115.267 49.202 115.267 49.62C115.267 49.9867 115.278 50.2873 115.3 50.522H115.047C114.988 49.9573 114.915 49.5393 114.827 49.268C114.739 48.9893 114.585 48.7877 114.365 48.663C114.145 48.531 113.808 48.465 113.353 48.465H112.759V54.724C112.759 55.032 112.788 55.2557 112.847 55.395C112.906 55.5343 113.008 55.6297 113.155 55.681C113.302 55.7323 113.54 55.7653 113.87 55.78V56C113.489 55.978 112.95 55.967 112.253 55.967C111.52 55.967 110.977 55.978 110.625 56V55.78C110.955 55.7653 111.193 55.7323 111.34 55.681C111.487 55.6297 111.589 55.5343 111.648 55.395C111.707 55.2557 111.736 55.032 111.736 54.724V48.465H111.142C110.687 48.465 110.35 48.531 110.13 48.663C109.91 48.7877 109.756 48.9893 109.668 49.268C109.58 49.5393 109.507 49.9573 109.448 50.522H109.195C109.217 50.2873 109.228 49.9867 109.228 49.62C109.228 49.202 109.202 48.7327 109.151 48.212C109.76 48.234 110.794 48.245 112.253 48.245C113.705 48.245 114.735 48.234 115.344 48.212Z" fill="#091156"/>
</svg>
