<svg width="147" height="80" viewBox="0 0 147 80" fill="none" xmlns="http://www.w3.org/2000/svg">
<path d="M40.4826 52.915H38.3546L37.9626 54H37.2906L39.0546 49.149H39.7896L41.5466 54H40.8746L40.4826 52.915ZM40.3006 52.397L39.4186 49.933L38.5366 52.397H40.3006ZM55.3844 54L54.2224 52.005H53.4524V54H52.8154V49.121H54.3904C54.759 49.121 55.0694 49.184 55.3214 49.31C55.578 49.436 55.7694 49.6063 55.8954 49.821C56.0214 50.0357 56.0844 50.2807 56.0844 50.556C56.0844 50.892 55.9864 51.1883 55.7904 51.445C55.599 51.7017 55.3097 51.872 54.9224 51.956L56.1474 54H55.3844ZM53.4524 51.494H54.3904C54.7357 51.494 54.9947 51.41 55.1674 51.242C55.34 51.0693 55.4264 50.8407 55.4264 50.556C55.4264 50.2667 55.34 50.0427 55.1674 49.884C54.9994 49.7253 54.7404 49.646 54.3904 49.646H53.4524V51.494ZM70.5772 49.121V49.639H69.2472V54H68.6102V49.639H67.2732V49.121H70.5772ZM82.4983 49.121V54H81.8613V49.121H82.4983ZM95.6309 54.049C95.3089 54.049 95.0196 53.993 94.7629 53.881C94.5109 53.7643 94.3126 53.6057 94.1679 53.405C94.0233 53.1997 93.9486 52.964 93.9439 52.698H94.6229C94.6463 52.9267 94.7396 53.1203 94.9029 53.279C95.0709 53.433 95.3136 53.51 95.6309 53.51C95.9343 53.51 96.1723 53.4353 96.3449 53.286C96.5223 53.132 96.6109 52.936 96.6109 52.698C96.6109 52.5113 96.5596 52.3597 96.4569 52.243C96.3543 52.1263 96.2259 52.0377 96.0719 51.977C95.9179 51.9163 95.7103 51.851 95.4489 51.781C95.1269 51.697 94.8679 51.613 94.6719 51.529C94.4806 51.445 94.3149 51.3143 94.1749 51.137C94.0396 50.955 93.9719 50.7123 93.9719 50.409C93.9719 50.143 94.0396 49.9073 94.1749 49.702C94.3103 49.4967 94.4993 49.338 94.7419 49.226C94.9893 49.114 95.2716 49.058 95.5889 49.058C96.0463 49.058 96.4196 49.1723 96.7089 49.401C97.0029 49.6297 97.1686 49.933 97.2059 50.311H96.5059C96.4826 50.1243 96.3846 49.961 96.2119 49.821C96.0393 49.6763 95.8106 49.604 95.5259 49.604C95.2599 49.604 95.0429 49.674 94.8749 49.814C94.7069 49.9493 94.6229 50.1407 94.6229 50.388C94.6229 50.5653 94.6719 50.71 94.7699 50.822C94.8726 50.934 94.9963 51.0203 95.1409 51.081C95.2903 51.137 95.4979 51.2023 95.7639 51.277C96.0859 51.3657 96.3449 51.4543 96.5409 51.543C96.7369 51.627 96.9049 51.76 97.0449 51.942C97.1849 52.1193 97.2549 52.362 97.2549 52.67C97.2549 52.908 97.1919 53.132 97.0659 53.342C96.9399 53.552 96.7533 53.7223 96.5059 53.853C96.2586 53.9837 95.9669 54.049 95.6309 54.049ZM111.695 49.121V49.639H110.365V54H109.728V49.639H108.391V49.121H111.695Z" fill="#091156"/>
<line x1="45" y1="43.5" x2="108" y2="43.5" stroke="#091156"/>
<line x1="45" y1="59.5" x2="108" y2="59.5" stroke="#091156"/>
<path d="M60.9249 38L56.9129 32.73V38H54.0059V26.066H56.9129V31.302L60.8909 26.066H64.3079L59.6839 31.914L64.4779 38H60.9249ZM73.4074 26.066H76.3824L74.4784 30.622H72.5234L73.4074 26.066ZM88.0691 35.62H93.2031V38H84.7711V35.79L89.8711 28.446H84.7711V26.066H93.2031V28.276L88.0691 35.62Z" fill="#091156"/>
</svg>
