<svg width="147" height="80" viewBox="0 0 147 80" fill="none" xmlns="http://www.w3.org/2000/svg">
<rect x="11" y="23" width="22.4091" height="34" rx="11.2045" fill="#172176" fill-opacity="0.78"/>
<rect x="52.7273" y="29.1819" width="22.4091" height="34" rx="11.2045" transform="rotate(90 52.7273 29.1819)" fill="#172176" fill-opacity="0.37"/>
<path d="M73.2468 37.88C73.9381 38.0273 74.4935 38.373 74.9128 38.917C75.3321 39.4497 75.5418 40.0617 75.5418 40.753C75.5418 41.7503 75.1905 42.5437 74.4878 43.133C73.7965 43.711 72.8275 44 71.5808 44H66.0218V32.066H71.3938C72.6065 32.066 73.5528 32.3437 74.2328 32.899C74.9241 33.4543 75.2698 34.208 75.2698 35.16C75.2698 35.8627 75.0828 36.4463 74.7088 36.911C74.3461 37.3757 73.8588 37.6987 73.2468 37.88ZM68.9288 36.894H70.8328C71.3088 36.894 71.6715 36.792 71.9208 36.588C72.1815 36.3727 72.3118 36.061 72.3118 35.653C72.3118 35.245 72.1815 34.9333 71.9208 34.718C71.6715 34.5027 71.3088 34.395 70.8328 34.395H68.9288V36.894ZM71.0708 41.654C71.5581 41.654 71.9321 41.5463 72.1928 41.331C72.4648 41.1043 72.6008 40.7813 72.6008 40.362C72.6008 39.9427 72.4591 39.614 72.1758 39.376C71.9038 39.138 71.5241 39.019 71.0368 39.019H68.9288V41.654H71.0708ZM87.0199 41.756H90.8279V44H84.1129V32.066H87.0199V41.756ZM102.006 32.066V44H99.0994V32.066H102.006ZM119.583 32.066V34.395H116.421V44H113.514V34.395H110.352V32.066H119.583ZM131.021 41.62H136.155V44H127.723V41.79L132.823 34.446H127.723V32.066H136.155V34.276L131.021 41.62Z" fill="#091156"/>
<path d="M58.2918 49.639V51.27H60.0698V51.795H58.2918V53.475H60.2798V54H57.6548V49.114H60.2798V49.639H58.2918ZM67.9147 54H67.2777L64.7157 50.115V54H64.0787V49.114H64.7157L67.2777 52.992V49.114H67.9147V54ZM74.8385 49.121V49.639H73.5085V54H72.8715V49.639H71.5345V49.121H74.8385ZM79.0946 49.639V51.27H80.8726V51.795H79.0946V53.475H81.0826V54H78.4576V49.114H81.0826V49.639H79.0946ZM87.4505 54L86.2885 52.005H85.5185V54H84.8815V49.121H86.4565C86.8252 49.121 87.1355 49.184 87.3875 49.31C87.6442 49.436 87.8355 49.6063 87.9615 49.821C88.0875 50.0357 88.1505 50.2807 88.1505 50.556C88.1505 50.892 88.0525 51.1883 87.8565 51.445C87.6652 51.7017 87.3758 51.872 86.9885 51.956L88.2135 54H87.4505ZM85.5185 51.494H86.4565C86.8018 51.494 87.0608 51.41 87.2335 51.242C87.4062 51.0693 87.4925 50.8407 87.4925 50.556C87.4925 50.2667 87.4062 50.0427 87.2335 49.884C87.0655 49.7253 86.8065 49.646 86.4565 49.646H85.5185V51.494ZM94.9783 49.121V49.639H93.6483V54H93.0113V49.639H91.6743V49.121H94.9783ZM101.481 52.915H99.3534L98.9614 54H98.2894L100.053 49.149H100.788L102.545 54H101.873L101.481 52.915ZM101.299 52.397L100.417 49.933L99.5354 52.397H101.299ZM106.786 49.121V54H106.149V49.121H106.786ZM115.656 49.156V54H115.019V50.388L113.409 54H112.961L111.344 50.381V54H110.707V49.156H111.393L113.185 53.16L114.977 49.156H115.656ZM120.208 49.639V51.27H121.986V51.795H120.208V53.475H122.196V54H119.571V49.114H122.196V49.639H120.208ZM129.831 54H129.194L126.632 50.115V54H125.995V49.114H126.632L129.194 52.992V49.114H129.831V54ZM136.755 49.121V49.639H135.425V54H134.788V49.639H133.451V49.121H136.755Z" fill="#091156"/>
</svg>
