<svg width="693" height="390" viewBox="0 0 693 390" fill="none" xmlns="http://www.w3.org/2000/svg">
<path d="M9.22448 97.0063C-10.4703 53.6708 5.8977 14.2789 16.5435 -5.90989e-05L692.556 0L692.556 262.914C679.323 296.534 644.206 373.293 563.253 385.986C472.118 400.274 410.884 369.893 380.277 340.656C349.67 311.418 306.798 268.085 230.57 241.836C128.547 206.705 33.8431 151.176 9.22448 97.0063Z" fill="url(#paint0_linear_171_53)"/>
<path d="M38.0793 92.8806C19.2161 51.3881 34.893 13.6716 45.0893 -5.66034e-05L692.556 0L692.556 251.733C679.882 283.923 646.248 357.417 568.713 369.57C481.427 383.251 422.778 354.162 393.464 326.167C364.149 298.173 323.087 256.683 250.078 231.551C152.363 197.914 61.6583 144.746 38.0793 92.8806Z" fill="url(#paint1_linear_171_53)"/>
<defs>
<linearGradient id="paint0_linear_171_53" x1="375.424" y1="80.7659" x2="220.278" y2="460.629" gradientUnits="userSpaceOnUse">
<stop stop-color="#EBEDFF"/>
<stop offset="1" stop-color="white" stop-opacity="0"/>
</linearGradient>
<linearGradient id="paint1_linear_171_53" x1="388.815" y1="77.3309" x2="240.302" y2="441.071" gradientUnits="userSpaceOnUse">
<stop stop-color="#E4E7FF"/>
<stop offset="1" stop-color="white" stop-opacity="0"/>
</linearGradient>
</defs>
</svg>
