<svg width="490" height="304" viewBox="0 0 490 304" fill="none" xmlns="http://www.w3.org/2000/svg">
<path d="M478.69 60.9593C466.335 36.8283 439.206 18.6812 412.8 24.2491C396.99 27.5839 381.276 38.7663 366.117 33.1518C355.189 29.1059 349.023 17.6284 339.837 10.4281C325.7 -0.654545 305.633 -0.525058 288.406 4.43997C271.177 9.40499 255.407 18.5369 238.387 24.1833C209.381 33.8034 177.004 32.7591 148.668 21.2879C136.229 16.2529 124.585 9.3031 111.923 4.86875C99.2591 0.434408 84.8973 -1.28711 72.6744 4.25741C60.4514 9.80194 51.6799 24.3043 55.9229 37.1021C56.7685 39.6536 58.0963 42.1691 57.9212 44.8522C57.6422 49.157 53.5116 52.3092 49.3313 53.2666C45.1511 54.2239 40.7956 53.5999 36.5093 53.7081C17.2774 54.1985 0.0912629 71.8509 0.000433977 91.208C-0.0752568 107.26 9.76454 121.365 18.1749 135.004C26.5874 148.642 34.1456 165.008 29.1349 180.247C26.1635 189.284 19.1934 196.352 14.6261 204.688C2.78802 226.3 9.11576 254.909 25.6466 273.137C42.1775 291.365 66.9348 300.285 91.37 302.409C115.805 304.532 140.309 300.546 164.52 296.606C188.73 292.666 213.254 288.748 237.678 291.004L236.365 290.287C284.079 302.146 333.989 304.995 382.73 298.637C392.933 297.306 404.648 294.445 408.96 285.046C412.602 277.111 409.332 267.807 410.08 259.1C411.159 246.55 420.519 236.272 430.724 228.976C440.929 221.68 452.506 216.251 461.699 207.702C479.685 190.98 485.788 165.093 488.47 140.601C491.426 113.62 491.045 85.0903 478.69 60.9593Z" fill="url(#paint0_linear_457_4)"/>
<path d="M129.412 296.069C145.813 287.68 151.427 258.877 142.104 249.516C135.805 243.19 126.772 249.843 118.056 243.288C106.93 234.916 115.115 219.15 106.365 198.702C98.9197 181.3 81.0632 164.834 70.6287 168.214C59.7054 171.75 53.9508 197.991 63.2802 213.784C69.3462 224.054 78.6324 224.559 80.6479 234.111C82.9857 245.194 71.6927 250.248 71.6299 260.993C71.5218 280.291 107.715 307.166 129.412 296.069Z" fill="#BDD0FB"/>
<path d="M120.563 303.445C120.66 303.445 120.76 303.424 120.855 303.379C121.188 303.22 121.326 302.83 121.164 302.503C99.4214 258.524 93.0461 207.507 92.9834 206.996C92.9402 206.637 92.6071 206.378 92.2416 206.422C91.8762 206.465 91.6145 206.792 91.6578 207.151C91.7205 207.662 98.1239 258.9 119.964 303.074C120.076 303.309 120.314 303.445 120.563 303.445Z" fill="#91B3FA"/>
<path d="M75.9532 220.209C76.0224 220.209 76.0916 220.188 76.15 220.144C76.2884 220.038 76.3144 219.84 76.2063 219.704C69.3422 211.056 61.7364 198.065 64.4742 185.282C66.1048 177.668 70.696 173.697 70.7414 173.659C70.8755 173.546 70.8884 173.349 70.7738 173.217C70.6592 173.085 70.4559 173.073 70.324 173.185C70.1294 173.351 65.5252 177.335 63.8492 185.153C62.3095 192.338 63.1161 204.234 75.7024 220.088C75.7651 220.167 75.8581 220.209 75.9532 220.209Z" fill="#F0F0F0"/>
<path d="M130.891 292.229C130.993 292.229 131.093 292.18 131.155 292.093C141.702 276.984 145.299 265.309 141.845 257.393C138.774 250.356 131.021 249.047 130.943 249.034C130.768 249.006 130.606 249.123 130.578 249.293C130.55 249.463 130.669 249.624 130.842 249.652C130.915 249.664 138.335 250.925 141.263 257.648C144.62 265.353 141.043 276.822 130.63 291.739C130.53 291.881 130.567 292.076 130.712 292.174C130.766 292.21 130.829 292.229 130.891 292.229Z" fill="#F0F0F0"/>
<path d="M59.3074 162.714H40.7524C38.4514 162.714 36.3234 163.919 35.1729 165.877L25.8953 181.648C24.7448 183.606 24.7448 186.017 25.8953 187.972L35.1729 203.744C36.3234 205.701 38.4514 206.907 40.7524 206.907H59.3074C61.6084 206.907 63.7364 205.701 64.8869 203.744L74.1644 187.972C75.3149 186.015 75.3149 183.603 74.1644 181.648L64.8869 165.877C63.7364 163.917 61.6106 162.714 59.3074 162.714Z" fill="#7D97F4"/>
<path d="M40.7524 203.879C39.5565 203.879 38.4406 203.246 37.8437 202.23L28.5662 186.456C27.9672 185.439 27.9672 184.176 28.5662 183.159L37.8437 167.387C38.4428 166.371 39.5565 165.738 40.7524 165.738H59.3075C60.5034 165.738 61.6193 166.371 62.2162 167.387L71.4937 183.161C72.0927 184.178 72.0927 185.441 71.4937 186.458L62.2162 202.23C61.6171 203.246 60.5034 203.879 59.3075 203.879H40.7524Z" fill="#91B3FA"/>
<path d="M100.513 187.57H81.9584C79.6574 187.57 77.5294 188.776 76.3789 190.733L67.1014 206.505C65.9509 208.462 65.9509 210.874 67.1014 212.829L76.3789 228.6C77.5294 230.557 79.6574 231.763 81.9584 231.763H100.513C102.814 231.763 104.942 230.557 106.093 228.6L115.37 212.829C116.521 210.871 116.521 208.46 115.37 206.505L106.093 190.733C104.942 188.774 102.814 187.57 100.513 187.57Z" fill="#7D97F4"/>
<path d="M81.9585 228.736C80.7626 228.736 79.6467 228.103 79.0498 227.086L69.7723 211.313C69.1732 210.296 69.1732 209.033 69.7723 208.016L79.0498 192.244C79.6488 191.228 80.7626 190.595 81.9585 190.595H100.514C101.709 190.595 102.825 191.228 103.422 192.244L112.7 208.018C113.299 209.035 113.299 210.298 112.7 211.315L103.422 227.086C102.823 228.103 101.709 228.736 100.514 228.736H81.9585Z" fill="#91B3FA"/>
<path d="M103.948 138.698H85.3926C83.0916 138.698 80.9636 139.903 79.8131 141.86L70.5356 157.632C69.3851 159.589 69.3851 162.001 70.5356 163.956L79.8131 179.727C80.9636 181.685 83.0916 182.89 85.3926 182.89H103.948C106.249 182.89 108.377 181.685 109.527 179.727L118.805 163.956C119.955 161.999 119.955 159.587 118.805 157.632L109.527 141.86C108.377 139.903 106.249 138.698 103.948 138.698Z" fill="#7D97F4"/>
<path d="M85.3924 179.865C84.1965 179.865 83.0806 179.232 82.4838 178.216L73.2062 162.442C72.6072 161.425 72.6072 160.162 73.2062 159.145L82.4838 143.373C83.0828 142.356 84.1965 141.724 85.3924 141.724H103.947C105.143 141.724 106.259 142.356 106.856 143.373L116.134 159.147C116.733 160.164 116.733 161.427 116.134 162.444L106.856 178.216C106.257 179.232 105.143 179.865 103.947 179.865H85.3924Z" fill="#91B3FA"/>
<path d="M472.287 143.348C467.828 166.7 435.614 301.408 287.193 291.507C287.193 291.507 282.576 196.936 469.257 141.003C470.89 140.512 472.577 141.822 472.287 143.348Z" fill="#91B3FA"/>
<path d="M455.627 166.273C453.336 169.786 450.897 173.178 448.404 176.541C447.162 178.226 445.88 179.878 444.608 181.54C443.306 183.179 442.033 184.839 440.7 186.454C435.428 192.958 429.913 199.275 424.167 205.382C412.665 217.582 400.294 229.027 386.94 239.278C383.636 241.885 380.191 244.311 376.785 246.784C373.29 249.138 369.843 251.562 366.242 253.763C362.709 256.069 359.024 258.132 355.386 260.269C353.535 261.284 351.664 262.269 349.804 263.269C348.87 263.759 347.951 264.283 347.002 264.748L344.151 266.137L341.301 267.525C340.35 267.988 339.407 268.461 338.429 268.869L332.614 271.412C332.127 271.62 331.647 271.842 331.156 272.04L329.675 272.613L326.712 273.759C324.736 274.519 322.774 275.319 320.752 275.956L314.725 277.979C312.701 278.605 310.648 279.151 308.613 279.741L305.553 280.609C304.524 280.868 303.488 281.093 302.454 281.337L296.252 282.772C295.791 282.878 295.329 282.598 295.221 282.146C295.112 281.694 295.398 281.24 295.858 281.134H295.863L295.906 281.123L302.059 279.73C303.084 279.495 304.113 279.276 305.132 279.026L308.168 278.179C310.19 277.604 312.225 277.073 314.236 276.462L320.222 274.483C322.231 273.861 324.182 273.076 326.146 272.333L329.091 271.21L330.564 270.649C331.053 270.454 331.53 270.238 332.013 270.032L337.8 267.535C338.773 267.136 339.712 266.667 340.659 266.213L343.498 264.848L346.338 263.483C347.283 263.027 348.198 262.511 349.13 262.027C350.983 261.042 352.845 260.072 354.692 259.072C358.319 256.962 361.995 254.929 365.52 252.653C369.112 250.482 372.555 248.085 376.045 245.761C379.449 243.313 382.89 240.917 386.192 238.335C399.542 228.191 411.927 216.843 423.456 204.735C429.215 198.672 434.747 192.4 440.039 185.936C441.375 184.331 442.653 182.682 443.962 181.054C445.238 179.402 446.526 177.761 447.772 176.087C450.272 172.75 452.731 169.368 455.015 165.898L455.019 165.891C455.127 165.726 455.352 165.679 455.521 165.785C455.685 165.887 455.735 166.108 455.627 166.273Z" fill="#BDD0FB"/>
<path d="M405.056 32.0776C416.098 59.8915 472.579 223.977 300.958 296.689C300.958 296.689 231.06 196.8 400.084 31.237C401.564 29.7872 404.334 30.2606 405.056 32.0776Z" fill="#BDD0FB"/>
<path d="M397.734 75.5527C396.328 84.8651 394.587 94.1095 392.688 103.326C390.783 112.541 388.688 121.72 386.395 130.849C381.806 149.109 376.478 167.199 370.154 184.964C363.816 202.716 356.506 220.173 347.633 236.885C343.187 245.232 338.36 253.396 332.977 261.211C327.627 269.044 321.68 276.503 315.099 283.404C314.774 283.744 314.232 283.761 313.886 283.445C313.54 283.126 313.522 282.594 313.845 282.254L313.847 282.252L313.851 282.248C320.384 275.453 326.312 268.089 331.656 260.337C337.032 252.602 341.867 244.504 346.329 236.219C355.232 219.625 362.598 202.253 368.997 184.569C375.383 166.874 380.783 148.835 385.446 130.622C387.775 121.514 389.909 112.358 391.851 103.161C393.787 93.9651 395.569 84.7292 397.009 75.4551V75.4487C397.04 75.2534 397.226 75.1197 397.424 75.1494C397.626 75.177 397.764 75.3574 397.734 75.5527Z" fill="#BDD0FB"/>
<path d="M351.128 210.92C359.276 203.368 363.532 191.96 362.284 181.028C361.037 170.096 354.309 159.899 344.659 154.306C339.365 151.236 332.888 149.132 329.96 143.824C327.596 139.54 328.25 134.331 328.89 129.5C332.01 105.925 333.109 81.2014 324.11 59.1295C310.739 26.3378 274.014 4.32957 238.195 7.5667C202.376 4.33169 165.648 26.3378 152.279 59.1295C143.281 81.2014 144.377 105.925 147.5 129.5C148.14 134.331 148.793 139.54 146.429 143.824C143.501 149.13 137.024 151.236 131.728 154.306C122.079 159.899 115.353 170.098 114.105 181.028C112.857 191.96 117.113 203.368 125.262 210.92C127.922 213.385 131.097 215.645 132.262 219.048C133.891 223.792 131.049 228.743 129.529 233.521C124.421 249.581 135.216 267.187 149.959 275.767C163.778 283.808 180.209 285.801 196.273 287.251C203.269 289.34 210.401 291.327 217.7 291.203C225.438 291.072 233.532 288.174 237.979 281.959C238.054 281.853 238.121 281.742 238.195 281.636C238.268 281.742 238.335 281.853 238.411 281.959C242.857 288.174 250.954 291.074 258.69 291.203C265.988 291.327 273.119 289.34 280.117 287.251C296.18 285.801 312.612 283.808 326.431 275.767C341.175 267.187 351.969 249.581 346.861 233.521C345.34 228.743 342.501 223.792 344.127 219.048C345.293 215.648 348.47 213.385 351.128 210.92Z" fill="url(#paint1_linear_457_4)"/>
<path d="M329.35 262.337C308.339 262.927 280.724 272.944 268.116 256.444C255.509 239.944 260.312 189.269 260.312 189.269C260.312 189.269 244.832 187.685 236.8 188.001C228.768 187.687 213.288 189.269 213.288 189.269C213.288 189.269 218.091 239.944 205.483 256.444C192.876 272.944 165.261 262.927 144.25 262.337C127.624 261.87 121.8 292.439 124.213 300.119C124.832 302.091 126.692 303.428 128.794 303.428H348.236C350.338 303.428 352.198 302.091 352.817 300.119C355.234 292.439 345.976 261.87 329.35 262.337Z" fill="url(#paint2_linear_457_4)"/>
<path d="M329.35 262.337C318.468 262.643 305.815 265.476 294.392 265.846C283.951 274.303 264.137 286.716 238.991 285.313C211.286 283.768 191.433 272.023 182.82 265.873C170.508 266.109 156.297 262.676 144.254 262.339C127.628 261.872 121.804 292.441 124.218 300.121C124.836 302.093 126.696 303.43 128.798 303.43H348.24C350.343 303.43 352.202 302.093 352.821 300.121C355.234 292.439 345.976 261.87 329.35 262.337Z" fill="url(#paint3_linear_457_4)"/>
<path d="M185.772 72.0906C184.528 74.1136 183.851 76.4252 183.799 78.7856C183.449 94.5807 182.368 159.563 188.008 172.336C195.006 188.186 212.994 205.486 235.634 208.662C258.275 211.837 285.969 181.317 289.206 166.655C290.915 158.914 290.724 96.1133 290.642 79.397C290.629 76.5504 289.701 73.7867 287.997 71.4835C281.626 62.8738 263.897 42.9373 237.579 45.0388C219.677 46.4652 200.825 47.6094 185.772 72.0906Z" fill="url(#paint4_linear_457_4)"/>
<path d="M287.11 126.509C287.11 126.509 287.11 97.9369 303.282 113.808C319.454 129.682 287.11 151.905 287.11 151.905V126.509Z" fill="url(#paint5_linear_457_4)"/>
<path d="M186.799 126.509C186.799 126.509 186.799 97.9369 170.627 113.808C154.455 129.682 186.799 151.905 186.799 151.905V126.509Z" fill="url(#paint6_linear_457_4)"/>
<path d="M180.339 101.541C180.378 102.524 194.188 92.1356 218.018 87.8053C247.083 82.5219 257.222 66.8626 263.77 66.8626C266.999 66.8626 271.843 68.8283 271.304 82.5877C270.766 96.3471 285.837 112.562 297.679 96.8374C309.522 81.1124 287.452 40.3266 236.856 41.3094C186.26 42.2923 178.724 61.2459 180.339 101.541Z" fill="url(#paint7_linear_457_4)"/>
<path d="M190.451 124.095C193.109 122.963 195.118 120.35 197.867 119.228C201.128 117.895 204.571 117.905 207.834 118.947C213.496 120.756 219.404 125.239 225.481 122.392C225.695 122.293 225.643 121.864 225.405 121.875C217.583 122.235 211.768 115.7 204.175 115.173C201.307 114.974 197.91 114.925 195.254 116.239C192.893 117.406 187.603 121.096 187.603 121.096C187.603 121.096 189.865 124.345 190.451 124.095Z" fill="url(#paint8_linear_457_4)"/>
<path d="M283.72 124.095C281.062 122.963 279.053 120.35 276.304 119.228C273.043 117.895 269.6 117.905 266.337 118.947C260.675 120.756 254.767 125.239 248.69 122.392C248.476 122.293 248.528 121.864 248.766 121.875C256.588 122.235 262.403 115.7 269.996 115.173C272.864 114.974 276.261 114.925 278.917 116.239C281.278 117.406 286.568 121.096 286.568 121.096C286.568 121.096 284.308 124.345 283.72 124.095Z" fill="url(#paint9_linear_457_4)"/>
<path d="M248.156 102.078C248.156 103.473 249.546 104.466 250.894 104.027C257.433 101.893 274.369 97.5844 287.165 105.005C287.165 105.005 280.013 88.8601 249.495 100.163C248.686 100.463 248.156 101.229 248.156 102.078Z" fill="url(#paint10_linear_457_4)"/>
<path d="M226.195 102.078C226.195 103.473 224.804 104.466 223.457 104.027C216.917 101.893 199.982 97.5844 187.186 105.005C187.186 105.005 194.337 88.8601 224.856 100.163C225.663 100.463 226.195 101.229 226.195 102.078Z" fill="url(#paint11_linear_457_4)"/>
<path d="M264.055 168.98C264.055 168.98 254.165 164.478 247.364 165.04C240.565 165.603 238.4 167.29 238.4 167.29C238.4 167.29 236.238 165.603 229.436 165.04C222.637 164.478 212.745 168.98 212.745 168.98C217.905 181.788 230.055 186.424 238.4 186.303C246.746 186.424 258.895 181.79 264.055 168.98Z" fill="url(#paint12_linear_457_4)"/>
<path d="M257.606 172.074C257.606 172.074 249.008 177.982 238.403 177.982C227.797 177.982 219.199 172.074 219.199 172.074C219.199 172.074 227.797 170.667 238.403 170.667C249.008 170.667 257.606 172.074 257.606 172.074Z" fill="white"/>
<path d="M162.318 182.754C161.652 182.754 160.979 182.688 160.3 182.546C160.069 182.497 159.92 182.274 159.97 182.047C160.019 181.82 160.244 181.676 160.478 181.722C164.859 182.635 170.927 179.833 173.092 173.722C174.69 169.211 174.05 163.571 171.291 157.84C169.703 154.541 167.597 151.436 165.56 148.434C164.504 146.878 163.412 145.269 162.402 143.645C157.491 135.761 154.762 127.956 154.288 120.442C153.73 111.599 156.47 103.176 161.806 97.334C167.898 90.6623 176.868 87.5716 184.837 85.4298C190.622 83.8739 196.582 82.6066 202.345 81.3797C209.517 79.8535 216.932 78.2763 224.056 76.1323C239.376 71.5239 250.48 65.0008 258.006 56.1958C258.158 56.0175 258.43 55.9942 258.612 56.1428C258.793 56.2914 258.817 56.5588 258.666 56.7371C251.03 65.6716 239.791 72.2796 224.309 76.9368C217.151 79.0914 209.718 80.6728 202.529 82.2012C196.777 83.426 190.83 84.6911 185.066 86.2407C177.218 88.3507 168.393 91.3862 162.448 97.8965C157.264 103.573 154.604 111.771 155.149 120.391C155.614 127.765 158.302 135.441 163.14 143.206C164.143 144.815 165.229 146.417 166.28 147.967C168.332 150.994 170.456 154.125 172.071 157.481C174.928 163.412 175.579 169.279 173.907 174C172.301 178.526 167.61 182.754 162.318 182.754Z" fill="#7D97F4"/>
<path d="M158.27 88.3783C158.261 88.3783 158.254 88.3783 158.246 88.3762C158.129 88.3634 158.043 88.2594 158.055 88.1427C158.575 83.6255 161.464 79.2697 165.988 76.1918C170.371 73.2072 175.644 71.7807 179.746 70.8701C187.346 69.1847 195.226 68.3738 202.847 67.5905C204.785 67.391 206.723 67.1914 208.658 66.9792C218.003 65.9496 227.912 64.5168 237.055 61.0334C244.049 58.3673 253.662 53.2473 259.739 43.9943C259.803 43.8967 259.935 43.8691 260.035 43.9307C260.134 43.9943 260.162 44.1238 260.1 44.2215C253.96 53.5699 244.265 58.7366 237.213 61.424C228.024 64.9265 218.083 66.3636 208.71 67.3952C206.774 67.6075 204.837 67.807 202.897 68.0065C195.289 68.7877 187.419 69.5965 179.846 71.2777C175.78 72.1798 170.562 73.5914 166.237 76.5335C161.816 79.5414 158.992 83.789 158.488 88.1851C158.471 88.2976 158.378 88.3783 158.27 88.3783Z" fill="#7D97F4"/>
<path d="M315.101 253.054C314.919 253.054 314.753 252.942 314.692 252.764C314.619 252.543 314.742 252.305 314.967 252.233C317.897 251.297 319.383 247.99 319.338 245.207C319.288 242.097 317.793 239.144 316.399 236.62L315.925 235.767C314.552 233.307 313.131 230.762 312.586 227.953C310.957 219.558 317.523 212.434 320.423 209.759C322.802 207.565 325.46 205.624 328.031 203.748C330.879 201.67 333.827 199.519 336.37 197.034C342.038 191.493 344.473 184.875 342.88 179.326C341.366 174.055 336.861 170.729 332.093 167.208C329.885 165.577 327.601 163.892 325.659 162.003C319.934 156.435 316.483 148.054 316.187 139.005C315.938 131.421 317.696 123.403 321.563 114.492C321.656 114.278 321.909 114.178 322.125 114.269C322.344 114.36 322.445 114.609 322.352 114.821C318.535 123.618 316.799 131.518 317.043 138.978C317.333 147.812 320.691 155.987 326.262 161.404C328.163 163.253 330.423 164.921 332.607 166.535C337.281 169.986 342.114 173.554 343.706 179.099C345.384 184.947 342.869 191.876 336.976 197.632C334.387 200.161 331.416 202.33 328.544 204.427C325.992 206.289 323.353 208.214 321.011 210.375C318.215 212.954 311.881 219.813 313.431 227.796C313.951 230.475 315.339 232.961 316.68 235.364L317.155 236.219C318.6 238.832 320.144 241.895 320.198 245.194C320.248 248.287 318.559 251.972 315.233 253.033C315.19 253.048 315.144 253.054 315.101 253.054Z" fill="#7D97F4"/>
<path d="M180.35 81.1908C178.81 81.1908 177.56 79.9639 177.56 78.4525V61.5217C177.56 56.8029 181.47 52.9629 186.277 52.9629H198.215C199.755 52.9629 201.005 54.1898 201.005 55.7012C201.005 57.2126 199.755 58.4395 198.215 58.4395H186.277C184.547 58.4395 183.14 59.8214 183.14 61.5196V78.4504C183.14 79.9639 181.89 81.1908 180.35 81.1908Z" fill="url(#paint13_linear_457_4)"/>
<path d="M296.077 81.1907C294.537 81.1907 293.287 79.9637 293.287 78.4524V61.5217C293.287 59.8235 291.879 58.4417 290.149 58.4417H278.212C276.672 58.4417 275.422 57.2147 275.422 55.7034C275.422 54.192 276.672 52.9651 278.212 52.9651H290.149C294.956 52.9651 298.866 56.8051 298.866 61.5238V78.4545C298.866 79.9637 297.619 81.1907 296.077 81.1907Z" fill="url(#paint14_linear_457_4)"/>
<path d="M198.215 215.164H186.277C181.47 215.164 177.56 211.326 177.56 206.607V189.676C177.56 188.165 178.81 186.938 180.35 186.938C181.892 186.938 183.14 188.165 183.14 189.676V206.607C183.14 208.305 184.547 209.687 186.277 209.687H198.215C199.755 209.687 201.005 210.914 201.005 212.425C201.005 213.939 199.755 215.164 198.215 215.164Z" fill="url(#paint15_linear_457_4)"/>
<path d="M290.149 215.164H278.212C276.672 215.164 275.422 213.937 275.422 212.425C275.422 210.914 276.672 209.687 278.212 209.687H290.149C291.879 209.687 293.287 208.305 293.287 206.607V189.676C293.287 188.165 294.537 186.938 296.077 186.938C297.616 186.938 298.866 188.165 298.866 189.676V206.607C298.866 211.326 294.956 215.164 290.149 215.164Z" fill="url(#paint16_linear_457_4)"/>
<path d="M287.277 206.667H188.985C187.369 206.667 186.055 205.376 186.055 203.79V63.9163C186.055 62.3307 187.369 61.04 188.985 61.04H287.277C288.892 61.04 290.207 62.3307 290.207 63.9163V203.79C290.207 205.376 288.895 206.667 287.277 206.667ZM188.987 61.8828C187.845 61.8828 186.915 62.7955 186.915 63.9163V203.79C186.915 204.911 187.845 205.824 188.987 205.824H287.279C288.421 205.824 289.351 204.911 289.351 203.79V63.9163C289.351 62.7955 288.421 61.8828 287.279 61.8828H188.987Z" fill="url(#paint17_linear_457_4)"/>
<path d="M273.608 170.574C274.949 169.257 274.949 167.123 273.608 165.807C272.267 164.491 270.093 164.491 268.752 165.807C267.411 167.123 267.411 169.257 268.752 170.574C270.093 171.89 272.267 171.89 273.608 170.574Z" fill="#91B3FA"/>
<path d="M271.183 168.611C271.049 168.611 270.917 168.549 270.835 168.434C270.697 168.245 270.74 167.982 270.934 167.846L307.417 142.147C307.491 142.096 307.577 142.068 307.668 142.068H430.854C431.092 142.068 431.282 142.257 431.282 142.488C431.282 142.722 431.09 142.909 430.854 142.909H307.807L271.436 168.53C271.356 168.585 271.27 168.611 271.183 168.611Z" fill="#91B3FA"/>
<path d="M192.986 131.447C194.832 131.022 195.978 129.208 195.546 127.396C195.113 125.583 193.265 124.458 191.418 124.883C189.572 125.308 188.426 127.122 188.859 128.934C189.291 130.747 191.139 131.871 192.986 131.447Z" fill="#91B3FA"/>
<path d="M192.205 128.587C192.119 128.587 192.032 128.561 191.954 128.508L155.584 102.887H32.5367C32.2988 102.887 32.1085 102.698 32.1085 102.467C32.1085 102.233 32.301 102.047 32.5367 102.047H155.722C155.811 102.047 155.9 102.074 155.973 102.125L192.456 127.825C192.649 127.961 192.692 128.224 192.556 128.413C192.471 128.525 192.339 128.587 192.205 128.587Z" fill="#91B3FA"/>
<path d="M458.334 115.146H380.645C380.407 115.146 380.217 114.957 380.217 114.726V67.5376C380.217 67.3041 380.409 67.1173 380.645 67.1173H458.334C458.572 67.1173 458.762 67.3062 458.762 67.5376V114.723C458.762 114.957 458.569 115.146 458.334 115.146ZM381.073 114.303H457.903V67.96H381.073V114.303Z" fill="white"/>
<path d="M419.883 104.403C419.768 104.403 419.656 104.403 419.543 104.401C409.777 104.526 397.647 98.9431 392.491 86.1453C392.199 85.4193 392.535 84.5936 393.257 84.2646C393.676 84.0735 403.59 79.6073 410.705 80.1932C415.583 80.5965 418.267 81.5751 419.541 82.2055C420.817 81.5751 423.499 80.5965 428.377 80.1932C435.49 79.6073 445.408 84.0735 445.825 84.2646C446.547 84.5936 446.883 85.4172 446.591 86.1453C441.498 98.7945 429.578 104.403 419.883 104.403ZM419.543 101.452C419.55 101.452 419.558 101.452 419.565 101.452C425.847 101.535 437.661 98.4273 443.23 86.3788C440.375 85.224 433.535 82.7277 428.633 83.1353C422.545 83.6384 420.473 85.0754 420.454 85.0903C419.887 85.5318 419.156 85.5361 418.609 85.0712C418.607 85.0712 416.533 83.6384 410.454 83.1353C405.547 82.7277 398.709 85.224 395.856 86.3788C401.425 98.4273 413.226 101.543 419.522 101.452C419.528 101.452 419.534 101.452 419.543 101.452Z" fill="white"/>
<path d="M438.747 88.6989C438.747 88.6989 430.149 94.6066 419.543 94.6066C408.938 94.6066 400.339 88.6989 400.339 88.6989C400.339 88.6989 408.938 87.2915 419.543 87.2915C430.149 87.2915 438.747 88.6989 438.747 88.6989Z" fill="white"/>
<path d="M376.461 150.376C376.453 151.556 375.471 152.509 374.268 152.501C373.066 152.492 372.095 151.529 372.104 150.349C372.112 149.168 373.094 148.216 374.296 148.224C375.501 148.23 376.47 149.194 376.461 150.376Z" fill="url(#paint18_linear_457_4)"/>
<path d="M376.389 150.376C376.38 151.518 375.43 152.437 374.269 152.431C373.106 152.422 372.169 151.493 372.176 150.351C372.184 149.209 373.134 148.29 374.295 148.297C375.461 148.303 376.397 149.235 376.389 150.376Z" fill="url(#paint19_linear_457_4)"/>
<path d="M376.462 163.342C376.454 164.522 375.472 165.475 374.269 165.466C373.067 165.458 372.096 164.494 372.105 163.314C372.113 162.134 373.095 161.181 374.298 161.19C375.502 161.196 376.471 162.159 376.462 163.342Z" fill="url(#paint20_linear_457_4)"/>
<path d="M376.389 163.342C376.38 164.484 375.431 165.403 374.269 165.396C373.106 165.388 372.169 164.458 372.176 163.316C372.184 162.174 373.134 161.256 374.295 161.262C375.461 161.268 376.397 162.2 376.389 163.342Z" fill="url(#paint21_linear_457_4)"/>
<path d="M374.283 178.432C375.486 178.432 376.462 177.474 376.462 176.292C376.462 175.111 375.486 174.153 374.283 174.153C373.079 174.153 372.103 175.111 372.103 176.292C372.103 177.474 373.079 178.432 374.283 178.432Z" fill="url(#paint22_linear_457_4)"/>
<path d="M376.389 176.306C376.38 177.447 375.431 178.366 374.269 178.36C373.106 178.352 372.169 177.422 372.176 176.28C372.184 175.138 373.134 174.219 374.295 174.226C375.461 174.234 376.397 175.166 376.389 176.306Z" fill="url(#paint23_linear_457_4)"/>
<path d="M379.814 150.265L379.825 150.63C379.853 151.617 380.48 152.398 381.246 152.402L439.606 152.489C440.397 152.493 441.042 151.668 441.039 150.649C441.037 149.649 440.416 148.837 439.64 148.815L381.269 148.365C380.45 148.342 379.786 149.212 379.814 150.265Z" fill="url(#paint24_linear_457_4)"/>
<path d="M379.814 163.168L379.825 163.533C379.853 164.52 380.48 165.301 381.246 165.305L439.606 165.392C440.397 165.396 441.042 164.571 441.039 163.552C441.037 162.552 440.416 161.739 439.64 161.718L381.269 161.266C380.45 161.243 379.786 162.113 379.814 163.168Z" fill="url(#paint25_linear_457_4)"/>
<path d="M379.814 176.069L379.825 176.434C379.853 177.421 380.48 178.202 381.246 178.207L439.606 178.294C440.397 178.298 441.042 177.472 441.039 176.453C441.037 175.454 440.416 174.641 439.64 174.62L381.269 174.168C380.45 174.147 379.786 175.015 379.814 176.069Z" fill="url(#paint26_linear_457_4)"/>
<path d="M88.3879 112.475C88.3965 113.655 89.3784 114.608 90.5808 114.599C91.7832 114.591 92.7542 113.627 92.7456 112.447C92.7369 111.267 91.7551 110.315 90.5527 110.323C89.3481 110.329 88.3792 111.293 88.3879 112.475Z" fill="url(#paint27_linear_457_4)"/>
<path d="M88.4585 112.474C88.4672 113.616 89.4166 114.535 90.5779 114.529C91.7413 114.52 92.6777 113.591 92.6712 112.449C92.6626 111.307 91.7132 110.388 90.5519 110.395C89.3884 110.401 88.452 111.333 88.4585 112.474Z" fill="#91B3FA"/>
<path d="M88.3879 125.44C88.3965 126.62 89.3784 127.573 90.5808 127.565C91.7832 127.556 92.7542 126.593 92.7456 125.413C92.7369 124.233 91.7551 123.28 90.5527 123.289C89.3481 123.295 88.3792 124.258 88.3879 125.44Z" fill="url(#paint28_linear_457_4)"/>
<path d="M88.4585 125.439C88.4672 126.581 89.4166 127.5 90.5779 127.494C91.7413 127.485 92.6777 126.556 92.6712 125.414C92.6626 124.272 91.7132 123.353 90.5519 123.36C89.3884 123.368 88.452 124.3 88.4585 125.439Z" fill="#91B3FA"/>
<path d="M88.3879 138.406C88.3965 139.586 89.3784 140.539 90.5808 140.531C91.7832 140.522 92.7542 139.559 92.7456 138.379C92.7369 137.199 91.7551 136.246 90.5527 136.254C89.3481 136.261 88.3792 137.224 88.3879 138.406Z" fill="url(#paint29_linear_457_4)"/>
<path d="M88.4585 138.403C88.4672 139.545 89.4166 140.464 90.5779 140.458C91.7413 140.449 92.6777 139.52 92.6712 138.378C92.6626 137.236 91.7132 136.317 90.5519 136.324C89.3884 136.33 88.452 137.262 88.4585 138.403Z" fill="#91B3FA"/>
<path d="M85.0357 112.363L85.0249 112.728C84.9967 113.715 84.3696 114.496 83.604 114.5L25.2443 114.587C24.4528 114.592 23.8084 113.766 23.8106 112.747C23.8127 111.748 24.4334 110.935 25.2097 110.914L83.5802 110.464C84.3999 110.44 85.0638 111.311 85.0357 112.363Z" fill="#91B3FA"/>
<path d="M85.0357 125.264L85.0249 125.63C84.9967 126.616 84.3696 127.397 83.604 127.402L25.2443 127.489C24.4528 127.493 23.8084 126.667 23.8106 125.649C23.8127 124.649 24.4334 123.836 25.2097 123.815L83.5802 123.363C84.3999 123.342 85.0638 124.212 85.0357 125.264Z" fill="#91B3FA"/>
<path d="M85.0357 138.169L85.0249 138.534C84.9967 139.52 84.3696 140.301 83.604 140.306L25.2443 140.393C24.4528 140.397 23.8084 139.571 23.8106 138.553C23.8127 137.553 24.4334 136.74 25.2097 136.719L83.5802 136.267C84.3999 136.244 85.0638 137.114 85.0357 138.169Z" fill="#91B3FA"/>
<path d="M125.148 96.3427H47.4585C47.2206 96.3427 47.0303 96.1537 47.0303 95.9223V48.7345C47.0303 48.501 47.2227 48.3142 47.4585 48.3142H125.148C125.385 48.3142 125.576 48.5031 125.576 48.7345V95.9202C125.576 96.1537 125.383 96.3427 125.148 96.3427ZM47.8867 95.4999H124.717V49.1569H47.8867V95.4999Z" fill="white"/>
<path d="M84.4431 89.3209C68.76 89.3209 56.351 75.2877 55.832 74.6913C55.3519 74.1393 55.3519 73.3263 55.832 72.7744C56.3532 72.178 68.76 58.1448 84.4431 58.1448C100.126 58.1448 112.535 72.178 113.054 72.7744C113.534 73.3263 113.534 74.1393 113.054 74.6913C112.533 75.2877 100.126 89.3209 84.4431 89.3209ZM59.0153 73.7339C60.2523 74.9969 62.6961 77.3298 65.9573 79.6371C70.2997 82.7087 77.0319 86.3725 84.4431 86.3725C91.8543 86.3725 98.5864 82.7087 102.929 79.6371C106.19 77.3298 108.634 74.9969 109.871 73.7339C108.634 72.4709 106.19 70.1381 102.929 67.8307C98.5864 64.7591 91.8543 61.0953 84.4431 61.0953C77.0319 61.0953 70.2997 64.757 65.9573 67.8307C62.6982 70.1359 60.2523 72.4688 59.0153 73.7339Z" fill="white"/>
<path d="M84.4431 86.3719C77.3433 86.3719 71.567 80.7022 71.567 73.7333C71.567 66.7644 77.3433 61.0946 84.4431 61.0946C91.5429 61.0946 97.3192 66.7644 97.3192 73.7333C97.3192 80.7022 91.5429 86.3719 84.4431 86.3719ZM84.4431 64.0431C78.9998 64.0431 74.5709 68.3904 74.5709 73.7333C74.5709 79.0762 78.9998 83.4235 84.4431 83.4235C89.8863 83.4235 94.3153 79.0762 94.3153 73.7333C94.3153 68.3883 89.8863 64.0431 84.4431 64.0431Z" fill="white"/>
<path d="M84.4431 79.8411C87.8804 79.8411 90.667 77.1059 90.667 73.7319C90.667 70.358 87.8804 67.6228 84.4431 67.6228C81.0057 67.6228 78.2191 70.358 78.2191 73.7319C78.2191 77.1059 81.0057 79.8411 84.4431 79.8411Z" fill="white"/>
<path d="M78.4636 203.158C78.4636 203.158 74.6012 208.214 70.0467 209.596C67.8798 210.254 64.0239 211.984 63.4984 216.142C63.2281 218.291 61.6083 220.01 59.4284 220.337C54.0003 221.154 45.6376 223.92 44.2989 233.169C43.2782 240.229 46.9438 242.906 50.7932 243.833C53.6197 244.515 55.4968 247.213 54.9259 250.013C54.3766 252.7 55.1962 255.805 59.9366 258.259C70.5614 263.761 81.1733 245.222 81.1733 245.222L83.3467 212.848L78.4636 203.158Z" fill="url(#paint30_linear_457_4)"/>
<path d="M102.78 196.843C102.78 196.843 96.5149 213.61 85.8381 218.849C85.8381 218.849 89.3913 224.54 91.2468 224.886C91.2468 224.886 102.652 210.558 103.816 198.819L102.78 196.843Z" fill="url(#paint31_linear_457_4)"/>
<path d="M59.8414 297.697L59.5257 300.239C59.4651 300.721 59.078 301.103 58.5871 301.158C57.7567 301.252 56.4245 301.347 55.1205 301.211C54.5474 301.152 54.1776 300.583 54.3506 300.044C54.6685 299.064 55.2502 297.589 56.0893 296.723H58.9634C59.4932 296.723 59.9063 297.179 59.8414 297.697Z" fill="url(#paint32_linear_457_4)"/>
<path d="M82.35 267.911L82.8344 270.711C82.8344 270.711 81.2103 286.86 80.9206 293.32C80.8751 294.332 81.1433 295.334 81.6839 296.196L84.5083 300.698L77.3306 296.54L77.1879 295.68L78.3622 294.095L76.8224 276.003C76.7316 274.939 76.9543 273.874 77.4669 272.933L78.9526 270.195L82.35 267.911Z" fill="url(#paint33_linear_457_4)"/>
<path d="M84.9818 301.35H82.6917C82.2635 301.35 81.8591 301.157 81.5974 300.824C80.8837 299.913 79.4045 298.136 78.6974 298.09C77.7458 298.028 77.8669 301.35 77.8669 301.35H77.3328L76.6559 297.221C76.485 296.181 77.0127 295.154 77.9621 294.666C77.9621 294.666 78.1805 296.245 79.3613 296.945C80.5421 297.644 84.1644 300.149 84.1644 300.149C84.1644 300.149 84.6077 300.087 85.0943 300.172C85.8166 300.299 85.715 301.35 84.9818 301.35Z" fill="url(#paint34_linear_457_4)"/>
<path d="M72.5189 269.24C72.5189 269.24 63.0035 286.956 61.4918 291.002C59.9802 295.048 59.4504 298.421 59.4287 298.742C59.3963 299.24 58.7648 299.72 57.0196 299.72C56.12 299.72 55.6788 299.366 55.4625 299.024C55.2787 298.731 55.2679 298.366 55.4236 298.058C55.9751 296.965 57.7203 293.471 58.3669 291.885C59.1389 289.994 60.7998 281.418 61.7124 278.436C62.6229 275.453 63.6544 272.22 67.6206 269.24C67.6228 269.24 70.3455 266.623 72.5189 269.24Z" fill="url(#paint35_linear_457_4)"/>
<path d="M78.5285 240.21C80.9831 230.002 74.7656 224.226 74.7656 224.226C78.6886 220.53 85.8381 218.847 85.8381 218.847C85.8381 218.847 92.6589 223.742 91.8501 227.573C91.3765 229.819 87.0557 241.025 87.0557 241.025C87.0557 241.025 83.0592 242.882 78.5285 240.21Z" fill="#FF64AE"/>
<path d="M73.0877 245.266C74.0868 242.311 78.5288 240.212 78.5288 240.212C83.0594 242.882 87.0537 241.027 87.0537 241.027C87.0537 241.027 87.949 244.39 87.3305 247.512C86.712 250.637 82.8323 270.711 82.8323 270.711C76.7187 271.927 67.3179 269.488 67.3179 269.488C71.2127 262.702 72.0886 248.219 73.0877 245.266Z" fill="url(#paint36_linear_457_4)"/>
<path d="M81.3791 212.103L79.383 220.901C79.1927 221.676 79.9107 221.549 80.7108 221.402C82.017 221.16 83.7038 220.661 84.2661 219.664C84.3245 219.562 84.3526 219.447 84.3678 219.333L85.2242 213.232C85.2912 212.748 85.0252 212.279 84.5711 212.079L82.9167 211.36C82.2787 211.08 81.5413 211.438 81.3791 212.103Z" fill="url(#paint37_linear_457_4)"/>
<path d="M74.7657 224.228C74.7657 224.228 60.8364 234.009 72.9837 244.287C72.9837 244.287 73.4465 244.801 74.3591 245.069C74.8198 245.204 76.18 246.215 76.8699 246.741C77.0926 246.911 77.4127 246.854 77.5619 246.62C77.6787 246.438 77.6917 246.208 77.5987 246.013L75.8751 242.434C75.3972 241.995 74.664 241.965 74.1472 242.36C73.8185 242.613 73.3362 242.506 73.1524 242.139C72.2138 240.263 70.4405 234.742 77.6982 228.503C77.9707 228.269 78.0399 227.881 77.8733 227.565C77.3608 226.601 76.193 224.693 74.7657 224.228Z" fill="url(#paint38_linear_457_4)"/>
<path d="M83.7189 203.724C83.7189 203.724 86.0826 204.702 87.6894 208.056C89.2962 211.408 88.0959 212.956 86.5886 213.17C85.0813 213.382 82.8279 213.35 80.4425 211.185C78.0593 209.018 80.648 202.563 83.7189 203.724Z" fill="url(#paint39_linear_457_4)"/>
<path d="M82.0471 209.394C82.0471 209.394 80.2629 204.491 84.6941 204.431L85.7365 205.147C85.7365 205.147 87.3628 202.428 84.6941 201.128C82.0254 199.831 78.9048 200.903 77.7694 204.431C76.6341 207.959 76.4394 210.322 78.3296 212.009C80.2175 213.697 80.996 211.784 80.996 211.784C80.996 211.784 79.9666 210.205 80.3862 209.36C80.8057 208.516 81.7703 209.534 81.7703 209.534L82.0471 209.394Z" fill="url(#paint40_linear_457_4)"/>
<path d="M81.5495 209.939C81.5495 209.939 80.6477 207.414 79.4453 208.42C78.2429 209.426 80.4228 210.752 81.2771 211.183L81.5495 209.939Z" fill="url(#paint41_linear_457_4)"/>
<path d="M103.381 199.893C103.476 200.193 102.369 200.647 101.718 199.426C101.694 198.842 101.333 196.336 101.69 195.86C103.587 193.323 107.261 190.143 107.261 190.143C107.881 190.744 107.371 191.336 107.371 191.336L105.587 193.16C105.959 193.822 106.415 194.38 106.627 195.181C106.789 195.786 106.69 196.435 106.378 196.985C106.065 197.539 105.639 198.259 105.234 198.821C104.471 199.887 103.381 199.893 103.381 199.893Z" fill="url(#paint42_linear_457_4)"/>
<path d="M104.333 198.654L103.911 198.579C103.961 198.301 104.417 195.852 104.789 195.258C104.923 195.044 104.977 194.868 104.945 194.751C104.929 194.698 104.891 194.647 104.83 194.6L103.366 195.818L102.875 197.113L102.473 196.966L103.003 195.568L104.78 194.089L104.908 194.152C105.152 194.275 105.301 194.435 105.358 194.636C105.427 194.876 105.36 195.15 105.154 195.477C104.873 195.924 104.465 197.921 104.333 198.654Z" fill="url(#paint43_linear_457_4)"/>
<path opacity="0.71" d="M52.0734 239.235C50.1876 239.235 48.2521 237.928 47.5363 236.02C46.7837 234.011 47.2725 231.551 48.8122 229.598C50.0492 228.03 51.948 226.747 54.4544 225.788C55.8407 225.257 57.2982 224.854 58.7083 224.466C59.4803 224.253 60.2783 224.033 61.0547 223.795C62.8907 223.23 64.9171 222.43 66.0351 220.77C66.7207 219.749 66.9823 218.511 67.2332 217.314C67.2894 217.045 67.3478 216.775 67.4084 216.51C67.6917 215.276 68.2323 213.536 69.651 212.657C70.2933 212.258 71.048 212.084 71.7768 211.916C72.0125 211.861 72.2569 211.806 72.4926 211.742C73.708 211.417 74.4952 210.882 74.8347 210.156C74.8477 210.129 74.8801 210.118 74.9061 210.131C74.9342 210.144 74.945 210.173 74.932 210.201C74.5795 210.957 73.7685 211.511 72.5207 211.844C72.2828 211.908 72.0385 211.965 71.8027 212.018C71.0826 212.186 70.3365 212.358 69.7094 212.746C68.3253 213.604 67.7933 215.319 67.5143 216.533C67.4538 216.798 67.3975 217.068 67.3392 217.337C67.0861 218.545 66.8223 219.791 66.1238 220.829C64.9884 222.519 62.9404 223.328 61.0871 223.897C60.3086 224.137 59.5106 224.357 58.7364 224.57C57.3285 224.958 55.8753 225.359 54.4934 225.888C52.0042 226.841 50.1228 228.112 48.8966 229.666C47.3784 231.592 46.8962 234.014 47.6358 235.988C48.4597 238.185 50.9337 239.569 53.0358 239.01C53.0639 239.002 53.0942 239.019 53.1006 239.047C53.1093 239.074 53.092 239.104 53.0639 239.11C52.7417 239.195 52.4086 239.235 52.0734 239.235Z" fill="white"/>
<path opacity="0.71" d="M51.6257 237.421C51.6235 237.421 51.6192 237.421 51.617 237.421C50.7044 237.276 49.8978 236.489 49.6556 235.51C49.4436 234.655 49.6188 233.68 50.1486 232.768C51.2234 230.91 53.4488 229.683 56.7575 229.123C57.3587 229.021 57.9772 228.936 58.5763 228.853C60.5269 228.586 62.5425 228.308 64.292 227.399C66.1691 226.423 67.6397 224.731 68.3274 222.759C68.6691 221.781 68.8226 220.734 68.9718 219.721C69.0605 219.127 69.1492 218.512 69.2768 217.913C69.7093 215.892 70.5592 214.491 71.8027 213.746C71.8286 213.731 71.8611 213.74 71.8762 213.763C71.8913 213.789 71.8827 213.82 71.8589 213.835C70.6414 214.563 69.8088 215.943 69.3806 217.934C69.253 218.529 69.1621 219.142 69.0756 219.734C68.9264 220.751 68.7707 221.802 68.4247 222.791C67.7283 224.788 66.2383 226.499 64.3374 227.488C62.5727 228.408 60.5464 228.686 58.5871 228.955C57.9902 229.038 57.3717 229.123 56.7705 229.225C53.4942 229.781 51.2948 230.989 50.2351 232.819C49.7204 233.708 49.5496 234.655 49.7529 235.485C49.9843 236.425 50.7542 237.179 51.6257 237.317C51.656 237.321 51.6754 237.348 51.6711 237.376C51.6733 237.402 51.6516 237.421 51.6257 237.421Z" fill="white"/>
<path d="M374.196 220.432C374.196 220.432 363.411 232.228 370.333 232.228C370.762 232.228 376.343 232.228 376.343 232.228L374.196 220.432Z" fill="#FF64AE"/>
<path d="M379.187 295.328C379.187 295.328 379.553 297.361 379.732 299.376C379.801 300.163 379.185 300.847 378.381 300.879C375.649 300.991 369.806 301.208 367.708 301.117C367.393 301.102 367.187 300.785 367.304 300.499C367.401 300.257 367.589 300.064 367.829 299.955L377.481 295.602L379.187 295.328Z" fill="url(#paint44_linear_457_4)"/>
<path d="M379.488 294.133L379.194 296.565C379.194 296.565 377.503 297.337 376.348 296.467L377.048 293.757L379.488 294.133Z" fill="url(#paint45_linear_457_4)"/>
<path d="M379.267 248.395C379.395 249.03 379.948 280.1 376.566 294.023C376.51 294.25 376.629 294.483 376.85 294.573C377.369 294.781 378.385 295.082 379.605 295.122C379.983 295.135 380.32 294.893 380.426 294.539C381.393 291.308 386.027 275.122 386.633 259.66C387.308 242.383 386.633 259.072 386.633 259.072L386.237 248.393L379.267 248.395Z" fill="url(#paint46_linear_457_4)"/>
<path d="M390.29 296.389C390.29 296.389 390.872 297.417 391.436 300.144C391.538 300.636 391.188 301.107 390.677 301.156C389.776 301.243 388.387 301.356 387.273 301.347C386.761 301.343 386.361 300.906 386.421 300.407C386.545 299.412 386.927 297.777 388.115 296.504L390.29 296.389Z" fill="url(#paint47_linear_457_4)"/>
<path d="M390.803 293.26L390.115 296.938C390.115 296.938 389.436 297.435 388.091 297.074L388.42 293.116L390.803 293.26Z" fill="url(#paint48_linear_457_4)"/>
<path d="M392.658 249.348C395.426 265.74 392.057 289.864 390.921 294.585C390.852 294.874 390.614 295.094 390.316 295.143C389.81 295.226 388.975 295.294 388.151 295.058C387.868 294.978 387.669 294.727 387.656 294.436C387.505 290.62 387.777 267.185 385.199 257.924C385.069 257.455 384.777 257.045 384.373 256.763L379.369 253.271L378.986 247.626L392.658 249.348Z" fill="url(#paint49_linear_457_4)"/>
<path d="M374.196 220.432C382.351 217.904 392.47 220.426 392.47 220.426C394.942 234.585 392.902 250.915 392.902 250.915C386.482 252.568 379.239 249.904 379.239 249.904C378.171 243.984 371.757 221.188 374.196 220.432Z" fill="#FF64AE"/>
<path d="M389.289 228.305L392.47 220.424C392.47 220.424 400.217 225.59 401.49 232.139C400.026 232.245 397.364 232.619 394.756 233.911C394.183 230.819 389.289 228.305 389.289 228.305Z" fill="#FF64AE"/>
<path d="M382.518 235.722C382.518 235.722 391.216 240.547 394.148 236.427C394.758 235.572 394.903 234.723 394.754 233.912C397.36 232.619 400.024 232.245 401.488 232.139C401.873 234.113 401.67 236.215 400.487 238.338C395.346 247.567 381.367 237.828 381.367 237.828L382.518 235.722Z" fill="url(#paint50_linear_457_4)"/>
<path d="M383.564 241.825L378.818 225.554C378.763 225.37 378.603 225.236 378.409 225.213C377.548 225.115 375.057 224.837 372.181 224.599C368.714 224.31 364.692 224.079 362.285 224.276C361.943 224.304 361.735 224.659 361.889 224.962C363.256 227.677 368.883 238.726 371.698 242.345C371.791 242.464 371.936 242.534 372.09 242.534L383.102 242.434C383.422 242.43 383.651 242.129 383.564 241.825Z" fill="url(#paint51_linear_457_4)"/>
<path d="M371.688 223.19L368.247 222.627C368.063 222.597 367.914 222.769 367.972 222.941L368.314 223.954C368.344 224.043 368.422 224.106 368.515 224.117L371.826 224.552C371.997 224.576 372.14 224.423 372.098 224.257L371.887 223.372C371.865 223.279 371.785 223.207 371.688 223.19Z" fill="#7D97F4"/>
<path d="M374.263 226.048L373.98 224.598C373.952 224.452 373.829 224.343 373.679 224.329L366.729 223.637C366.495 223.613 366.307 223.824 366.363 224.049L366.804 225.855C366.839 225.999 366.969 226.103 367.12 226.111L373.913 226.447C374.134 226.457 374.307 226.262 374.263 226.048Z" fill="#7D97F4"/>
<path d="M382.416 237.895C382.416 237.895 383.078 235.227 382.81 234.281C382.544 233.334 382.027 232.118 380.303 232.387C378.582 232.657 376.549 233.37 376.549 233.37C376.549 233.37 376.65 234.603 377.961 234.206L377.15 234.822C377.15 234.822 377.267 235.809 378.372 235.283L377.617 236.1C377.617 236.1 378.093 236.911 378.906 236.391C379.719 235.868 380.108 238.216 382.416 237.895Z" fill="url(#paint52_linear_457_4)"/>
<path d="M366.413 234.656C366.413 234.656 363.777 233.732 363.117 232.994C362.458 232.255 361.705 231.164 362.881 229.899C364.058 228.634 365.779 227.358 365.779 227.358C365.779 227.358 366.774 228.12 365.717 228.975L366.688 228.648C366.688 228.648 367.464 229.285 366.409 229.903L367.52 229.733C367.52 229.733 367.951 230.567 367.06 230.949C366.169 231.329 367.953 232.938 366.413 234.656Z" fill="url(#paint53_linear_457_4)"/>
<path d="M383.854 213.268L386.492 220.759C386.536 220.882 386.484 221.02 386.367 221.084C385.647 221.474 383.056 222.602 379.933 220.659C379.609 220.458 379.386 220.127 379.336 219.751L378.482 213.268H383.854Z" fill="url(#paint54_linear_457_4)"/>
<path d="M378.112 206.332C378.112 206.332 375.214 211.686 375.586 213.849C375.958 216.012 379.548 215.857 382.684 214.099L384.875 208.319L378.112 206.332Z" fill="url(#paint55_linear_457_4)"/>
<path d="M382.546 211.262C382.418 211.207 382.371 211.054 382.449 210.939C382.68 210.591 383.117 209.88 383.255 209.26C383.255 209.26 383.776 208.933 381.93 208.498C380.083 208.065 377.33 207.39 376.75 205.849C376.186 204.344 377.669 200.561 380.035 203.576C380.126 203.69 380.301 203.692 380.392 203.578C380.779 203.083 381.8 202.054 383.214 202.678C384.54 203.262 384.689 204.215 384.67 204.694C384.665 204.837 384.793 204.945 384.933 204.919C385.604 204.794 387.211 204.686 387.961 206.305C388.579 207.639 388.177 208.392 387.812 208.761C387.693 208.88 387.745 209.078 387.907 209.127C388.348 209.258 388.915 209.625 388.858 210.638C388.781 212.037 387.187 211.914 386.733 211.85C386.659 211.839 386.583 211.865 386.534 211.92C386.144 212.342 384.391 214.138 382.494 214.355C382.33 214.374 382.202 214.215 382.256 214.06L383.078 211.716C383.117 211.608 383.063 211.487 382.957 211.442L382.546 211.262Z" fill="url(#paint56_linear_457_4)"/>
<path d="M382.217 211.593C382.217 211.593 384.28 210.203 384.431 211.375C384.582 212.544 382.574 213.068 381.579 212.633L382.217 211.593Z" fill="url(#paint57_linear_457_4)"/>
<defs>
<linearGradient id="paint0_linear_457_4" x1="174.759" y1="-42.0467" x2="318.161" y2="372.041" gradientUnits="userSpaceOnUse">
<stop stop-color="#DAE3FE"/>
<stop offset="1" stop-color="#E9EFFD"/>
</linearGradient>
<linearGradient id="paint1_linear_457_4" x1="286.252" y1="-20.6978" x2="206.787" y2="332.157" gradientUnits="userSpaceOnUse">
<stop stop-color="#09005D"/>
<stop offset="1" stop-color="#1A0F91"/>
</linearGradient>
<linearGradient id="paint2_linear_457_4" x1="239.07" y1="143.966" x2="238.445" y2="302.548" gradientUnits="userSpaceOnUse">
<stop stop-color="#FF928E"/>
<stop offset="1" stop-color="#FEB3B1"/>
</linearGradient>
<linearGradient id="paint3_linear_457_4" x1="237.342" y1="278.404" x2="243.133" y2="376.159" gradientUnits="userSpaceOnUse">
<stop stop-color="#4042E2"/>
<stop offset="1" stop-color="#4F52FF"/>
</linearGradient>
<linearGradient id="paint4_linear_457_4" x1="233.104" y1="14.2012" x2="240.606" y2="189.354" gradientUnits="userSpaceOnUse">
<stop stop-color="#FF928E"/>
<stop offset="1" stop-color="#FEB3B1"/>
</linearGradient>
<linearGradient id="paint5_linear_457_4" x1="291.856" y1="11.6849" x2="299.358" y2="186.838" gradientUnits="userSpaceOnUse">
<stop stop-color="#FF928E"/>
<stop offset="1" stop-color="#FEB3B1"/>
</linearGradient>
<linearGradient id="paint6_linear_457_4" x1="182.994" y1="-9.49923" x2="175.491" y2="165.654" gradientUnits="userSpaceOnUse">
<stop stop-color="#FF928E"/>
<stop offset="1" stop-color="#FEB3B1"/>
</linearGradient>
<linearGradient id="paint7_linear_457_4" x1="264.648" y1="-18.934" x2="198.77" y2="273.593" gradientUnits="userSpaceOnUse">
<stop stop-color="#09005D"/>
<stop offset="1" stop-color="#1A0F91"/>
</linearGradient>
<linearGradient id="paint8_linear_457_4" x1="206.611" y1="30.5555" x2="206.611" y2="77.0465" gradientUnits="userSpaceOnUse">
<stop stop-color="#09005D"/>
<stop offset="1" stop-color="#1A0F91"/>
</linearGradient>
<linearGradient id="paint9_linear_457_4" x1="297.273" y1="29.7234" x2="284.729" y2="69.9807" gradientUnits="userSpaceOnUse">
<stop stop-color="#09005D"/>
<stop offset="1" stop-color="#1A0F91"/>
</linearGradient>
<linearGradient id="paint10_linear_457_4" x1="256.963" y1="23.9294" x2="262.279" y2="65.0272" gradientUnits="userSpaceOnUse">
<stop stop-color="#09005D"/>
<stop offset="1" stop-color="#1A0F91"/>
</linearGradient>
<linearGradient id="paint11_linear_457_4" x1="225.786" y1="-38.6293" x2="220.47" y2="2.46847" gradientUnits="userSpaceOnUse">
<stop stop-color="#09005D"/>
<stop offset="1" stop-color="#1A0F91"/>
</linearGradient>
<linearGradient id="paint12_linear_457_4" x1="213.47" y1="177.327" x2="264.395" y2="172.913" gradientUnits="userSpaceOnUse">
<stop stop-color="#E1473D"/>
<stop offset="1" stop-color="#E9605A"/>
</linearGradient>
<linearGradient id="paint13_linear_457_4" x1="177.559" y1="67.0764" x2="201.005" y2="67.0764" gradientUnits="userSpaceOnUse">
<stop stop-color="#DAE3FE"/>
<stop offset="1" stop-color="#E9EFFD"/>
</linearGradient>
<linearGradient id="paint14_linear_457_4" x1="275.421" y1="67.0764" x2="298.867" y2="67.0764" gradientUnits="userSpaceOnUse">
<stop stop-color="#DAE3FE"/>
<stop offset="1" stop-color="#E9EFFD"/>
</linearGradient>
<linearGradient id="paint15_linear_457_4" x1="177.559" y1="201.051" x2="201.005" y2="201.051" gradientUnits="userSpaceOnUse">
<stop stop-color="#DAE3FE"/>
<stop offset="1" stop-color="#E9EFFD"/>
</linearGradient>
<linearGradient id="paint16_linear_457_4" x1="275.421" y1="201.051" x2="298.867" y2="201.051" gradientUnits="userSpaceOnUse">
<stop stop-color="#DAE3FE"/>
<stop offset="1" stop-color="#E9EFFD"/>
</linearGradient>
<linearGradient id="paint17_linear_457_4" x1="186.057" y1="133.853" x2="290.208" y2="133.853" gradientUnits="userSpaceOnUse">
<stop stop-color="#DAE3FE"/>
<stop offset="1" stop-color="#E9EFFD"/>
</linearGradient>
<linearGradient id="paint18_linear_457_4" x1="377.85" y1="146.999" x2="371.268" y2="153.44" gradientUnits="userSpaceOnUse">
<stop stop-color="#53D8FF"/>
<stop offset="1" stop-color="#3840F7"/>
</linearGradient>
<linearGradient id="paint19_linear_457_4" x1="372.177" y1="150.362" x2="376.39" y2="150.362" gradientUnits="userSpaceOnUse">
<stop stop-color="#DAE3FE"/>
<stop offset="1" stop-color="#E9EFFD"/>
</linearGradient>
<linearGradient id="paint20_linear_457_4" x1="377.851" y1="159.964" x2="371.269" y2="166.405" gradientUnits="userSpaceOnUse">
<stop stop-color="#53D8FF"/>
<stop offset="1" stop-color="#3840F7"/>
</linearGradient>
<linearGradient id="paint21_linear_457_4" x1="372.177" y1="163.327" x2="376.39" y2="163.327" gradientUnits="userSpaceOnUse">
<stop stop-color="#DAE3FE"/>
<stop offset="1" stop-color="#E9EFFD"/>
</linearGradient>
<linearGradient id="paint22_linear_457_4" x1="377.851" y1="172.93" x2="371.269" y2="179.371" gradientUnits="userSpaceOnUse">
<stop stop-color="#53D8FF"/>
<stop offset="1" stop-color="#3840F7"/>
</linearGradient>
<linearGradient id="paint23_linear_457_4" x1="372.177" y1="176.293" x2="376.39" y2="176.293" gradientUnits="userSpaceOnUse">
<stop stop-color="#DAE3FE"/>
<stop offset="1" stop-color="#E9EFFD"/>
</linearGradient>
<linearGradient id="paint24_linear_457_4" x1="379.813" y1="150.426" x2="441.039" y2="150.426" gradientUnits="userSpaceOnUse">
<stop stop-color="#DAE3FE"/>
<stop offset="1" stop-color="#E9EFFD"/>
</linearGradient>
<linearGradient id="paint25_linear_457_4" x1="379.813" y1="163.327" x2="441.039" y2="163.327" gradientUnits="userSpaceOnUse">
<stop stop-color="#DAE3FE"/>
<stop offset="1" stop-color="#E9EFFD"/>
</linearGradient>
<linearGradient id="paint26_linear_457_4" x1="379.813" y1="176.229" x2="441.039" y2="176.229" gradientUnits="userSpaceOnUse">
<stop stop-color="#DAE3FE"/>
<stop offset="1" stop-color="#E9EFFD"/>
</linearGradient>
<linearGradient id="paint27_linear_457_4" x1="86.9989" y1="109.098" x2="93.5811" y2="115.539" gradientUnits="userSpaceOnUse">
<stop stop-color="#53D8FF"/>
<stop offset="1" stop-color="#3840F7"/>
</linearGradient>
<linearGradient id="paint28_linear_457_4" x1="86.9989" y1="122.063" x2="93.5809" y2="128.504" gradientUnits="userSpaceOnUse">
<stop stop-color="#53D8FF"/>
<stop offset="1" stop-color="#3840F7"/>
</linearGradient>
<linearGradient id="paint29_linear_457_4" x1="86.9989" y1="135.029" x2="93.5807" y2="141.47" gradientUnits="userSpaceOnUse">
<stop stop-color="#53D8FF"/>
<stop offset="1" stop-color="#3840F7"/>
</linearGradient>
<linearGradient id="paint30_linear_457_4" x1="85.4251" y1="182.739" x2="71.0271" y2="219.534" gradientUnits="userSpaceOnUse">
<stop stop-color="#09005D"/>
<stop offset="1" stop-color="#1A0F91"/>
</linearGradient>
<linearGradient id="paint31_linear_457_4" x1="97.2111" y1="205.307" x2="85.5128" y2="232.424" gradientUnits="userSpaceOnUse">
<stop stop-color="#A22B25"/>
<stop offset="1" stop-color="#C0423C"/>
</linearGradient>
<linearGradient id="paint32_linear_457_4" x1="59.8483" y1="299.001" x2="54.3083" y2="299.001" gradientUnits="userSpaceOnUse">
<stop stop-color="#A737D5"/>
<stop offset="1" stop-color="#EF497A"/>
</linearGradient>
<linearGradient id="paint33_linear_457_4" x1="83.2583" y1="320.445" x2="75.575" y2="228.96" gradientUnits="userSpaceOnUse">
<stop stop-color="#A22B25"/>
<stop offset="1" stop-color="#C0423C"/>
</linearGradient>
<linearGradient id="paint34_linear_457_4" x1="85.5872" y1="298.008" x2="76.623" y2="298.008" gradientUnits="userSpaceOnUse">
<stop stop-color="#A737D5"/>
<stop offset="1" stop-color="#EF497A"/>
</linearGradient>
<linearGradient id="paint35_linear_457_4" x1="67.2211" y1="321.806" x2="59.5358" y2="230.297" gradientUnits="userSpaceOnUse">
<stop stop-color="#A22B25"/>
<stop offset="1" stop-color="#C0423C"/>
</linearGradient>
<linearGradient id="paint36_linear_457_4" x1="61.102" y1="229.995" x2="80.5052" y2="261.624" gradientUnits="userSpaceOnUse">
<stop stop-color="#4042E2"/>
<stop offset="1" stop-color="#4F52FF"/>
</linearGradient>
<linearGradient id="paint37_linear_457_4" x1="84.1326" y1="230.292" x2="82.6888" y2="219.531" gradientUnits="userSpaceOnUse">
<stop stop-color="#A22B25"/>
<stop offset="1" stop-color="#C0423C"/>
</linearGradient>
<linearGradient id="paint38_linear_457_4" x1="71.9306" y1="243.888" x2="79.3898" y2="212.928" gradientUnits="userSpaceOnUse">
<stop stop-color="#A22B25"/>
<stop offset="1" stop-color="#C0423C"/>
</linearGradient>
<linearGradient id="paint39_linear_457_4" x1="87.9125" y1="216.427" x2="75.2118" y2="193.399" gradientUnits="userSpaceOnUse">
<stop stop-color="#A22B25"/>
<stop offset="1" stop-color="#C0423C"/>
</linearGradient>
<linearGradient id="paint40_linear_457_4" x1="85.1025" y1="196.55" x2="78.7761" y2="212.717" gradientUnits="userSpaceOnUse">
<stop stop-color="#09005D"/>
<stop offset="1" stop-color="#1A0F91"/>
</linearGradient>
<linearGradient id="paint41_linear_457_4" x1="85.1309" y1="217.959" x2="72.4338" y2="194.934" gradientUnits="userSpaceOnUse">
<stop stop-color="#A22B25"/>
<stop offset="1" stop-color="#C0423C"/>
</linearGradient>
<linearGradient id="paint42_linear_457_4" x1="99.5962" y1="206.336" x2="87.8977" y2="233.453" gradientUnits="userSpaceOnUse">
<stop stop-color="#A22B25"/>
<stop offset="1" stop-color="#C0423C"/>
</linearGradient>
<linearGradient id="paint43_linear_457_4" x1="105.381" y1="196.371" x2="102.471" y2="196.371" gradientUnits="userSpaceOnUse">
<stop stop-color="#A22B25"/>
<stop offset="1" stop-color="#C0423C"/>
</linearGradient>
<linearGradient id="paint44_linear_457_4" x1="409.393" y1="387.214" x2="397.945" y2="357.916" gradientUnits="userSpaceOnUse">
<stop stop-color="#09005D"/>
<stop offset="1" stop-color="#1A0F91"/>
</linearGradient>
<linearGradient id="paint45_linear_457_4" x1="379.487" y1="295.32" x2="376.348" y2="295.32" gradientUnits="userSpaceOnUse">
<stop stop-color="#FF928E"/>
<stop offset="1" stop-color="#FEB3B1"/>
</linearGradient>
<linearGradient id="paint46_linear_457_4" x1="387.204" y1="251.258" x2="372" y2="294.599" gradientUnits="userSpaceOnUse">
<stop stop-color="#09005D"/>
<stop offset="1" stop-color="#1A0F91"/>
</linearGradient>
<linearGradient id="paint47_linear_457_4" x1="422.288" y1="382.161" x2="410.844" y2="352.866" gradientUnits="userSpaceOnUse">
<stop stop-color="#09005D"/>
<stop offset="1" stop-color="#1A0F91"/>
</linearGradient>
<linearGradient id="paint48_linear_457_4" x1="390.802" y1="295.162" x2="388.092" y2="295.162" gradientUnits="userSpaceOnUse">
<stop stop-color="#FF928E"/>
<stop offset="1" stop-color="#FEB3B1"/>
</linearGradient>
<linearGradient id="paint49_linear_457_4" x1="391.619" y1="252.807" x2="376.416" y2="296.148" gradientUnits="userSpaceOnUse">
<stop stop-color="#09005D"/>
<stop offset="1" stop-color="#1A0F91"/>
</linearGradient>
<linearGradient id="paint50_linear_457_4" x1="380.102" y1="241.193" x2="398.943" y2="236.211" gradientUnits="userSpaceOnUse">
<stop stop-color="#FF928E"/>
<stop offset="1" stop-color="#FEB3B1"/>
</linearGradient>
<linearGradient id="paint51_linear_457_4" x1="370.846" y1="243.648" x2="374.183" y2="224.522" gradientUnits="userSpaceOnUse">
<stop stop-color="#09005D"/>
<stop offset="1" stop-color="#1A0F91"/>
</linearGradient>
<linearGradient id="paint52_linear_457_4" x1="389.24" y1="221.8" x2="380.385" y2="234.832" gradientUnits="userSpaceOnUse">
<stop stop-color="#FF928E"/>
<stop offset="1" stop-color="#FEB3B1"/>
</linearGradient>
<linearGradient id="paint53_linear_457_4" x1="363.813" y1="233.517" x2="367.195" y2="228.271" gradientUnits="userSpaceOnUse">
<stop stop-color="#FF928E"/>
<stop offset="1" stop-color="#FEB3B1"/>
</linearGradient>
<linearGradient id="paint54_linear_457_4" x1="380.875" y1="207.723" x2="383.655" y2="225.428" gradientUnits="userSpaceOnUse">
<stop stop-color="#FF928E"/>
<stop offset="1" stop-color="#FEB3B1"/>
</linearGradient>
<linearGradient id="paint55_linear_457_4" x1="349.629" y1="281.961" x2="353.289" y2="273.082" gradientUnits="userSpaceOnUse">
<stop stop-color="#FF928E"/>
<stop offset="1" stop-color="#FEB3B1"/>
</linearGradient>
<linearGradient id="paint56_linear_457_4" x1="390.069" y1="201.655" x2="378.834" y2="210.696" gradientUnits="userSpaceOnUse">
<stop stop-color="#09005D"/>
<stop offset="1" stop-color="#1A0F91"/>
</linearGradient>
<linearGradient id="paint57_linear_457_4" x1="352.613" y1="283.183" x2="356.273" y2="274.306" gradientUnits="userSpaceOnUse">
<stop stop-color="#FF928E"/>
<stop offset="1" stop-color="#FEB3B1"/>
</linearGradient>
</defs>
</svg>
