<svg width="25" height="28" viewBox="0 0 25 28" fill="none" xmlns="http://www.w3.org/2000/svg">
<path d="M12.5049 7.66661C9.39941 7.66661 6.89453 10.4559 6.89453 13.914C6.89453 17.3721 9.39941 20.1615 12.5049 20.1615C15.6104 20.1615 18.1152 17.3721 18.1152 13.914C18.1152 10.4559 15.6104 7.66661 12.5049 7.66661ZM12.5049 17.9757C10.498 17.9757 8.85742 16.1542 8.85742 13.914C8.85742 11.6739 10.4932 9.85239 12.5049 9.85239C14.5166 9.85239 16.1523 11.6739 16.1523 13.914C16.1523 16.1542 14.5117 17.9757 12.5049 17.9757ZM19.6533 7.41106C19.6533 8.22121 19.0674 8.86825 18.3447 8.86825C17.6172 8.86825 17.0361 8.21577 17.0361 7.41106C17.0361 6.60634 17.6221 5.95387 18.3447 5.95387C19.0674 5.95387 19.6533 6.60634 19.6533 7.41106ZM23.3691 8.89C23.2861 6.93802 22.8857 5.20896 21.6016 3.7844C20.3223 2.35983 18.7695 1.91398 17.0166 1.81611C15.21 1.70192 9.79492 1.70192 7.98828 1.81611C6.24023 1.90854 4.6875 2.3544 3.40332 3.77896C2.11914 5.20353 1.72363 6.93258 1.63574 8.88456C1.5332 10.8963 1.5332 16.9263 1.63574 18.9381C1.71875 20.8901 2.11914 22.6191 3.40332 24.0437C4.6875 25.4682 6.23535 25.9141 7.98828 26.012C9.79492 26.1261 15.21 26.1261 17.0166 26.012C18.7695 25.9195 20.3223 25.4737 21.6016 24.0437C22.8809 22.6191 23.2812 20.8901 23.3691 18.9381C23.4717 16.9263 23.4717 10.9018 23.3691 8.89ZM21.0352 21.0967C20.6543 22.1624 19.917 22.9834 18.9551 23.4129C17.5146 24.0491 14.0967 23.9023 12.5049 23.9023C10.9131 23.9023 7.49023 24.0437 6.05469 23.4129C5.09766 22.9888 4.36035 22.1678 3.97461 21.0967C3.40332 19.4927 3.53516 15.6866 3.53516 13.914C3.53516 12.1415 3.4082 8.32996 3.97461 6.7314C4.35547 5.66569 5.09277 4.84467 6.05469 4.41512C7.49512 3.77896 10.9131 3.92577 12.5049 3.92577C14.0967 3.92577 17.5195 3.7844 18.9551 4.41512C19.9121 4.83923 20.6494 5.66026 21.0352 6.7314C21.6064 8.33539 21.4746 12.1415 21.4746 13.914C21.4746 15.6866 21.6064 19.4981 21.0352 21.0967Z" fill="white"/>
</svg>
