<svg width="147" height="84" viewBox="0 0 147 84" fill="none" xmlns="http://www.w3.org/2000/svg">
<path d="M36.8467 39.684C42.5797 35.7421 57.3894 29.5615 70.7645 36.3737C87.4834 44.889 106.611 42.2294 112.087 37.0654" stroke="#172176" stroke-width="5" stroke-linecap="round"/>
<path d="M36 50.3092C41.733 46.3674 56.5427 40.1868 69.9178 46.999C86.6367 55.5143 105.765 52.8546 111.241 47.6907" stroke="#172176" stroke-width="5" stroke-linecap="round"/>
<path d="M36.1535 60.9344C41.8865 56.9926 56.6963 50.812 70.0714 57.6242C86.7903 66.1395 105.918 63.4799 111.394 58.3159" stroke="#172176" stroke-width="5" stroke-linecap="round"/>
<path d="M36.1535 60.9344C41.8865 56.9926 56.6963 50.812 70.0714 57.6242C86.7903 66.1395 105.918 63.4799 111.394 58.3159" stroke="#172176" stroke-width="5" stroke-linecap="round"/>
<path d="M74.3516 7.063C74.0576 7.063 73.7939 7.014 73.5606 6.916C73.3273 6.81333 73.1429 6.67333 73.0076 6.496C72.8723 6.314 72.7976 6.10633 72.7836 5.873H73.4416C73.4603 6.06433 73.5489 6.22067 73.7076 6.342C73.8709 6.46333 74.0833 6.524 74.3446 6.524C74.5873 6.524 74.7786 6.47033 74.9186 6.363C75.0586 6.25567 75.1286 6.12033 75.1286 5.957C75.1286 5.789 75.0539 5.66533 74.9046 5.586C74.7553 5.502 74.5243 5.42033 74.2116 5.341C73.9269 5.26633 73.6936 5.19167 73.5116 5.117C73.3343 5.03767 73.1803 4.92333 73.0496 4.774C72.9236 4.62 72.8606 4.41933 72.8606 4.172C72.8606 3.976 72.9189 3.79633 73.0356 3.633C73.1523 3.46967 73.3179 3.34133 73.5326 3.248C73.7473 3.15 73.9923 3.101 74.2676 3.101C74.6923 3.101 75.0353 3.20833 75.2966 3.423C75.5579 3.63767 75.6979 3.93167 75.7166 4.305H75.0796C75.0656 4.10433 74.9839 3.94333 74.8346 3.822C74.6899 3.70067 74.4939 3.64 74.2466 3.64C74.0179 3.64 73.8359 3.689 73.7006 3.787C73.5653 3.885 73.4976 4.01333 73.4976 4.172C73.4976 4.298 73.5373 4.403 73.6166 4.487C73.7006 4.56633 73.8033 4.63167 73.9246 4.683C74.0506 4.72967 74.2233 4.78333 74.4426 4.844C74.7179 4.91867 74.9419 4.99333 75.1146 5.068C75.2873 5.138 75.4343 5.24533 75.5556 5.39C75.6816 5.53467 75.7469 5.72367 75.7516 5.957C75.7516 6.167 75.6933 6.356 75.5766 6.524C75.4599 6.692 75.2943 6.825 75.0796 6.923C74.8696 7.01633 74.6269 7.063 74.3516 7.063ZM76.4128 5.068C76.4128 4.676 76.4921 4.333 76.6508 4.039C76.8095 3.74033 77.0265 3.50933 77.3018 3.346C77.5818 3.18267 77.8921 3.101 78.2328 3.101C78.5688 3.101 78.8605 3.17333 79.1078 3.318C79.3551 3.46267 79.5395 3.64467 79.6608 3.864V3.164H80.3048V7H79.6608V6.286C79.5348 6.51 79.3458 6.69667 79.0938 6.846C78.8465 6.99067 78.5571 7.063 78.2258 7.063C77.8851 7.063 77.5771 6.979 77.3018 6.811C77.0265 6.643 76.8095 6.40733 76.6508 6.104C76.4921 5.80067 76.4128 5.45533 76.4128 5.068ZM79.6608 5.075C79.6608 4.78567 79.6025 4.53367 79.4858 4.319C79.3691 4.10433 79.2105 3.941 79.0098 3.829C78.8138 3.71233 78.5968 3.654 78.3588 3.654C78.1208 3.654 77.9038 3.71 77.7078 3.822C77.5118 3.934 77.3555 4.09733 77.2388 4.312C77.1221 4.52667 77.0638 4.77867 77.0638 5.068C77.0638 5.362 77.1221 5.61867 77.2388 5.838C77.3555 6.05267 77.5118 6.21833 77.7078 6.335C77.9038 6.447 78.1208 6.503 78.3588 6.503C78.5968 6.503 78.8138 6.447 79.0098 6.335C79.2105 6.21833 79.3691 6.05267 79.4858 5.838C79.6025 5.61867 79.6608 5.36433 79.6608 5.075ZM82.0183 1.82V7H81.3813V1.82H82.0183ZM84.7769 7.063C84.4176 7.063 84.0909 6.98133 83.7969 6.818C83.5076 6.65467 83.2789 6.42367 83.1109 6.125C82.9476 5.82167 82.8659 5.47167 82.8659 5.075C82.8659 4.683 82.9499 4.33767 83.1179 4.039C83.2906 3.73567 83.5239 3.50467 83.8179 3.346C84.1119 3.18267 84.4409 3.101 84.8049 3.101C85.1689 3.101 85.4979 3.18267 85.7919 3.346C86.0859 3.50467 86.3169 3.73333 86.4849 4.032C86.6576 4.33067 86.7439 4.67833 86.7439 5.075C86.7439 5.47167 86.6553 5.82167 86.4779 6.125C86.3053 6.42367 86.0696 6.65467 85.7709 6.818C85.4723 6.98133 85.1409 7.063 84.7769 7.063ZM84.7769 6.503C85.0056 6.503 85.2203 6.44933 85.4209 6.342C85.6216 6.23467 85.7826 6.07367 85.9039 5.859C86.0299 5.64433 86.0929 5.383 86.0929 5.075C86.0929 4.767 86.0323 4.50567 85.9109 4.291C85.7896 4.07633 85.6309 3.91767 85.4349 3.815C85.2389 3.70767 85.0266 3.654 84.7979 3.654C84.5646 3.654 84.3499 3.70767 84.1539 3.815C83.9626 3.91767 83.8086 4.07633 83.6919 4.291C83.5753 4.50567 83.5169 4.767 83.5169 5.075C83.5169 5.38767 83.5729 5.65133 83.6849 5.866C83.8016 6.08067 83.9556 6.24167 84.1469 6.349C84.3383 6.45167 84.5483 6.503 84.7769 6.503ZM89.4505 3.094C89.9171 3.094 90.2951 3.23633 90.5845 3.521C90.8738 3.801 91.0185 4.207 91.0185 4.739V7H90.3885V4.83C90.3885 4.44733 90.2928 4.15567 90.1015 3.955C89.9101 3.74967 89.6488 3.647 89.3175 3.647C88.9815 3.647 88.7131 3.752 88.5125 3.962C88.3165 4.172 88.2185 4.47767 88.2185 4.879V7H87.5815V3.164H88.2185V3.71C88.3445 3.514 88.5148 3.36233 88.7295 3.255C88.9488 3.14767 89.1891 3.094 89.4505 3.094ZM97.6702 7L97.0332 6.356C96.7952 6.60333 96.5409 6.78767 96.2702 6.909C95.9996 7.02567 95.6939 7.084 95.3532 7.084C95.0172 7.084 94.7186 7.02333 94.4572 6.902C94.2006 6.78067 93.9999 6.608 93.8552 6.384C93.7152 6.16 93.6452 5.89867 93.6452 5.6C93.6452 5.25933 93.7409 4.96067 93.9322 4.704C94.1282 4.44267 94.4152 4.23733 94.7932 4.088C94.6439 3.91067 94.5366 3.74733 94.4712 3.598C94.4059 3.44867 94.3732 3.28533 94.3732 3.108C94.3732 2.90267 94.4246 2.71833 94.5272 2.555C94.6346 2.387 94.7862 2.25633 94.9822 2.163C95.1782 2.06967 95.4046 2.023 95.6612 2.023C95.9132 2.023 96.1326 2.072 96.3192 2.17C96.5059 2.268 96.6459 2.40567 96.7392 2.583C96.8326 2.75567 96.8746 2.94933 96.8652 3.164H96.2282C96.2329 2.97267 96.1792 2.82333 96.0672 2.716C95.9552 2.604 95.8106 2.548 95.6332 2.548C95.4466 2.548 95.2949 2.60167 95.1782 2.709C95.0662 2.81167 95.0102 2.94467 95.0102 3.108C95.0102 3.248 95.0476 3.38333 95.1222 3.514C95.2016 3.64467 95.3322 3.80567 95.5142 3.997L96.9702 5.46L97.0962 5.264L97.5722 4.466H98.2582L97.6842 5.46C97.6049 5.6 97.5116 5.747 97.4042 5.901L98.5032 7H97.6702ZM95.3532 6.538C95.6052 6.538 95.8316 6.489 96.0322 6.391C96.2376 6.293 96.4312 6.14133 96.6132 5.936L95.1782 4.494C94.5809 4.72267 94.2822 5.08433 94.2822 5.579C94.2822 5.85433 94.3802 6.083 94.5762 6.265C94.7769 6.447 95.0359 6.538 95.3532 6.538ZM102.324 7.063C102.03 7.063 101.767 7.014 101.533 6.916C101.3 6.81333 101.116 6.67333 100.98 6.496C100.845 6.314 100.77 6.10633 100.756 5.873H101.414C101.433 6.06433 101.522 6.22067 101.68 6.342C101.844 6.46333 102.056 6.524 102.317 6.524C102.56 6.524 102.751 6.47033 102.891 6.363C103.031 6.25567 103.101 6.12033 103.101 5.957C103.101 5.789 103.027 5.66533 102.877 5.586C102.728 5.502 102.497 5.42033 102.184 5.341C101.9 5.26633 101.666 5.19167 101.484 5.117C101.307 5.03767 101.153 4.92333 101.022 4.774C100.896 4.62 100.833 4.41933 100.833 4.172C100.833 3.976 100.892 3.79633 101.008 3.633C101.125 3.46967 101.291 3.34133 101.505 3.248C101.72 3.15 101.965 3.101 102.24 3.101C102.665 3.101 103.008 3.20833 103.269 3.423C103.531 3.63767 103.671 3.93167 103.689 4.305H103.052C103.038 4.10433 102.957 3.94333 102.807 3.822C102.663 3.70067 102.467 3.64 102.219 3.64C101.991 3.64 101.809 3.689 101.673 3.787C101.538 3.885 101.47 4.01333 101.47 4.172C101.47 4.298 101.51 4.403 101.589 4.487C101.673 4.56633 101.776 4.63167 101.897 4.683C102.023 4.72967 102.196 4.78333 102.415 4.844C102.691 4.91867 102.915 4.99333 103.087 5.068C103.26 5.138 103.407 5.24533 103.528 5.39C103.654 5.53467 103.72 5.72367 103.724 5.957C103.724 6.167 103.666 6.356 103.549 6.524C103.433 6.692 103.267 6.825 103.052 6.923C102.842 7.01633 102.6 7.063 102.324 7.063ZM105.26 3.871C105.386 3.65167 105.573 3.46967 105.82 3.325C106.072 3.17567 106.364 3.101 106.695 3.101C107.036 3.101 107.344 3.18267 107.619 3.346C107.899 3.50933 108.119 3.74033 108.277 4.039C108.436 4.333 108.515 4.676 108.515 5.068C108.515 5.45533 108.436 5.80067 108.277 6.104C108.119 6.40733 107.899 6.643 107.619 6.811C107.344 6.979 107.036 7.063 106.695 7.063C106.369 7.063 106.079 6.99067 105.827 6.846C105.58 6.69667 105.391 6.51233 105.26 6.293V8.82H104.623V3.164H105.26V3.871ZM107.864 5.068C107.864 4.77867 107.806 4.52667 107.689 4.312C107.573 4.09733 107.414 3.934 107.213 3.822C107.017 3.71 106.8 3.654 106.562 3.654C106.329 3.654 106.112 3.71233 105.911 3.829C105.715 3.941 105.557 4.10667 105.435 4.326C105.319 4.54067 105.26 4.79033 105.26 5.075C105.26 5.36433 105.319 5.61867 105.435 5.838C105.557 6.05267 105.715 6.21833 105.911 6.335C106.112 6.447 106.329 6.503 106.562 6.503C106.8 6.503 107.017 6.447 107.213 6.335C107.414 6.21833 107.573 6.05267 107.689 5.838C107.806 5.61867 107.864 5.362 107.864 5.068ZM109.116 5.068C109.116 4.676 109.195 4.333 109.354 4.039C109.513 3.74033 109.73 3.50933 110.005 3.346C110.285 3.18267 110.595 3.101 110.936 3.101C111.272 3.101 111.564 3.17333 111.811 3.318C112.058 3.46267 112.243 3.64467 112.364 3.864V3.164H113.008V7H112.364V6.286C112.238 6.51 112.049 6.69667 111.797 6.846C111.55 6.99067 111.26 7.063 110.929 7.063C110.588 7.063 110.28 6.979 110.005 6.811C109.73 6.643 109.513 6.40733 109.354 6.104C109.195 5.80067 109.116 5.45533 109.116 5.068ZM112.364 5.075C112.364 4.78567 112.306 4.53367 112.189 4.319C112.072 4.10433 111.914 3.941 111.713 3.829C111.517 3.71233 111.3 3.654 111.062 3.654C110.824 3.654 110.607 3.71 110.411 3.822C110.215 3.934 110.059 4.09733 109.942 4.312C109.825 4.52667 109.767 4.77867 109.767 5.068C109.767 5.362 109.825 5.61867 109.942 5.838C110.059 6.05267 110.215 6.21833 110.411 6.335C110.607 6.447 110.824 6.503 111.062 6.503C111.3 6.503 111.517 6.447 111.713 6.335C111.914 6.21833 112.072 6.05267 112.189 5.838C112.306 5.61867 112.364 5.36433 112.364 5.075Z" fill="#091156"/>
<path d="M47.4886 15.36C47.2606 14.94 46.9306 14.622 46.4986 14.406C46.0786 14.178 45.5806 14.064 45.0046 14.064C44.0086 14.064 43.2106 14.394 42.6106 15.054C42.0106 15.702 41.7106 16.572 41.7106 17.664C41.7106 18.828 42.0226 19.74 42.6466 20.4C43.2826 21.048 44.1526 21.372 45.2566 21.372C46.0126 21.372 46.6486 21.18 47.1646 20.796C47.6926 20.412 48.0766 19.86 48.3166 19.14H44.4106V16.872H51.1066V19.734C50.8786 20.502 50.4886 21.216 49.9366 21.876C49.3966 22.536 48.7066 23.07 47.8666 23.478C47.0266 23.886 46.0786 24.09 45.0226 24.09C43.7746 24.09 42.6586 23.82 41.6746 23.28C40.7026 22.728 39.9406 21.966 39.3886 20.994C38.8486 20.022 38.5786 18.912 38.5786 17.664C38.5786 16.416 38.8486 15.306 39.3886 14.334C39.9406 13.35 40.7026 12.588 41.6746 12.048C42.6466 11.496 43.7566 11.22 45.0046 11.22C46.5166 11.22 47.7886 11.586 48.8206 12.318C49.8646 13.05 50.5546 14.064 50.8906 15.36H47.4886ZM62.2796 18.816C62.2796 19.104 62.2616 19.404 62.2256 19.716H55.2596C55.3076 20.34 55.5056 20.82 55.8536 21.156C56.2136 21.48 56.6516 21.642 57.1676 21.642C57.9356 21.642 58.4696 21.318 58.7696 20.67H62.0456C61.8776 21.33 61.5716 21.924 61.1276 22.452C60.6956 22.98 60.1496 23.394 59.4896 23.694C58.8296 23.994 58.0916 24.144 57.2756 24.144C56.2916 24.144 55.4156 23.934 54.6476 23.514C53.8796 23.094 53.2796 22.494 52.8476 21.714C52.4156 20.934 52.1996 20.022 52.1996 18.978C52.1996 17.934 52.4096 17.022 52.8296 16.242C53.2616 15.462 53.8616 14.862 54.6296 14.442C55.3976 14.022 56.2796 13.812 57.2756 13.812C58.2476 13.812 59.1116 14.016 59.8676 14.424C60.6236 14.832 61.2116 15.414 61.6316 16.17C62.0636 16.926 62.2796 17.808 62.2796 18.816ZM59.1296 18.006C59.1296 17.478 58.9496 17.058 58.5896 16.746C58.2296 16.434 57.7796 16.278 57.2396 16.278C56.7236 16.278 56.2856 16.428 55.9256 16.728C55.5776 17.028 55.3616 17.454 55.2776 18.006H59.1296ZM68.4754 24.144C67.4914 24.144 66.6034 23.934 65.8114 23.514C65.0314 23.094 64.4134 22.494 63.9574 21.714C63.5134 20.934 63.2914 20.022 63.2914 18.978C63.2914 17.946 63.5194 17.04 63.9754 16.26C64.4314 15.468 65.0554 14.862 65.8474 14.442C66.6394 14.022 67.5274 13.812 68.5114 13.812C69.4954 13.812 70.3834 14.022 71.1754 14.442C71.9674 14.862 72.5914 15.468 73.0474 16.26C73.5034 17.04 73.7314 17.946 73.7314 18.978C73.7314 20.01 73.4974 20.922 73.0294 21.714C72.5734 22.494 71.9434 23.094 71.1394 23.514C70.3474 23.934 69.4594 24.144 68.4754 24.144ZM68.4754 21.48C69.0634 21.48 69.5614 21.264 69.9694 20.832C70.3894 20.4 70.5994 19.782 70.5994 18.978C70.5994 18.174 70.3954 17.556 69.9874 17.124C69.5914 16.692 69.0994 16.476 68.5114 16.476C67.9114 16.476 67.4134 16.692 67.0174 17.124C66.6214 17.544 66.4234 18.162 66.4234 18.978C66.4234 19.782 66.6154 20.4 66.9994 20.832C67.3954 21.264 67.8874 21.48 68.4754 21.48ZM78.4423 15.63C78.8023 15.078 79.2523 14.646 79.7923 14.334C80.3323 14.01 80.9323 13.848 81.5923 13.848V17.106H80.7463C79.9783 17.106 79.4023 17.274 79.0183 17.61C78.6343 17.934 78.4423 18.51 78.4423 19.338V24H75.3643V13.956H78.4423V15.63ZM86.8795 13.812C87.5875 13.812 88.2055 13.956 88.7335 14.244C89.2735 14.532 89.6875 14.91 89.9755 15.378V13.956H93.0535V23.982C93.0535 24.906 92.8675 25.74 92.4955 26.484C92.1355 27.24 91.5775 27.84 90.8215 28.284C90.0775 28.728 89.1475 28.95 88.0315 28.95C86.5435 28.95 85.3375 28.596 84.4135 27.888C83.4895 27.192 82.9615 26.244 82.8295 25.044H85.8715C85.9675 25.428 86.1955 25.728 86.5555 25.944C86.9155 26.172 87.3595 26.286 87.8875 26.286C88.5235 26.286 89.0275 26.1 89.3995 25.728C89.7835 25.368 89.9755 24.786 89.9755 23.982V22.56C89.6755 23.028 89.2615 23.412 88.7335 23.712C88.2055 24 87.5875 24.144 86.8795 24.144C86.0515 24.144 85.3015 23.934 84.6295 23.514C83.9575 23.082 83.4235 22.476 83.0275 21.696C82.6435 20.904 82.4515 19.992 82.4515 18.96C82.4515 17.928 82.6435 17.022 83.0275 16.242C83.4235 15.462 83.9575 14.862 84.6295 14.442C85.3015 14.022 86.0515 13.812 86.8795 13.812ZM89.9755 18.978C89.9755 18.21 89.7595 17.604 89.3275 17.16C88.9075 16.716 88.3915 16.494 87.7795 16.494C87.1675 16.494 86.6455 16.716 86.2135 17.16C85.7935 17.592 85.5835 18.192 85.5835 18.96C85.5835 19.728 85.7935 20.34 86.2135 20.796C86.6455 21.24 87.1675 21.462 87.7795 21.462C88.3915 21.462 88.9075 21.24 89.3275 20.796C89.7595 20.352 89.9755 19.746 89.9755 18.978ZM104.748 18.816C104.748 19.104 104.73 19.404 104.694 19.716H97.7283C97.7763 20.34 97.9743 20.82 98.3223 21.156C98.6823 21.48 99.1203 21.642 99.6363 21.642C100.404 21.642 100.938 21.318 101.238 20.67H104.514C104.346 21.33 104.04 21.924 103.596 22.452C103.164 22.98 102.618 23.394 101.958 23.694C101.298 23.994 100.56 24.144 99.7443 24.144C98.7603 24.144 97.8843 23.934 97.1163 23.514C96.3483 23.094 95.7483 22.494 95.3163 21.714C94.8843 20.934 94.6683 20.022 94.6683 18.978C94.6683 17.934 94.8783 17.022 95.2983 16.242C95.7303 15.462 96.3303 14.862 97.0983 14.442C97.8663 14.022 98.7483 13.812 99.7443 13.812C100.716 13.812 101.58 14.016 102.336 14.424C103.092 14.832 103.68 15.414 104.1 16.17C104.532 16.926 104.748 17.808 104.748 18.816ZM101.598 18.006C101.598 17.478 101.418 17.058 101.058 16.746C100.698 16.434 100.248 16.278 99.7083 16.278C99.1923 16.278 98.7543 16.428 98.3943 16.728C98.0463 17.028 97.8303 17.454 97.7463 18.006H101.598Z" fill="#4C56AC"/>
</svg>
