<svg width="147" height="80" viewBox="0 0 147 80" fill="none" xmlns="http://www.w3.org/2000/svg">
<circle cx="38.5" cy="35.5" r="20.5" fill="#172176" fill-opacity="0.77"/>
<ellipse cx="49" cy="50.5" rx="14" ry="14.5" fill="#172176" fill-opacity="0.54"/>
<circle cx="59" cy="36" r="11" fill="#172176" fill-opacity="0.74"/>
<path d="M79.0627 41.014C79.0627 39.982 79.2728 39.082 79.6928 38.314C80.1128 37.534 80.6948 36.934 81.4388 36.514C82.1828 36.082 83.0348 35.866 83.9948 35.866C85.2308 35.866 86.2508 36.178 87.0548 36.802C87.8708 37.414 88.4168 38.278 88.6928 39.394H85.9748C85.8308 38.962 85.5848 38.626 85.2368 38.386C84.9008 38.134 84.4808 38.008 83.9768 38.008C83.2568 38.008 82.6868 38.272 82.2668 38.8C81.8468 39.316 81.6368 40.054 81.6368 41.014C81.6368 41.962 81.8468 42.7 82.2668 43.228C82.6868 43.744 83.2568 44.002 83.9768 44.002C84.9968 44.002 85.6628 43.546 85.9748 42.634H88.6928C88.4168 43.714 87.8708 44.572 87.0548 45.208C86.2388 45.844 85.2188 46.162 83.9948 46.162C83.0348 46.162 82.1828 45.952 81.4388 45.532C80.6948 45.1 80.1128 44.5 79.6928 43.732C79.2728 42.952 79.0627 42.046 79.0627 41.014ZM91.8169 34.84C91.3729 34.84 91.0009 34.702 90.7009 34.426C90.4129 34.138 90.2689 33.784 90.2689 33.364C90.2689 32.944 90.4129 32.596 90.7009 32.32C91.0009 32.032 91.3729 31.888 91.8169 31.888C92.2609 31.888 92.6269 32.032 92.9149 32.32C93.2149 32.596 93.3649 32.944 93.3649 33.364C93.3649 33.784 93.2149 34.138 92.9149 34.426C92.6269 34.702 92.2609 34.84 91.8169 34.84ZM93.0589 36.028V46H90.5389V36.028H93.0589ZM98.0686 37.576C98.3926 37.048 98.8126 36.634 99.3286 36.334C99.8566 36.034 100.457 35.884 101.129 35.884V38.53H100.463C99.6706 38.53 99.0706 38.716 98.6626 39.088C98.2666 39.46 98.0686 40.108 98.0686 41.032V46H95.5486V36.028H98.0686V37.576ZM102.178 41.014C102.178 39.982 102.388 39.082 102.808 38.314C103.228 37.534 103.81 36.934 104.554 36.514C105.298 36.082 106.15 35.866 107.11 35.866C108.346 35.866 109.366 36.178 110.17 36.802C110.986 37.414 111.532 38.278 111.808 39.394H109.09C108.946 38.962 108.7 38.626 108.352 38.386C108.016 38.134 107.596 38.008 107.092 38.008C106.372 38.008 105.802 38.272 105.382 38.8C104.962 39.316 104.752 40.054 104.752 41.014C104.752 41.962 104.962 42.7 105.382 43.228C105.802 43.744 106.372 44.002 107.092 44.002C108.112 44.002 108.778 43.546 109.09 42.634H111.808C111.532 43.714 110.986 44.572 110.17 45.208C109.354 45.844 108.334 46.162 107.11 46.162C106.15 46.162 105.298 45.952 104.554 45.532C103.81 45.1 103.228 44.5 102.808 43.732C102.388 42.952 102.178 42.046 102.178 41.014ZM116.174 32.68V46H113.654V32.68H116.174ZM127.934 40.798C127.934 41.158 127.91 41.482 127.862 41.77H120.572C120.632 42.49 120.884 43.054 121.328 43.462C121.772 43.87 122.318 44.074 122.966 44.074C123.902 44.074 124.568 43.672 124.964 42.868H127.682C127.394 43.828 126.842 44.62 126.026 45.244C125.21 45.856 124.208 46.162 123.02 46.162C122.06 46.162 121.196 45.952 120.428 45.532C119.672 45.1 119.078 44.494 118.646 43.714C118.226 42.934 118.016 42.034 118.016 41.014C118.016 39.982 118.226 39.076 118.646 38.296C119.066 37.516 119.654 36.916 120.41 36.496C121.166 36.076 122.036 35.866 123.02 35.866C123.968 35.866 124.814 36.07 125.558 36.478C126.314 36.886 126.896 37.468 127.304 38.224C127.724 38.968 127.934 39.826 127.934 40.798ZM125.324 40.078C125.312 39.43 125.078 38.914 124.622 38.53C124.166 38.134 123.608 37.936 122.948 37.936C122.324 37.936 121.796 38.128 121.364 38.512C120.944 38.884 120.686 39.406 120.59 40.078H125.324Z" fill="#091156"/>
</svg>
