<svg width="14" height="11" viewBox="0 0 14 11" fill="none" xmlns="http://www.w3.org/2000/svg">
<path d="M7.00938 6.0644L2.75938 10.58C2.46563 10.8921 1.99063 10.8921 1.7 10.58L0.99375 9.82964C0.7 9.51753 0.7 9.01284 0.99375 8.70405L4.00625 5.50327L0.99375 2.30249C0.7 1.99038 0.7 1.48569 0.99375 1.1769L1.69687 0.419873C1.99062 0.107764 2.46562 0.107764 2.75625 0.419873L7.00625 4.9355C7.30312 5.24761 7.30312 5.75229 7.00938 6.0644ZM13.0094 4.9355L8.75937 0.419873C8.46562 0.107764 7.99062 0.107764 7.7 0.419873L6.99375 1.17026C6.7 1.48237 6.7 1.98706 6.99375 2.29585L10.0063 5.49663L6.99375 8.69741C6.7 9.00952 6.7 9.51421 6.99375 9.823L7.7 10.5734C7.99375 10.8855 8.46875 10.8855 8.75937 10.5734L13.0094 6.05776C13.3031 5.75229 13.3031 5.24761 13.0094 4.9355Z" fill="#FF64AE"/>
</svg>
