<svg width="294" height="165" viewBox="0 0 294 165" fill="none" xmlns="http://www.w3.org/2000/svg">
<path d="M200.704 77.832V79.64H197.728V89H195.488V79.64H192.512V77.832H200.704ZM207.874 89.144C207.021 89.144 206.253 88.9573 205.57 88.584C204.888 88.2 204.349 87.6613 203.954 86.968C203.57 86.2747 203.378 85.4747 203.378 84.568C203.378 83.6613 203.576 82.8613 203.97 82.168C204.376 81.4747 204.925 80.9413 205.618 80.568C206.312 80.184 207.085 79.992 207.938 79.992C208.792 79.992 209.565 80.184 210.258 80.568C210.952 80.9413 211.496 81.4747 211.89 82.168C212.296 82.8613 212.498 83.6613 212.498 84.568C212.498 85.4747 212.29 86.2747 211.874 86.968C211.469 87.6613 210.914 88.2 210.21 88.584C209.517 88.9573 208.738 89.144 207.874 89.144ZM207.874 87.192C208.28 87.192 208.658 87.096 209.01 86.904C209.373 86.7013 209.661 86.4027 209.874 86.008C210.088 85.6133 210.194 85.1333 210.194 84.568C210.194 83.7253 209.97 83.08 209.522 82.632C209.085 82.1733 208.546 81.944 207.906 81.944C207.266 81.944 206.728 82.1733 206.29 82.632C205.864 83.08 205.65 83.7253 205.65 84.568C205.65 85.4107 205.858 86.0613 206.274 86.52C206.701 86.968 207.234 87.192 207.874 87.192ZM224.11 80.136V89H221.854V87.88C221.566 88.264 221.187 88.568 220.718 88.792C220.259 89.0053 219.758 89.112 219.214 89.112C218.52 89.112 217.907 88.968 217.374 88.68C216.84 88.3813 216.419 87.9493 216.11 87.384C215.811 86.808 215.662 86.1253 215.662 85.336V80.136H217.902V85.016C217.902 85.72 218.078 86.264 218.43 86.648C218.782 87.0213 219.262 87.208 219.87 87.208C220.488 87.208 220.974 87.0213 221.326 86.648C221.678 86.264 221.854 85.72 221.854 85.016V80.136H224.11ZM230.16 81.512C230.448 81.0427 230.821 80.6747 231.28 80.408C231.749 80.1413 232.282 80.008 232.88 80.008V82.36H232.288C231.584 82.36 231.05 82.5253 230.688 82.856C230.336 83.1867 230.16 83.7627 230.16 84.584V89H227.92V80.136H230.16V81.512ZM251.433 77.832L247.337 89H244.617L240.521 77.832H242.921L245.993 86.712L249.049 77.832H251.433ZM255.512 79.08C255.117 79.08 254.787 78.9573 254.52 78.712C254.264 78.456 254.136 78.1413 254.136 77.768C254.136 77.3947 254.264 77.0853 254.52 76.84C254.787 76.584 255.117 76.456 255.512 76.456C255.907 76.456 256.232 76.584 256.488 76.84C256.755 77.0853 256.888 77.3947 256.888 77.768C256.888 78.1413 256.755 78.456 256.488 78.712C256.232 78.9573 255.907 79.08 255.512 79.08ZM256.616 80.136V89H254.376V80.136H256.616ZM259.853 84.536C259.853 83.64 260.029 82.8453 260.381 82.152C260.744 81.4587 261.234 80.9253 261.853 80.552C262.472 80.1787 263.16 79.992 263.917 79.992C264.493 79.992 265.042 80.12 265.565 80.376C266.088 80.6213 266.504 80.952 266.813 81.368V77.16H269.085V89H266.813V87.688C266.536 88.1253 266.146 88.4773 265.645 88.744C265.144 89.0107 264.562 89.144 263.901 89.144C263.154 89.144 262.472 88.952 261.853 88.568C261.234 88.184 260.744 87.6453 260.381 86.952C260.029 86.248 259.853 85.4427 259.853 84.536ZM266.829 84.568C266.829 84.024 266.722 83.56 266.509 83.176C266.296 82.7813 266.008 82.4827 265.645 82.28C265.282 82.0667 264.893 81.96 264.477 81.96C264.061 81.96 263.677 82.0613 263.325 82.264C262.973 82.4667 262.685 82.7653 262.461 83.16C262.248 83.544 262.141 84.0027 262.141 84.536C262.141 85.0693 262.248 85.5387 262.461 85.944C262.685 86.3387 262.973 86.6427 263.325 86.856C263.688 87.0693 264.072 87.176 264.477 87.176C264.893 87.176 265.282 87.0747 265.645 86.872C266.008 86.6587 266.296 86.36 266.509 85.976C266.722 85.5813 266.829 85.112 266.829 84.568ZM281.113 84.376C281.113 84.696 281.091 84.984 281.049 85.24H274.569C274.622 85.88 274.846 86.3813 275.241 86.744C275.635 87.1067 276.121 87.288 276.697 87.288C277.529 87.288 278.121 86.9307 278.473 86.216H280.889C280.633 87.0693 280.142 87.7733 279.417 88.328C278.691 88.872 277.801 89.144 276.745 89.144C275.891 89.144 275.123 88.9573 274.441 88.584C273.769 88.2 273.241 87.6613 272.857 86.968C272.483 86.2747 272.297 85.4747 272.297 84.568C272.297 83.6507 272.483 82.8453 272.857 82.152C273.23 81.4587 273.753 80.9253 274.425 80.552C275.097 80.1787 275.87 79.992 276.745 79.992C277.587 79.992 278.339 80.1733 279.001 80.536C279.673 80.8987 280.19 81.416 280.553 82.088C280.926 82.7493 281.113 83.512 281.113 84.376ZM278.793 83.736C278.782 83.16 278.574 82.7013 278.169 82.36C277.763 82.008 277.267 81.832 276.681 81.832C276.126 81.832 275.657 82.0027 275.273 82.344C274.899 82.6747 274.67 83.1387 274.585 83.736H278.793ZM288.284 89.144C287.43 89.144 286.662 88.9573 285.98 88.584C285.297 88.2 284.758 87.6613 284.364 86.968C283.98 86.2747 283.788 85.4747 283.788 84.568C283.788 83.6613 283.985 82.8613 284.38 82.168C284.785 81.4747 285.334 80.9413 286.028 80.568C286.721 80.184 287.494 79.992 288.348 79.992C289.201 79.992 289.974 80.184 290.668 80.568C291.361 80.9413 291.905 81.4747 292.3 82.168C292.705 82.8613 292.908 83.6613 292.908 84.568C292.908 85.4747 292.7 86.2747 292.284 86.968C291.878 87.6613 291.324 88.2 290.62 88.584C289.926 88.9573 289.148 89.144 288.284 89.144ZM288.284 87.192C288.689 87.192 289.068 87.096 289.42 86.904C289.782 86.7013 290.07 86.4027 290.284 86.008C290.497 85.6133 290.604 85.1333 290.604 84.568C290.604 83.7253 290.38 83.08 289.932 82.632C289.494 82.1733 288.956 81.944 288.316 81.944C287.676 81.944 287.137 82.1733 286.7 82.632C286.273 83.08 286.06 83.7253 286.06 84.568C286.06 85.4107 286.268 86.0613 286.684 86.52C287.11 86.968 287.644 87.192 288.284 87.192Z" fill="white"/>
<path d="M102.5 77.4378C107.167 80.1321 107.167 86.8679 102.5 89.5622L77.75 103.852C73.0833 106.546 67.25 103.178 67.25 97.7894L67.25 69.2106C67.25 63.822 73.0833 60.4541 77.75 63.1484L102.5 77.4378Z" stroke="white" stroke-width="2"/>
<g filter="url(#filter0_d_162_345)">
<circle cx="82.5" cy="82.5" r="62.5" stroke="white" stroke-width="2" shape-rendering="crispEdges"/>
</g>
<defs>
<filter id="filter0_d_162_345" x="0" y="0" width="165" height="165" filterUnits="userSpaceOnUse" color-interpolation-filters="sRGB">
<feFlood flood-opacity="0" result="BackgroundImageFix"/>
<feColorMatrix in="SourceAlpha" type="matrix" values="0 0 0 0 0 0 0 0 0 0 0 0 0 0 0 0 0 0 127 0" result="hardAlpha"/>
<feMorphology radius="7" operator="dilate" in="SourceAlpha" result="effect1_dropShadow_162_345"/>
<feOffset/>
<feGaussianBlur stdDeviation="6"/>
<feComposite in2="hardAlpha" operator="out"/>
<feColorMatrix type="matrix" values="0 0 0 0 1 0 0 0 0 1 0 0 0 0 1 0 0 0 0.15 0"/>
<feBlend mode="normal" in2="BackgroundImageFix" result="effect1_dropShadow_162_345"/>
<feBlend mode="normal" in="SourceGraphic" in2="effect1_dropShadow_162_345" result="shape"/>
</filter>
</defs>
</svg>
