<svg width="475" height="314" viewBox="0 0 475 314" fill="none" xmlns="http://www.w3.org/2000/svg">
<rect y="-0.00012207" width="475" height="314" fill="white"/>
<path fill-rule="evenodd" clip-rule="evenodd" d="M237.07 73.6062C263.731 76.9272 291.333 73.4374 312.985 89.4003C338.2 107.989 359.939 134.256 361.853 165.599C363.851 198.321 345.217 227.814 322.897 251.747C299.67 276.652 270.68 304.462 237.07 299.397C204.732 294.524 197.197 252.032 173.649 229.257C149.155 205.568 105.766 199.002 98.7298 165.599C91.1557 129.641 109.117 88.1068 139.643 67.808C167.837 49.0596 203.507 69.4255 237.07 73.6062Z" fill="#F5F6FF"/>
<path opacity="0.5" d="M135.825 216.897C132.002 207.752 146.579 200.218 146.579 200.218C146.579 200.218 165.494 206.702 168.266 205.069C171.016 203.437 153.175 196.372 153.175 196.372C157.691 192.102 174.75 188.435 174.75 188.435C174.75 188.435 185.929 204.466 188.209 202.185C190.489 199.905 177.567 188.503 177.567 188.503C183.38 186.244 192.077 188.346 192.077 188.346C204.552 193.041 197.89 208.803 197.89 208.803C197.89 208.803 201.892 214.281 209.963 217.836C209.963 217.836 211.595 218.395 213.831 219.736L212.534 220.742C212.154 220.474 211.796 220.228 211.416 220.004C211.416 220.004 211.416 220.004 211.394 220.004C211.148 219.87 210.812 219.691 210.388 219.468C209.404 218.998 208.689 218.641 208.197 218.372C205.134 216.874 200.998 215.041 199.365 215.265C199.365 215.265 199.343 214.952 199.187 214.46C199.254 214.706 199.298 214.974 199.365 215.265C200.819 221.704 190.422 231.027 183.313 234.537C176.203 238.047 177.522 234.246 178.662 228.858C179.78 223.492 187.27 218.842 188.477 216.159C189.662 213.476 185.817 214.683 181.971 218.171C178.126 221.659 179.266 227.338 173.14 233.106C167.014 238.874 152.325 230.356 152.325 230.356C157.982 228.232 164.219 219.356 163.303 217.545C162.386 215.734 150.402 225.303 148.144 226.287C145.886 227.226 139.648 226.019 135.825 216.897Z" fill="#A8CCFF"/>
<path d="M124.4 95.6963C125.54 84.6293 143.963 85.0094 143.963 85.0094C143.963 85.0094 159.144 101.576 162.743 101.442C166.343 101.308 152.526 84.7411 152.526 84.7411C159.255 82.9525 178.08 88.4972 178.08 88.4972C178.08 88.4972 180.517 110.318 183.983 109.29C187.448 108.261 180.853 90.0846 180.853 90.0846C187.806 90.9789 195.251 97.7085 195.251 97.7085C205.044 109.021 189.997 121.005 189.997 121.005C189.997 121.005 191.003 128.54 197.04 136.409C197.04 136.409 198.336 137.818 199.857 140.367L198.046 140.657C197.822 140.188 197.576 139.763 197.33 139.338V139.316C197.151 139.048 196.928 138.69 196.615 138.243C195.877 137.259 195.385 136.521 195.05 135.985C192.836 132.855 189.729 128.83 188.007 128.16C188.007 128.16 188.164 127.847 188.253 127.265C188.164 127.556 188.097 127.847 188.007 128.16C185.995 135.292 170.725 138.914 161.827 138.556C152.928 138.198 156.282 135.157 160.284 130.462C164.286 125.767 174.168 125.208 176.784 123.196C179.4 121.184 174.95 120.312 169.294 121.698C163.615 123.084 161.692 129.277 152.57 131.692C143.449 134.084 133.522 117.808 133.522 117.808C140.251 118.747 151.162 113.336 151.229 111.056C151.318 108.776 134.349 111.771 131.577 111.548C128.76 111.302 123.26 106.763 124.4 95.6963Z" fill="#DCEAFB"/>
<path opacity="0.5" d="M340.911 93.4157C339.369 78.3244 314.261 78.861 314.261 78.861C314.261 78.861 293.58 101.42 288.662 101.241C283.743 101.062 302.568 78.5032 302.568 78.5032C293.379 76.0663 267.757 83.6231 267.757 83.6231C267.757 83.6231 264.449 113.359 259.731 111.973C255.014 110.586 264.001 85.7918 264.001 85.7918C254.522 87.0215 244.394 96.1657 244.394 96.1657C231.069 111.592 251.548 127.913 251.548 127.913C251.548 127.913 250.184 138.198 241.934 148.885C241.934 148.885 240.146 150.808 238.111 154.273L240.571 154.675C240.884 154.049 241.197 153.446 241.554 152.865C241.554 152.865 241.554 152.842 241.577 152.842C241.8 152.484 242.136 151.993 242.538 151.389C243.522 150.047 244.215 149.041 244.662 148.304C247.68 144.056 251.906 138.556 254.276 137.661C254.276 137.661 254.075 137.237 253.94 136.454C254.052 136.834 254.164 137.237 254.276 137.661C257.003 147.387 277.818 152.328 289.959 151.836C302.076 151.344 297.515 147.208 292.083 140.791C286.65 134.397 273.168 133.637 269.613 130.887C266.036 128.137 272.117 126.974 279.831 128.852C287.544 130.731 290.182 139.204 302.635 142.468C315.066 145.732 328.592 123.554 328.592 123.554C319.426 124.828 304.558 117.472 304.446 114.365C304.334 111.257 327.452 115.349 331.208 115.036C334.964 114.678 342.477 108.507 340.911 93.4157Z" fill="#A8CCFF"/>
<path d="M164.98 45.6154C164.98 45.6154 169.228 38.1927 179.401 39.0199C179.401 39.0199 194.179 26.6562 209.919 37.3655C209.919 37.3655 226.665 34.7049 239.074 39.6683C247.346 42.9772 250.073 46.4427 250.073 46.4427L164.98 45.6154Z" fill="#F6FBFF"/>
<path d="M274.241 60.3936C274.241 60.3936 276.789 54.5359 282.915 55.1843C282.915 55.1843 291.791 45.4141 301.271 53.8876C301.271 53.8876 311.354 51.786 318.799 55.6985C323.763 58.3144 325.417 61.042 325.417 61.042L274.241 60.3936Z" fill="#F6FBFF"/>
<path d="M231 21.7666C231 21.7666 233.37 17.2057 239.004 17.6975C239.004 17.6975 247.187 10.096 255.929 16.6914C255.929 16.6914 265.207 15.0593 272.093 18.1C276.677 20.1345 278.197 22.2585 278.197 22.2585L231 21.7666Z" fill="#F6FBFF"/>
<path d="M396.492 158.32V246.811H259.373V158.32C259.373 158.32 279.36 156.375 288.482 156.375C299.482 156.397 321.415 158.365 332.392 158.32C342.61 158.275 363.022 156.196 373.262 156.375C379.097 156.487 396.492 158.32 396.492 158.32Z" fill="#FFA5A8"/>
<path d="M396.493 157.94V180.186C386.074 178.867 384.911 188.234 378.182 188.659C371.452 189.084 375.521 181.169 369.216 181.013C362.912 180.856 365.349 185.932 359.223 188.078C353.119 190.224 348.625 185.932 346.389 182.645C344.154 179.359 341.292 178.375 337.223 180.834C333.154 183.293 333.959 188.391 326.223 188.056C318.487 187.72 320.32 179.202 314.194 181.505C308.091 183.808 305.833 188.234 300.132 188.056C294.43 187.877 296.062 180.678 289.735 180.834C283.43 180.991 285.353 186.334 275.27 187.81C265.187 189.285 259.396 183.383 259.396 183.383V157.94C259.396 157.94 279.384 156.375 288.506 156.375C299.506 156.397 321.438 157.962 332.416 157.94C342.633 157.918 363.046 156.218 373.286 156.375C379.098 156.464 396.493 157.94 396.493 157.94Z" fill="#FFE1CC"/>
<path d="M396.493 158.32V167.822C396.493 167.822 366.355 166.682 348.021 167.599C329.688 168.515 301.249 166.369 289.936 166.078C278.624 165.765 259.396 167.599 259.396 167.599V158.342C259.396 158.342 279.384 156.397 288.506 156.397C299.506 156.42 321.438 158.387 332.416 158.342C342.633 158.298 363.046 156.219 373.286 156.397C379.098 156.487 396.493 158.32 396.493 158.32Z" fill="#FFCCA9"/>
<path d="M259.373 233.039C259.373 233.039 270.663 231.563 282.267 233.039C293.893 234.515 316.496 230.244 329.955 232.391C343.415 234.537 353.185 232.704 369.998 231.787C386.811 230.87 396.469 233.397 396.469 233.397V246.811H259.373V233.039Z" fill="#FF7A7E"/>
<path d="M300.265 229.283C296.554 229.283 293.2 229.126 290.472 228.702C277.237 226.689 259.597 227.83 259.418 227.83L259.351 226.913C259.529 226.891 277.259 225.773 290.606 227.785C297.649 228.858 308.984 228.187 319.917 227.539C329.755 226.958 339.055 226.421 344.399 227.181C349.519 227.919 359.401 227.271 368.947 226.645C380.238 225.907 391.909 225.147 396.604 226.578L396.335 227.45C391.797 226.063 380.216 226.824 368.992 227.539C358.954 228.187 349.474 228.813 344.242 228.053C338.988 227.293 329.732 227.83 319.94 228.411C313.188 228.858 306.257 229.283 300.265 229.283Z" fill="#FF7A7E"/>
<path d="M301.494 227.069C299.415 227.069 297.358 226.958 295.234 226.689C281.842 225.013 259.596 225.236 259.373 225.236V224.319C259.596 224.319 281.909 224.118 295.346 225.795C301.382 226.555 307.017 225.996 314.171 225.326C323.025 224.476 334.047 223.425 350.77 224.319C367.784 225.236 376.37 223.783 382.63 222.732C387.616 221.883 391.215 221.279 396.536 222.151L396.38 223.045C391.215 222.196 387.66 222.799 382.764 223.626C376.459 224.7 367.829 226.153 350.703 225.236C334.047 224.319 323.069 225.393 314.238 226.242C309.543 226.689 305.474 227.069 301.494 227.069Z" fill="#7E9BEA"/>
<path opacity="0.4" d="M266.102 243.368C266.966 243.368 267.667 242.668 267.667 241.803C267.667 240.939 266.966 240.238 266.102 240.238C265.238 240.238 264.537 240.939 264.537 241.803C264.537 242.668 265.238 243.368 266.102 243.368Z" fill="#FFA0A3"/>
<path opacity="0.4" d="M261.117 242.474C261.117 241.602 261.81 240.909 262.682 240.909C263.531 240.909 264.247 241.602 264.247 242.474C264.247 243.323 263.554 244.039 262.682 244.039C261.832 244.039 261.117 243.346 261.117 242.474Z" fill="#FFA0A3"/>
<path opacity="0.4" d="M265.633 238.159C265.633 237.287 266.326 236.594 267.198 236.594C268.07 236.594 268.763 237.287 268.763 238.159C268.763 239.008 268.07 239.724 267.198 239.724C266.326 239.724 265.633 239.008 265.633 238.159Z" fill="#FFA0A3"/>
<path opacity="0.4" d="M261.988 238.964C261.988 238.114 262.681 237.399 263.553 237.399C264.403 237.399 265.118 238.092 265.118 238.964C265.118 239.836 264.425 240.529 263.553 240.529C262.681 240.529 261.988 239.836 261.988 238.964Z" fill="#FFA0A3"/>
<path opacity="0.4" d="M270.015 242.586C270.88 242.586 271.58 241.885 271.58 241.021C271.58 240.156 270.88 239.456 270.015 239.456C269.151 239.456 268.45 240.156 268.45 241.021C268.45 241.885 269.151 242.586 270.015 242.586Z" fill="#FFA0A3"/>
<path opacity="0.4" d="M274.487 241.021C275.351 241.021 276.052 240.32 276.052 239.456C276.052 238.591 275.351 237.891 274.487 237.891C273.623 237.891 272.922 238.591 272.922 239.456C272.922 240.32 273.623 241.021 274.487 241.021Z" fill="#FFA0A3"/>
<path opacity="0.4" d="M271.133 238.964C271.998 238.964 272.698 238.263 272.698 237.399C272.698 236.534 271.998 235.834 271.133 235.834C270.269 235.834 269.568 236.534 269.568 237.399C269.568 238.263 270.269 238.964 271.133 238.964Z" fill="#FFA0A3"/>
<path opacity="0.4" d="M278.332 242.832C279.196 242.832 279.897 242.131 279.897 241.267C279.897 240.402 279.196 239.702 278.332 239.702C277.468 239.702 276.767 240.402 276.767 241.267C276.767 242.131 277.468 242.832 278.332 242.832Z" fill="#FFA0A3"/>
<path opacity="0.4" d="M272.094 241.557C272.698 240.953 273.682 240.953 274.308 241.557C274.911 242.161 274.911 243.144 274.308 243.771C273.704 244.374 272.72 244.374 272.094 243.771C271.491 243.144 271.491 242.161 272.094 241.557Z" fill="#FFA0A3"/>
<path opacity="0.4" d="M282.043 241.334C282.907 241.334 283.608 240.633 283.608 239.769C283.608 238.904 282.907 238.204 282.043 238.204C281.179 238.204 280.478 238.904 280.478 239.769C280.478 240.633 281.179 241.334 282.043 241.334Z" fill="#FFA0A3"/>
<path opacity="0.4" d="M281.596 237.891C282.461 237.891 283.161 237.19 283.161 236.326C283.161 235.461 282.461 234.76 281.596 234.76C280.732 234.76 280.031 235.461 280.031 236.326C280.031 237.19 280.732 237.891 281.596 237.891Z" fill="#FFA0A3"/>
<path opacity="0.4" d="M285.375 239.724C286.239 239.724 286.94 239.023 286.94 238.159C286.94 237.294 286.239 236.594 285.375 236.594C284.51 236.594 283.81 237.294 283.81 238.159C283.81 239.023 284.51 239.724 285.375 239.724Z" fill="#FFA0A3"/>
<path opacity="0.4" d="M284.122 240.708C284.726 240.104 285.71 240.104 286.336 240.708C286.939 241.311 286.939 242.295 286.336 242.921C285.732 243.525 284.748 243.525 284.122 242.921C283.519 242.295 283.519 241.311 284.122 240.708Z" fill="#FFA0A3"/>
<path opacity="0.4" d="M288.839 241.624C289.704 241.624 290.404 240.924 290.404 240.059C290.404 239.195 289.704 238.494 288.839 238.494C287.975 238.494 287.274 239.195 287.274 240.059C287.274 240.924 287.975 241.624 288.839 241.624Z" fill="#FFA0A3"/>
<path opacity="0.4" d="M292.171 240.059C293.035 240.059 293.736 239.358 293.736 238.494C293.736 237.63 293.035 236.929 292.171 236.929C291.307 236.929 290.606 237.63 290.606 238.494C290.606 239.358 291.307 240.059 292.171 240.059Z" fill="#FFA0A3"/>
<path opacity="0.4" d="M298.789 240.685C299.653 240.685 300.354 239.985 300.354 239.12C300.354 238.256 299.653 237.555 298.789 237.555C297.924 237.555 297.224 238.256 297.224 239.12C297.224 239.985 297.924 240.685 298.789 240.685Z" fill="#FFA0A3"/>
<path opacity="0.4" d="M302.701 239.322C303.566 239.322 304.266 238.621 304.266 237.757C304.266 236.892 303.566 236.192 302.701 236.192C301.837 236.192 301.136 236.892 301.136 237.757C301.136 238.621 301.837 239.322 302.701 239.322Z" fill="#FFA0A3"/>
<path opacity="0.4" d="M302.03 243.167C302.895 243.167 303.595 242.466 303.595 241.602C303.595 240.738 302.895 240.037 302.03 240.037C301.166 240.037 300.465 240.738 300.465 241.602C300.465 242.466 301.166 243.167 302.03 243.167Z" fill="#FFA0A3"/>
<path opacity="0.4" d="M305.81 241.624C306.674 241.624 307.375 240.924 307.375 240.059C307.375 239.195 306.674 238.494 305.81 238.494C304.946 238.494 304.245 239.195 304.245 240.059C304.245 240.924 304.946 241.624 305.81 241.624Z" fill="#FFA0A3"/>
<path opacity="0.4" d="M309.386 240.685C310.251 240.685 310.951 239.985 310.951 239.12C310.951 238.256 310.251 237.555 309.386 237.555C308.522 237.555 307.821 238.256 307.821 239.12C307.821 239.985 308.522 240.685 309.386 240.685Z" fill="#FFA0A3"/>
<path opacity="0.4" d="M306.571 238.159C307.435 238.159 308.136 237.458 308.136 236.594C308.136 235.729 307.435 235.029 306.571 235.029C305.707 235.029 305.006 235.729 305.006 236.594C305.006 237.458 305.707 238.159 306.571 238.159Z" fill="#FFA0A3"/>
<path opacity="0.4" d="M305.34 245.313C306.205 245.313 306.905 244.612 306.905 243.748C306.905 242.884 306.205 242.183 305.34 242.183C304.476 242.183 303.775 242.884 303.775 243.748C303.775 244.612 304.476 245.313 305.34 245.313Z" fill="#FFA0A3"/>
<path opacity="0.4" d="M308.939 244.151C309.803 244.151 310.504 243.45 310.504 242.586C310.504 241.721 309.803 241.021 308.939 241.021C308.075 241.021 307.374 241.721 307.374 242.586C307.374 243.45 308.075 244.151 308.939 244.151Z" fill="#FFA0A3"/>
<path opacity="0.4" d="M315.759 244.732C316.624 244.732 317.324 244.031 317.324 243.167C317.324 242.303 316.624 241.602 315.759 241.602C314.895 241.602 314.194 242.303 314.194 243.167C314.194 244.031 314.895 244.732 315.759 244.732Z" fill="#FFA0A3"/>
<path opacity="0.4" d="M318.42 240.506C319.023 239.903 320.007 239.903 320.633 240.506C321.237 241.11 321.237 242.094 320.633 242.72C320.029 243.323 319.046 243.323 318.42 242.72C317.816 242.116 317.816 241.11 318.42 240.506Z" fill="#FFA0A3"/>
<path opacity="0.4" d="M325.841 243.167C326.705 243.167 327.406 242.466 327.406 241.602C327.406 240.738 326.705 240.037 325.841 240.037C324.977 240.037 324.276 240.738 324.276 241.602C324.276 242.466 324.977 243.167 325.841 243.167Z" fill="#FFA0A3"/>
<path opacity="0.4" d="M329.016 241.334C329.881 241.334 330.581 240.633 330.581 239.769C330.581 238.904 329.881 238.204 329.016 238.204C328.152 238.204 327.451 238.904 327.451 239.769C327.451 240.633 328.152 241.334 329.016 241.334Z" fill="#FFA0A3"/>
<path opacity="0.4" d="M325.841 239.322C326.705 239.322 327.406 238.621 327.406 237.757C327.406 236.892 326.705 236.192 325.841 236.192C324.977 236.192 324.276 236.892 324.276 237.757C324.276 238.621 324.977 239.322 325.841 239.322Z" fill="#FFA0A3"/>
<path opacity="0.4" d="M322.51 237.757C323.374 237.757 324.075 237.056 324.075 236.191C324.075 235.327 323.374 234.626 322.51 234.626C321.646 234.626 320.945 235.327 320.945 236.191C320.945 237.056 321.646 237.757 322.51 237.757Z" fill="#FFA0A3"/>
<path opacity="0.4" d="M311.467 236.46C312.071 235.856 313.054 235.856 313.68 236.46C314.284 237.063 314.284 238.047 313.68 238.673C313.077 239.277 312.093 239.277 311.467 238.673C310.863 238.047 310.863 237.063 311.467 236.46Z" fill="#FFA0A3"/>
<path opacity="0.4" d="M311.467 240.171C312.071 239.567 313.054 239.567 313.68 240.171C314.284 240.775 314.284 241.758 313.68 242.384C313.077 242.988 312.093 242.988 311.467 242.384C310.863 241.758 310.863 240.775 311.467 240.171Z" fill="#FFA0A3"/>
<path opacity="0.4" d="M316.117 241.043C316.981 241.043 317.682 240.342 317.682 239.478C317.682 238.614 316.981 237.913 316.117 237.913C315.252 237.913 314.552 238.614 314.552 239.478C314.552 240.342 315.252 241.043 316.117 241.043Z" fill="#FFA0A3"/>
<path opacity="0.4" d="M318.42 237.063C319.023 236.46 320.007 236.46 320.633 237.063C321.237 237.667 321.237 238.651 320.633 239.277C320.029 239.88 319.046 239.88 318.42 239.277C317.816 238.651 317.816 237.667 318.42 237.063Z" fill="#FFA0A3"/>
<path opacity="0.4" d="M322.712 241.334C323.576 241.334 324.277 240.633 324.277 239.769C324.277 238.904 323.576 238.204 322.712 238.204C321.848 238.204 321.147 238.904 321.147 239.769C321.147 240.633 321.848 241.334 322.712 241.334Z" fill="#FFA0A3"/>
<path opacity="0.4" d="M322.712 244.911C323.576 244.911 324.277 244.21 324.277 243.346C324.277 242.482 323.576 241.781 322.712 241.781C321.848 241.781 321.147 242.482 321.147 243.346C321.147 244.21 321.848 244.911 322.712 244.911Z" fill="#FFA0A3"/>
<path opacity="0.4" d="M316.967 234.403C317.749 234.76 318.107 235.677 317.772 236.46C317.414 237.242 316.497 237.6 315.715 237.265C314.932 236.907 314.575 235.99 314.91 235.208C315.245 234.425 316.162 234.067 316.967 234.403Z" fill="#FFA0A3"/>
<path opacity="0.4" d="M298.073 244.374C298.938 244.374 299.638 243.674 299.638 242.809C299.638 241.945 298.938 241.244 298.073 241.244C297.209 241.244 296.508 241.945 296.508 242.809C296.508 243.674 297.209 244.374 298.073 244.374Z" fill="#FFA0A3"/>
<path opacity="0.4" d="M294.496 236.035C295.099 235.431 296.083 235.431 296.709 236.035C297.313 236.638 297.313 237.622 296.709 238.248C296.105 238.852 295.122 238.852 294.496 238.248C293.892 237.645 293.892 236.638 294.496 236.035Z" fill="#FFA0A3"/>
<path opacity="0.4" d="M288.839 237.757C289.704 237.757 290.404 237.056 290.404 236.191C290.404 235.327 289.704 234.626 288.839 234.626C287.975 234.626 287.274 235.327 287.274 236.191C287.274 237.056 287.975 237.757 288.839 237.757Z" fill="#FFA0A3"/>
<path opacity="0.4" d="M291.769 243.793C292.633 243.793 293.334 243.092 293.334 242.228C293.334 241.363 292.633 240.663 291.769 240.663C290.905 240.663 290.204 241.363 290.204 242.228C290.204 243.092 290.905 243.793 291.769 243.793Z" fill="#FFA0A3"/>
<path opacity="0.4" d="M295.301 242.25C296.166 242.25 296.866 241.549 296.866 240.685C296.866 239.821 296.166 239.12 295.301 239.12C294.437 239.12 293.736 239.821 293.736 240.685C293.736 241.549 294.437 242.25 295.301 242.25Z" fill="#FFA0A3"/>
<path opacity="0.4" d="M299.818 236.996C300.682 236.996 301.383 236.296 301.383 235.431C301.383 234.567 300.682 233.866 299.818 233.866C298.954 233.866 298.253 234.567 298.253 235.431C298.253 236.296 298.954 236.996 299.818 236.996Z" fill="#FFA0A3"/>
<path opacity="0.4" d="M278.108 239.322C278.972 239.322 279.673 238.621 279.673 237.757C279.673 236.892 278.972 236.192 278.108 236.192C277.244 236.192 276.543 236.892 276.543 237.757C276.543 238.621 277.244 239.322 278.108 239.322Z" fill="#FFA0A3"/>
<path opacity="0.4" d="M330 242.653C330 241.803 330.693 241.088 331.565 241.088C332.436 241.088 333.13 241.781 333.13 242.653C333.13 243.525 332.436 244.218 331.565 244.218C330.693 244.218 330 243.525 330 242.653Z" fill="#FFA0A3"/>
<path opacity="0.4" d="M328.256 245.783C329.121 245.783 329.821 245.082 329.821 244.218C329.821 243.353 329.121 242.653 328.256 242.653C327.392 242.653 326.691 243.353 326.691 244.218C326.691 245.082 327.392 245.783 328.256 245.783Z" fill="#FFA0A3"/>
<path opacity="0.4" d="M333.152 244.464C333.152 243.614 333.845 242.899 334.717 242.899C335.589 242.899 336.282 243.592 336.282 244.464C336.282 245.336 335.589 246.029 334.717 246.029C333.867 246.029 333.152 245.336 333.152 244.464Z" fill="#FFA0A3"/>
<path opacity="0.4" d="M351.419 244.039C351.419 243.189 352.113 242.474 352.984 242.474C353.856 242.474 354.549 243.167 354.549 244.039C354.549 244.889 353.856 245.604 352.984 245.604C352.113 245.604 351.419 244.911 351.419 244.039Z" fill="#FFA0A3"/>
<path opacity="0.4" d="M339.39 244.218C339.39 243.368 340.083 242.653 340.955 242.653C341.805 242.653 342.52 243.346 342.52 244.218C342.52 245.09 341.827 245.783 340.955 245.783C340.083 245.783 339.39 245.067 339.39 244.218Z" fill="#FFA0A3"/>
<path opacity="0.4" d="M344.51 243.346C344.51 242.496 345.203 241.781 346.075 241.781C346.925 241.781 347.64 242.474 347.64 243.346C347.64 244.218 346.947 244.911 346.075 244.911C345.203 244.889 344.51 244.196 344.51 243.346Z" fill="#FFA0A3"/>
<path opacity="0.4" d="M330.335 238.159C330.335 237.287 331.028 236.594 331.9 236.594C332.75 236.594 333.465 237.287 333.465 238.159C333.465 239.008 332.772 239.724 331.9 239.724C331.05 239.724 330.335 239.008 330.335 238.159Z" fill="#FFA0A3"/>
<path opacity="0.4" d="M327.474 236.281C327.474 235.543 328.077 234.939 328.793 234.939C329.508 234.939 330.134 235.543 330.134 236.281C330.134 237.019 329.531 237.622 328.793 237.622C328.055 237.622 327.474 236.996 327.474 236.281Z" fill="#FFA0A3"/>
<path opacity="0.4" d="M334.717 242.586C335.581 242.586 336.282 241.885 336.282 241.021C336.282 240.156 335.581 239.456 334.717 239.456C333.853 239.456 333.152 240.156 333.152 241.021C333.152 241.885 333.853 242.586 334.717 242.586Z" fill="#FFA0A3"/>
<path opacity="0.4" d="M339.189 241.021C340.053 241.021 340.754 240.32 340.754 239.456C340.754 238.591 340.053 237.891 339.189 237.891C338.324 237.891 337.624 238.591 337.624 239.456C337.624 240.32 338.324 241.021 339.189 241.021Z" fill="#FFA0A3"/>
<path opacity="0.4" d="M335.835 238.964C336.699 238.964 337.4 238.263 337.4 237.399C337.4 236.534 336.699 235.834 335.835 235.834C334.971 235.834 334.27 236.534 334.27 237.399C334.27 238.263 334.971 238.964 335.835 238.964Z" fill="#FFA0A3"/>
<path opacity="0.4" d="M343.058 242.832C343.922 242.832 344.623 242.131 344.623 241.267C344.623 240.402 343.922 239.702 343.058 239.702C342.193 239.702 341.493 240.402 341.493 241.267C341.493 242.131 342.193 242.832 343.058 242.832Z" fill="#FFA0A3"/>
<path opacity="0.4" d="M337.915 244.218C338.779 244.218 339.48 243.517 339.48 242.653C339.48 241.788 338.779 241.088 337.915 241.088C337.05 241.088 336.35 241.788 336.35 242.653C336.35 243.517 337.05 244.218 337.915 244.218Z" fill="#FFA0A3"/>
<path opacity="0.4" d="M345.65 238.673C346.254 238.069 347.238 238.069 347.864 238.673C348.468 239.277 348.468 240.26 347.864 240.886C347.26 241.49 346.277 241.49 345.65 240.886C345.047 240.26 345.047 239.277 345.65 238.673Z" fill="#FFA0A3"/>
<path opacity="0.4" d="M346.298 237.891C347.163 237.891 347.863 237.19 347.863 236.326C347.863 235.461 347.163 234.761 346.298 234.761C345.434 234.761 344.733 235.461 344.733 236.326C344.733 237.19 345.434 237.891 346.298 237.891Z" fill="#FFA0A3"/>
<path opacity="0.4" d="M350.078 239.724C350.942 239.724 351.643 239.023 351.643 238.159C351.643 237.294 350.942 236.594 350.078 236.594C349.213 236.594 348.513 237.294 348.513 238.159C348.513 239.023 349.213 239.724 350.078 239.724Z" fill="#FFA0A3"/>
<path opacity="0.4" d="M349.921 243.368C350.785 243.368 351.486 242.668 351.486 241.803C351.486 240.939 350.785 240.238 349.921 240.238C349.057 240.238 348.356 240.939 348.356 241.803C348.356 242.668 349.057 243.368 349.921 243.368Z" fill="#FFA0A3"/>
<path opacity="0.4" d="M353.565 241.624C354.429 241.624 355.13 240.924 355.13 240.059C355.13 239.195 354.429 238.494 353.565 238.494C352.7 238.494 352 239.195 352 240.059C352 240.924 352.7 241.624 353.565 241.624Z" fill="#FFA0A3"/>
<path opacity="0.4" d="M356.874 240.059C357.738 240.059 358.439 239.359 358.439 238.494C358.439 237.63 357.738 236.929 356.874 236.929C356.009 236.929 355.309 237.63 355.309 238.494C355.309 239.359 356.009 240.059 356.874 240.059Z" fill="#FFA0A3"/>
<path opacity="0.4" d="M363.513 240.685C364.378 240.685 365.078 239.985 365.078 239.12C365.078 238.256 364.378 237.555 363.513 237.555C362.649 237.555 361.948 238.256 361.948 239.12C361.948 239.985 362.649 240.685 363.513 240.685Z" fill="#FFA0A3"/>
<path opacity="0.4" d="M367.404 239.322C368.269 239.322 368.969 238.621 368.969 237.757C368.969 236.892 368.269 236.192 367.404 236.192C366.54 236.192 365.839 236.892 365.839 237.757C365.839 238.621 366.54 239.322 367.404 239.322Z" fill="#FFA0A3"/>
<path opacity="0.4" d="M366.734 243.167C367.598 243.167 368.299 242.466 368.299 241.602C368.299 240.738 367.598 240.037 366.734 240.037C365.87 240.037 365.169 240.738 365.169 241.602C365.169 242.466 365.87 243.167 366.734 243.167Z" fill="#FFA0A3"/>
<path opacity="0.4" d="M370.512 241.624C371.376 241.624 372.077 240.924 372.077 240.059C372.077 239.195 371.376 238.494 370.512 238.494C369.647 238.494 368.947 239.195 368.947 240.059C368.947 240.924 369.647 241.624 370.512 241.624Z" fill="#FFA0A3"/>
<path opacity="0.4" d="M374.089 240.685C374.954 240.685 375.654 239.985 375.654 239.12C375.654 238.256 374.954 237.555 374.089 237.555C373.225 237.555 372.524 238.256 372.524 239.12C372.524 239.985 373.225 240.685 374.089 240.685Z" fill="#FFA0A3"/>
<path opacity="0.4" d="M371.272 238.159C372.136 238.159 372.837 237.458 372.837 236.594C372.837 235.729 372.136 235.029 371.272 235.029C370.408 235.029 369.707 235.729 369.707 236.594C369.707 237.458 370.408 238.159 371.272 238.159Z" fill="#FFA0A3"/>
<path opacity="0.4" d="M368.947 242.653C369.551 242.049 370.534 242.049 371.16 242.653C371.764 243.256 371.764 244.24 371.16 244.866C370.557 245.47 369.573 245.47 368.947 244.866C368.343 244.263 368.343 243.256 368.947 242.653Z" fill="#FFA0A3"/>
<path opacity="0.4" d="M373.643 244.151C374.507 244.151 375.208 243.45 375.208 242.586C375.208 241.721 374.507 241.021 373.643 241.021C372.778 241.021 372.078 241.721 372.078 242.586C372.078 243.45 372.778 244.151 373.643 244.151Z" fill="#FFA0A3"/>
<path opacity="0.4" d="M380.461 244.732C381.325 244.732 382.026 244.031 382.026 243.167C382.026 242.303 381.325 241.602 380.461 241.602C379.597 241.602 378.896 242.303 378.896 243.167C378.896 244.031 379.597 244.732 380.461 244.732Z" fill="#FFA0A3"/>
<path opacity="0.4" d="M383.121 240.506C383.725 239.903 384.709 239.903 385.335 240.506C385.961 241.11 385.938 242.094 385.335 242.72C384.731 243.323 383.747 243.323 383.121 242.72C382.518 242.116 382.518 241.11 383.121 240.506Z" fill="#FFA0A3"/>
<path opacity="0.4" d="M390.545 243.167C391.409 243.167 392.11 242.466 392.11 241.602C392.11 240.738 391.409 240.037 390.545 240.037C389.68 240.037 388.979 240.738 388.979 241.602C388.979 242.466 389.68 243.167 390.545 243.167Z" fill="#FFA0A3"/>
<path opacity="0.4" d="M393.741 241.334C394.605 241.334 395.306 240.633 395.306 239.769C395.306 238.905 394.605 238.204 393.741 238.204C392.876 238.204 392.176 238.905 392.176 239.769C392.176 240.633 392.876 241.334 393.741 241.334Z" fill="#FFA0A3"/>
<path opacity="0.4" d="M390.545 239.322C391.409 239.322 392.11 238.621 392.11 237.757C392.11 236.892 391.409 236.192 390.545 236.192C389.68 236.192 388.979 236.892 388.979 237.757C388.979 238.621 389.68 239.322 390.545 239.322Z" fill="#FFA0A3"/>
<path opacity="0.4" d="M387.213 237.757C388.077 237.757 388.778 237.056 388.778 236.192C388.778 235.327 388.077 234.627 387.213 234.627C386.349 234.627 385.648 235.327 385.648 236.192C385.648 237.056 386.349 237.757 387.213 237.757Z" fill="#FFA0A3"/>
<path opacity="0.4" d="M377.286 239.12C378.151 239.12 378.851 238.42 378.851 237.555C378.851 236.691 378.151 235.99 377.286 235.99C376.422 235.99 375.721 236.691 375.721 237.555C375.721 238.42 376.422 239.12 377.286 239.12Z" fill="#FFA0A3"/>
<path opacity="0.4" d="M377.286 242.832C378.151 242.832 378.851 242.131 378.851 241.267C378.851 240.402 378.151 239.702 377.286 239.702C376.422 239.702 375.721 240.402 375.721 241.267C375.721 242.131 376.422 242.832 377.286 242.832Z" fill="#FFA0A3"/>
<path opacity="0.4" d="M380.818 241.043C381.682 241.043 382.383 240.342 382.383 239.478C382.383 238.614 381.682 237.913 380.818 237.913C379.954 237.913 379.253 238.614 379.253 239.478C379.253 240.342 379.954 241.043 380.818 241.043Z" fill="#FFA0A3"/>
<path opacity="0.4" d="M383.121 237.063C383.725 236.46 384.709 236.46 385.335 237.063C385.938 237.667 385.938 238.651 385.335 239.277C384.731 239.88 383.747 239.88 383.121 239.277C382.518 238.651 382.518 237.667 383.121 237.063Z" fill="#FFA0A3"/>
<path opacity="0.4" d="M386.319 238.673C386.923 238.069 387.907 238.069 388.533 238.673C389.136 239.277 389.136 240.26 388.533 240.886C387.929 241.49 386.945 241.49 386.319 240.886C385.716 240.26 385.716 239.277 386.319 238.673Z" fill="#FFA0A3"/>
<path opacity="0.4" d="M386.319 242.228C386.923 241.624 387.907 241.624 388.533 242.228C389.136 242.832 389.136 243.815 388.533 244.441C387.929 245.045 386.945 245.045 386.319 244.441C385.716 243.838 385.716 242.854 386.319 242.228Z" fill="#FFA0A3"/>
<path opacity="0.4" d="M381.668 234.403C382.451 234.76 382.808 235.677 382.473 236.46C382.115 237.242 381.199 237.6 380.416 237.265C379.634 236.907 379.276 235.99 379.611 235.208C379.969 234.425 380.886 234.067 381.668 234.403Z" fill="#FFA0A3"/>
<path opacity="0.4" d="M362.777 244.375C363.641 244.375 364.342 243.674 364.342 242.81C364.342 241.945 363.641 241.245 362.777 241.245C361.913 241.245 361.212 241.945 361.212 242.81C361.212 243.674 361.913 244.375 362.777 244.375Z" fill="#FFA0A3"/>
<path opacity="0.4" d="M360.295 238.695C361.159 238.695 361.86 237.995 361.86 237.13C361.86 236.266 361.159 235.565 360.295 235.565C359.431 235.565 358.73 236.266 358.73 237.13C358.73 237.995 359.431 238.695 360.295 238.695Z" fill="#FFA0A3"/>
<path opacity="0.4" d="M353.565 237.757C354.429 237.757 355.13 237.056 355.13 236.192C355.13 235.327 354.429 234.627 353.565 234.627C352.7 234.627 352 235.327 352 236.192C352 237.056 352.7 237.757 353.565 237.757Z" fill="#FFA0A3"/>
<path opacity="0.4" d="M356.471 243.793C357.336 243.793 358.036 243.092 358.036 242.228C358.036 241.364 357.336 240.663 356.471 240.663C355.607 240.663 354.906 241.364 354.906 242.228C354.906 243.092 355.607 243.793 356.471 243.793Z" fill="#FFA0A3"/>
<path opacity="0.4" d="M360.004 242.25C360.868 242.25 361.569 241.55 361.569 240.685C361.569 239.821 360.868 239.12 360.004 239.12C359.139 239.12 358.438 239.821 358.438 240.685C358.438 241.55 359.139 242.25 360.004 242.25Z" fill="#FFA0A3"/>
<path opacity="0.4" d="M364.542 236.996C365.406 236.996 366.107 236.296 366.107 235.431C366.107 234.567 365.406 233.866 364.542 233.866C363.677 233.866 362.977 234.567 362.977 235.431C362.977 236.296 363.677 236.996 364.542 236.996Z" fill="#FFA0A3"/>
<path opacity="0.4" d="M342.811 239.322C343.675 239.322 344.376 238.621 344.376 237.757C344.376 236.892 343.675 236.192 342.811 236.192C341.947 236.192 341.246 236.892 341.246 237.757C341.246 238.621 341.947 239.322 342.811 239.322Z" fill="#FFA0A3"/>
<path d="M396.492 184.232V185.171C390.724 184.456 387.46 188.681 385.09 191.811C384.129 193.063 383.368 194.07 382.608 194.494C380.015 195.948 375.588 195.59 373.106 192.706C372.123 191.566 371.631 190.179 371.184 188.972C370.557 187.228 369.999 185.708 368.255 185.238C367.293 184.97 366.712 186.133 365.751 188.212C364.432 191.074 362.598 194.986 357.881 195.322C357.612 195.344 357.344 195.344 357.076 195.344C350.369 195.344 345.964 189.33 343.013 185.283C342.7 184.858 342.409 184.478 342.141 184.098C341.85 183.696 341.537 183.494 341.224 183.494C340.218 183.45 338.765 185.104 337.245 186.848C334.875 189.553 331.924 192.907 328.1 193.421C323.003 194.092 320.633 191.096 318.531 188.435C317.503 187.139 316.519 185.909 315.334 185.216C313.859 184.389 311.757 186.177 309.32 188.279C306.235 190.94 302.725 193.958 298.678 193.354C293.96 192.661 293.29 189.822 292.731 187.541C292.395 186.177 292.149 185.082 291.166 184.635C289.154 183.696 288.237 184.881 286.806 187.072C286.471 187.564 286.135 188.1 285.755 188.592C283.721 191.275 279.92 192.683 273.034 193.287C267.154 193.801 261.318 191.811 259.418 191.074V190.09C260.759 190.627 266.93 192.907 272.944 192.37C279.562 191.789 283.162 190.492 285.017 188.033C285.375 187.564 285.71 187.049 286.023 186.557C287.343 184.545 288.706 182.466 291.546 183.785C292.932 184.433 293.267 185.842 293.625 187.318C294.162 189.531 294.698 191.834 298.812 192.437C302.456 192.974 305.788 190.09 308.716 187.564C311.422 185.238 313.747 183.249 315.781 184.411C317.145 185.171 318.174 186.49 319.247 187.854C321.281 190.448 323.383 193.108 327.966 192.505C331.454 192.035 334.271 188.838 336.552 186.244C338.385 184.165 339.816 182.533 341.269 182.578C341.873 182.6 342.432 182.936 342.901 183.562C343.169 183.942 343.482 184.322 343.773 184.746C346.724 188.771 351.173 194.874 357.836 194.405C362.017 194.114 363.627 190.627 364.946 187.809C365.929 185.685 366.779 183.852 368.545 184.344C370.759 184.97 371.429 186.848 372.1 188.659C372.525 189.844 372.972 191.096 373.844 192.102C376.013 194.629 379.925 194.964 382.183 193.689C382.787 193.354 383.525 192.393 384.374 191.253C386.7 188.145 390.255 183.517 396.492 184.232Z" fill="#7E9BEA"/>
<path d="M396.493 188.301V189.24C392.312 188.547 390.59 190.895 388.6 193.578C387.058 195.679 385.336 198.049 382.206 198.966C381.312 199.234 380.462 199.346 379.68 199.346C374.292 199.346 371.407 193.846 370.245 191.61C370.178 191.476 370.111 191.364 370.066 191.253C369.552 190.291 369.216 190.135 369.082 190.135C368.523 190.135 367.607 191.677 367.271 192.259C365.706 194.897 362.822 197.96 354.349 198.161C348.379 198.295 345.07 193.98 342.879 191.118C341.94 189.889 341.113 188.838 340.465 188.614C339.839 188.391 339.101 189.084 337.893 190.291C335.859 192.348 332.774 195.434 326.67 195.97C319.001 196.641 317.146 192.438 316.05 189.934C315.737 189.24 315.469 188.637 315.201 188.368C314.306 187.541 313.457 188.1 311.02 190.112C310.55 190.515 309.991 190.94 309.41 191.409C306.526 193.667 303.06 195.724 297.359 195.545C292.798 195.411 291.747 191.901 291.077 189.553C290.92 189.017 290.764 188.503 290.585 188.123C290.406 187.698 290.182 187.474 289.959 187.474C289.556 187.452 288.751 187.988 287.678 189.643C285.823 192.505 281.15 194.427 273.772 195.322C266.439 196.238 261.386 194.204 259.396 193.175V192.125C261.609 193.399 266.886 195.232 273.638 194.383C282.491 193.287 285.733 190.917 286.896 189.106C288.058 187.318 289.087 186.468 290.004 186.535C290.585 186.58 291.054 186.982 291.412 187.742C291.613 188.167 291.77 188.726 291.949 189.285C292.642 191.61 293.491 194.494 297.382 194.606C302.479 194.763 305.654 193.153 308.829 190.671C309.41 190.224 309.946 189.777 310.416 189.397C312.652 187.564 314.262 186.245 315.804 187.698C316.229 188.1 316.52 188.749 316.877 189.576C319.538 195.679 323.763 195.299 326.558 195.053C332.304 194.539 335.255 191.588 337.2 189.643C338.497 188.346 339.503 187.34 340.733 187.742C341.65 188.055 342.499 189.173 343.572 190.56C345.763 193.421 348.782 197.356 354.282 197.244C363.314 197.043 365.505 193.377 366.422 191.812C367.405 190.157 368.166 189.196 369.06 189.218C369.91 189.24 370.491 190.135 370.849 190.828C370.916 190.94 370.96 191.051 371.027 191.186C372.414 193.801 375.633 199.95 381.938 198.094C384.777 197.267 386.342 195.12 387.84 193.041C389.808 190.358 391.842 187.586 396.493 188.301Z" fill="#FF7A7E"/>
<path d="M336.238 224.454C336.238 224.342 335.657 213.096 333.734 209.072L334.36 208.781C336.35 212.917 336.909 223.962 336.931 224.431L336.238 224.454Z" fill="#FF7A7E"/>
<path d="M335.925 216.494L335.679 215.846C338.317 214.818 341.604 210.436 341.649 210.391L342.208 210.793C342.051 210.995 338.742 215.421 335.925 216.494Z" fill="#FF7A7E"/>
<path d="M343.772 212.716H339.837V213.409H343.772V212.716Z" fill="#FF7A7E"/>
<path d="M335.008 212.426C330.112 211.442 328.167 207.261 328.077 207.082L328.703 206.791C328.726 206.836 330.604 210.838 335.142 211.755L335.008 212.426Z" fill="#FF7A7E"/>
<path d="M331.162 210.078L330.492 209.944C331.073 206.926 330.894 204.846 330.894 204.824L331.587 204.757C331.565 204.846 331.766 206.948 331.162 210.078Z" fill="#FF7A7E"/>
<path d="M336.104 219.87C333.868 219.088 327.317 213.879 327.049 213.655L327.474 213.118C327.541 213.163 334.226 218.484 336.327 219.222L336.104 219.87Z" fill="#FF7A7E"/>
<path d="M329.91 215.757C329.597 214.057 328.077 210.927 328.077 210.905L328.703 210.614C328.77 210.748 330.268 213.856 330.604 215.645L329.91 215.757Z" fill="#FF7A7E"/>
<path d="M329.821 213.923L329.441 213.342C330.425 212.671 330.693 211.553 330.693 211.531L331.364 211.688C331.364 211.755 331.051 213.118 329.821 213.923Z" fill="#FF7A7E"/>
<path d="M334.83 210.592L334.361 210.101C335.479 209.005 335.456 207.596 335.456 207.574L336.149 207.552C336.149 207.641 336.172 209.296 334.83 210.592Z" fill="#FF7A7E"/>
<path d="M335.299 209.183C333.689 207.73 333.689 204.913 333.689 204.801H334.383C334.383 204.824 334.383 207.417 335.746 208.669L335.299 209.183Z" fill="#FF7A7E"/>
<path d="M340.419 212.269C339.793 211.24 340.062 208.893 340.084 208.624L340.777 208.714C340.71 209.362 340.598 211.218 341.023 211.911L340.419 212.269Z" fill="#FF7A7E"/>
<path d="M337.58 215.131C336.798 214.125 336.619 211.755 336.619 211.643L337.312 211.598C337.356 212.224 337.58 214.013 338.139 214.706L337.58 215.131Z" fill="#FF7A7E"/>
<path d="M342.543 213.23L341.961 212.872C342.587 211.866 343.526 211.129 343.549 211.106L343.974 211.643C343.974 211.643 343.102 212.336 342.543 213.23Z" fill="#FF7A7E"/>
<path d="M332.281 218.909C329.665 218.909 327.228 217.791 327.116 217.746L327.407 217.12C327.452 217.143 331.029 218.775 333.98 218.037L334.159 218.708C333.51 218.864 332.884 218.909 332.281 218.909Z" fill="#FF7A7E"/>
<path d="M371.586 227.271L370.916 227.136C370.938 227.025 373.196 215.98 372.346 211.62L373.017 211.486C373.911 216.002 371.698 226.824 371.586 227.271Z" fill="#FF7A7E"/>
<path d="M372.592 219.356L372.502 218.663C375.297 218.328 379.612 214.907 379.657 214.862L380.082 215.399C379.903 215.555 375.588 218.998 372.592 219.356Z" fill="#FF7A7E"/>
<path d="M377.362 216.676L377.188 217.347L380.997 218.333L381.171 217.662L377.362 216.676Z" fill="#FF7A7E"/>
<path d="M372.726 215.175C368.232 213.007 367.405 208.446 367.36 208.267L368.031 208.155L367.695 208.222L368.031 208.155C368.031 208.2 368.858 212.559 373.016 214.572L372.726 215.175Z" fill="#FF7A7E"/>
<path d="M369.596 211.933L368.97 211.643C370.289 208.848 370.625 206.814 370.625 206.791L371.295 206.903C371.295 206.992 370.96 209.072 369.596 211.933Z" fill="#FF7A7E"/>
<path d="M371.921 222.665C369.954 221.346 364.923 214.661 364.7 214.393L365.259 213.99C365.303 214.057 370.446 220.876 372.301 222.106L371.921 222.665Z" fill="#FF7A7E"/>
<path d="M367.651 217.187L366.958 217.143C367.092 215.399 366.399 212 366.399 211.978L367.07 211.844C367.114 211.978 367.785 215.376 367.651 217.187Z" fill="#FF7A7E"/>
<path d="M367.338 215.332L367.114 214.684C368.232 214.303 368.791 213.253 368.791 213.253L369.395 213.566C369.372 213.61 368.724 214.862 367.338 215.332Z" fill="#FF7A7E"/>
<path d="M373.017 213.365L372.681 212.761C374.045 211.978 374.38 210.615 374.38 210.592L375.051 210.749C375.029 210.838 374.649 212.448 373.017 213.365Z" fill="#FF7A7E"/>
<path d="M373.822 212.112C372.615 210.301 373.33 207.574 373.375 207.462L374.046 207.641C374.046 207.663 373.375 210.167 374.403 211.732L373.822 212.112Z" fill="#FF7A7E"/>
<path d="M378.002 216.383C377.667 215.242 378.494 213.029 378.583 212.783L379.232 213.029C378.986 213.633 378.427 215.399 378.673 216.204L378.002 216.383Z" fill="#FF7A7E"/>
<path d="M374.537 218.44C374.023 217.277 374.448 214.929 374.47 214.818L375.141 214.952C375.029 215.578 374.806 217.344 375.163 218.171L374.537 218.44Z" fill="#FF7A7E"/>
<path d="M379.814 217.858L379.344 217.367C380.216 216.562 381.289 216.07 381.334 216.047L381.602 216.674C381.602 216.674 380.596 217.121 379.814 217.858Z" fill="#FF7A7E"/>
<path d="M370.312 221.033C367.025 221.011 363.873 218.462 363.739 218.35L364.186 217.814C364.208 217.836 367.271 220.318 370.312 220.34V221.033Z" fill="#FF7A7E"/>
<path d="M396.515 160.377L396.492 160.533L396.47 160.69C396.269 160.645 375.208 156.621 347.216 160.064C339.972 160.958 333.489 161.294 327.72 161.294C316.653 161.294 308.202 160.064 301.875 159.147C299.214 158.767 296.934 158.432 294.877 158.231C286.068 157.403 263.308 159.505 259.418 159.997V159.684C261.542 159.416 268.048 158.834 273.213 158.454C280.278 157.94 289.78 157.448 294.899 157.918C296.956 158.119 299.259 158.454 301.92 158.834C311.533 160.243 326.088 162.367 347.194 159.751C374.783 156.353 395.62 160.198 396.515 160.377C396.515 160.377 396.492 160.377 396.515 160.377Z" fill="#FF9D5D"/>
<path d="M396.492 162.054L396.447 162.367C396.224 162.345 373.71 159.93 347.171 161.741C338.563 162.322 331.096 162.546 324.612 162.546C309.745 162.546 300.243 161.361 294.81 160.69C285.062 159.483 263.174 161.249 259.351 161.651V161.361C261.407 161.137 267.556 160.645 272.855 160.377C279.83 159.997 289.31 159.706 294.854 160.399C302.635 161.361 318.799 163.395 347.149 161.45C373.419 159.617 395.732 161.964 396.492 162.054Z" fill="#FF9D5D"/>
<path d="M396.514 164.715L396.469 165.028C396.246 164.983 373.083 161.16 347.193 164.402C339.927 165.318 333.421 165.654 327.63 165.654C316.63 165.654 308.202 164.402 301.874 163.485C299.214 163.082 296.889 162.747 294.832 162.568C286.023 161.741 263.263 163.843 259.373 164.334V163.999C261.497 163.731 268.003 163.15 273.167 162.769C280.232 162.255 289.734 161.763 294.854 162.233C296.933 162.434 299.236 162.769 301.919 163.172C311.533 164.58 326.088 166.727 347.148 164.089C372.703 160.891 395.597 164.558 396.469 164.715C396.492 164.692 396.514 164.715 396.514 164.715Z" fill="#FF9D5D"/>
<path d="M259.373 166.257C263.151 165.653 284.681 162.858 293.423 163.686C295.435 163.865 297.738 164.178 300.399 164.513C310.527 165.832 325.819 167.822 347.193 166.369C373.732 164.558 396.246 166.972 396.469 166.995L396.492 166.838L396.514 166.682C396.514 166.682 396.514 166.682 396.492 166.682C395.754 166.592 373.441 164.267 347.171 166.056C325.819 167.509 310.549 165.519 300.443 164.2C297.783 163.842 295.48 163.552 293.468 163.373C288.348 162.881 279.226 163.619 272.496 164.334C267.153 164.893 261.385 165.631 259.395 165.966V166.257H259.373Z" fill="#FF9D5D"/>
<path d="M354.505 218.842C352.202 218.842 350.145 217.635 350.301 216.114C355.868 167.375 339.346 136.41 339.346 136.41C340.844 137.371 358.686 163.753 358.686 216.07C358.686 217.59 356.852 218.842 354.527 218.842C354.527 218.842 354.527 218.842 354.505 218.842Z" fill="#0B3563"/>
<path d="M354.394 200.128C354.394 200.128 353.5 209.317 352.918 212.067C352.337 214.817 352.449 216.941 355.02 216.651C358.798 216.226 354.394 200.128 354.394 200.128Z" fill="#FFCCA9"/>
<path d="M313.948 218.842C311.645 218.842 309.588 217.635 309.744 216.114C315.311 167.375 298.789 136.41 298.789 136.41C300.287 137.371 318.128 163.753 318.128 216.07C318.128 217.59 316.295 218.842 313.97 218.842C313.97 218.842 313.97 218.842 313.948 218.842Z" fill="#0B3563"/>
<path d="M313.836 200.128C313.836 200.128 312.942 209.317 312.361 212.067C311.779 214.817 311.891 216.941 314.462 216.651C318.241 216.226 313.836 200.128 313.836 200.128Z" fill="#FFCCA9"/>
<path d="M239.587 89.2128C239.587 89.2128 235.115 73.0483 253.851 68.3085C272.587 63.5687 282.268 78.8613 283.453 89.2128C284.637 99.5644 276.142 118.322 257.764 116.176C239.363 114.052 239.587 89.2128 239.587 89.2128Z" fill="#052D52"/>
<path d="M274.889 79.5097C272.765 75.9772 274.017 70.9915 267.578 67.1683C263.621 64.8208 259.977 64.1501 255.304 64.5301C251.369 64.8431 248.552 66.4082 246.07 69.7171C244.192 72.2211 242.627 75.9996 242.605 76.0219L240.816 74.7252C240.839 74.6134 241.577 72.087 243.589 69.4264C246.249 65.8716 249.871 63.8147 254.097 63.4793C258.948 63.0992 263.778 64.0159 268.07 66.1846C272.206 68.2638 276.79 73.8532 279.025 77.5646L274.889 79.5097Z" fill="#052D52"/>
<path d="M278.914 203.975C265.768 199.861 235.183 197.29 232.165 197.111C220.024 196.395 205.716 199.279 194.179 204.064C193.62 204.31 167.35 210.235 154.226 225.281C150.872 229.127 145.976 239.859 145.976 256.582C145.976 256.582 319.203 256.426 322.288 256.291C312.607 226.824 306.727 212.694 278.914 203.975Z" fill="#FF64AE"/>
<path d="M176.36 104.081C177.009 103.298 178.283 103.365 179.311 103.03C179.311 103.03 178.864 100.928 178.998 97.7312C178.998 97.6195 178.998 97.5077 179.021 97.4182C179.311 91.8288 181.368 83.1988 190.378 76.7598C194.336 73.9204 199.657 71.5058 206.744 69.9855C227.179 65.5587 249.581 77.4529 257.272 84.4732C271.894 97.843 270.352 113.225 265.053 132.542C252.6 177.704 228.342 166.391 228.386 166.458C202.273 173.702 164.131 118.792 176.36 104.081Z" fill="#0B3563"/>
<path d="M174.616 97.3959C173.901 93.3939 172.85 84.585 178.998 78.3249C184.297 72.9367 193.173 69.8514 205.358 69.1806C224.742 68.1075 239.319 73.205 247.077 77.7436C256.601 83.333 261.14 90.2862 261.341 90.4427L256.579 88.7659C256.4 88.6094 241.957 68.1969 205.425 70.2091C193.598 70.8575 186.555 73.3839 181.48 78.5485C175.622 84.4956 176.695 90.6439 177.388 94.4671C177.433 94.6683 175.13 96.3674 175.13 96.4122L180.161 97.8654C180.161 97.8431 174.638 97.4853 174.616 97.3959Z" fill="#0B3563"/>
<path d="M214.39 219.245C196.169 219.535 195.185 213.119 194.38 206.255C194.045 203.416 193.821 198.497 193.598 192.617C193.508 190.158 193.397 187.519 193.285 184.792C193.084 179.538 192.659 174.127 192.301 169.902C191.899 165.296 191.541 162.121 191.541 162.121L228.409 153.357L230.6 152.843C231.583 181.706 240.258 194.584 241.197 199.481C243.187 209.765 226.352 219.066 214.39 219.245Z" fill="#FFE1CC"/>
<path d="M228.385 166.459C224.293 177.078 214.143 191.141 193.597 192.617C193.507 190.158 193.395 187.519 193.284 184.792C193.082 179.538 192.658 174.127 192.3 169.902L228.385 166.459Z" fill="#FFCCA9"/>
<path d="M171.24 173.434C171.24 173.434 215.776 194.383 228.385 166.436C240.995 138.489 255.237 122.392 227.335 107.837C199.432 93.282 189.058 101.443 182.575 109.737C176.113 118.032 159.971 167.286 171.24 173.434Z" fill="#FFE1CC"/>
<path d="M225.48 132.005C224.295 119.932 215.016 110.251 202.988 108.642C196.862 107.814 189.618 107.166 182.575 107.3C170.703 107.501 169.474 82.908 195.945 74.6133C222.752 66.1845 246.965 81.3876 257.451 88.9892C274.778 101.554 246.071 160.265 244.26 160.556C242.449 160.846 231.605 165.519 231.605 165.519C231.605 165.519 229.973 155.414 231.807 154.184C240.124 148.55 242.985 132.587 229.772 138.735C226.955 140.009 225.882 136.186 225.48 132.005Z" fill="#0B3563"/>
<path d="M172.492 162.054C172.492 161.361 173.051 160.802 173.744 160.802C174.437 160.802 174.996 161.361 174.996 162.054C174.996 162.747 174.437 163.306 173.744 163.306C173.051 163.306 172.492 162.747 172.492 162.054Z" fill="#FF8463"/>
<path d="M176.673 158.655C176.673 157.962 177.232 157.403 177.925 157.403C178.618 157.403 179.177 157.962 179.177 158.655C179.177 159.348 178.618 159.907 177.925 159.907C177.232 159.907 176.673 159.348 176.673 158.655Z" fill="#FF8463"/>
<path d="M180.787 160.042C180.787 159.348 181.346 158.79 182.039 158.79C182.732 158.79 183.291 159.348 183.291 160.042C183.291 160.735 182.732 161.294 182.039 161.294C181.346 161.294 180.787 160.735 180.787 160.042Z" fill="#FF8463"/>
<path d="M176.986 163.015C176.986 162.322 177.545 161.763 178.238 161.763C178.931 161.763 179.49 162.322 179.49 163.015C179.49 163.708 178.931 164.267 178.238 164.267C177.545 164.245 176.986 163.708 176.986 163.015Z" fill="#FF8463"/>
<path d="M177.589 167.688C178.281 167.688 178.841 167.127 178.841 166.436C178.841 165.744 178.281 165.184 177.589 165.184C176.898 165.184 176.337 165.744 176.337 166.436C176.337 167.127 176.898 167.688 177.589 167.688Z" fill="#FF8463"/>
<path d="M182.708 165.497C182.708 164.804 183.267 164.245 183.961 164.245C184.654 164.245 185.213 164.804 185.213 165.497C185.213 166.19 184.654 166.749 183.961 166.749C183.267 166.749 182.708 166.19 182.708 165.497Z" fill="#FF8463"/>
<path d="M207.168 146.962C207.168 146.269 207.727 145.71 208.42 145.71C209.113 145.71 209.672 146.269 209.672 146.962C209.672 147.656 209.113 148.215 208.42 148.215C207.727 148.192 207.168 147.633 207.168 146.962Z" fill="#FF8463"/>
<path d="M211.349 143.542C211.349 142.848 211.908 142.29 212.601 142.29C213.294 142.29 213.853 142.848 213.853 143.542C213.853 144.235 213.294 144.794 212.601 144.794C211.908 144.794 211.349 144.235 211.349 143.542Z" fill="#FF8463"/>
<path d="M215.463 144.928C215.463 144.235 216.022 143.676 216.715 143.676C217.408 143.676 217.967 144.235 217.967 144.928C217.967 145.621 217.408 146.18 216.715 146.18C216.022 146.18 215.463 145.621 215.463 144.928Z" fill="#FF8463"/>
<path d="M211.685 147.902C211.685 147.208 212.244 146.65 212.937 146.65C213.63 146.65 214.189 147.208 214.189 147.902C214.189 148.595 213.63 149.154 212.937 149.154C212.244 149.154 211.685 148.595 211.685 147.902Z" fill="#FF8463"/>
<path d="M211.036 151.322C211.036 150.629 211.595 150.07 212.288 150.07C212.981 150.07 213.54 150.629 213.54 151.322C213.54 152.015 212.981 152.574 212.288 152.574C211.595 152.574 211.036 152.015 211.036 151.322Z" fill="#FF8463"/>
<path d="M217.407 150.383C217.407 149.69 217.966 149.131 218.659 149.131C219.352 149.131 219.911 149.69 219.911 150.383C219.911 151.076 219.352 151.635 218.659 151.635C217.966 151.635 217.407 151.076 217.407 150.383Z" fill="#FF8463"/>
<path d="M145.192 149.958C145.192 149.958 145.662 148.885 145.975 148.371C146.288 147.857 147.607 146.381 147.831 146.716C148.054 147.052 148.948 149.31 148.479 149.958C148.009 150.607 148.501 151.702 146.131 152.373L145.192 149.958Z" fill="#FFAE73"/>
<path d="M118.833 143.184C118.833 143.184 130.974 153.312 135.713 152.373C139.425 151.635 145.104 149.69 145.104 149.69L146.244 152.596C146.244 152.596 141.146 159.505 135.825 159.55C127.531 159.617 121.382 155.95 121.382 155.95L118.833 143.184Z" fill="#83B7C9"/>
<path d="M97.5269 250.098C97.5269 250.098 97.8846 255.777 98.9801 255.866C99.1366 255.866 104.569 255.866 104.569 255.866L111.5 255.822C111.5 255.822 111.456 254.145 109.421 253.787C107.387 253.429 104.011 251.998 102.781 249.338C101.484 246.543 97.5269 250.098 97.5269 250.098Z" fill="#282828"/>
<path d="M97.1461 250.5C97.1461 250.5 99.2477 251.216 100.902 251.216C102.735 251.216 104.412 250.724 104.412 250.724C104.412 250.724 104.815 246.878 106.983 238.427C108.124 234 109.756 228.299 112.081 221.212C118.52 201.627 120.465 190.179 120.644 189.106C120.644 189.039 120.666 189.017 120.666 189.017H120.644L100.857 180.342C100.857 180.342 103.294 207.328 100.187 217.679C99.7396 219.133 99.3818 220.809 99.0465 222.643C97.1014 233.844 97.1461 250.5 97.1461 250.5Z" fill="#282828"/>
<path d="M106.984 238.405C108.124 233.978 109.756 228.277 112.081 221.189C118.52 201.604 120.465 190.157 120.644 189.084C120.644 189.062 120.644 189.017 120.644 188.994L100.858 180.32C100.858 180.32 103.295 207.305 100.187 217.657C99.7622 219.065 106.984 238.405 106.984 238.405Z" fill="#282828"/>
<path d="M112.976 250.098C112.976 250.098 113.333 255.777 114.429 255.866C114.585 255.866 120.018 255.866 120.018 255.866L126.949 255.822C126.949 255.822 126.904 254.145 124.87 253.787C122.835 253.429 119.459 251.998 118.23 249.338C116.933 246.543 112.976 250.098 112.976 250.098Z" fill="#3D3D3D"/>
<path d="M124.199 180.923C124.199 180.923 124.445 198.407 121.427 219.87C118.409 241.334 119.437 250.455 119.437 250.455C119.437 250.455 117.358 251.126 116.531 251.193C114.384 251.372 112.193 250.701 112.193 250.701C112.193 250.701 107.856 229.216 109.108 218.484C110.36 207.73 103.183 181.616 103.183 181.616L124.199 180.923Z" fill="#3D3D3D"/>
<path d="M118.163 137.259C118.052 139.025 117.783 141.217 117.112 142.536H114.05L110.182 140.009C110.182 140.009 111.635 137.259 111.255 133.19C111.232 132.967 111.098 131.402 111.076 131.357L113.021 132.206L118.23 134.509C118.23 134.532 118.275 135.717 118.163 137.259Z" fill="#FFE1CC"/>
<path d="M125.362 181.684C125.272 190.917 124.669 212.492 124.222 212.939C119.415 217.59 98.2644 211.665 97.1465 206.545C96.0286 201.425 101.417 141.015 109.622 138.6C111.321 138.109 120.443 141.037 120.443 141.037C120.443 141.037 121.874 144.771 122.813 149.533C123.171 151.3 124.289 163.887 124.959 172.293C125.138 174.529 125.272 176.474 125.362 177.838C125.362 178.419 125.362 179.783 125.362 181.684Z" fill="#A9CFE0"/>
<path d="M118.163 137.259C116.151 136.521 112.663 135.001 111.634 133.279C111.165 132.474 111.858 132.228 113.021 132.251L118.23 134.554C118.23 134.531 118.275 135.716 118.163 137.259Z" fill="#FFCCA9"/>
<path d="M120.198 134.196C120.198 134.196 111.814 136.812 110.249 131.558C108.706 126.304 106.582 123.107 111.859 121.207C117.158 119.306 118.79 121.005 119.729 122.637C120.69 124.292 122.344 133.391 120.198 134.196Z" fill="#FFE1CC"/>
<path d="M119.416 122.145C119.416 122.145 118.611 128.83 117.627 127.981C115.749 126.416 114.586 126.416 115.257 128.964C115.727 130.753 112.865 133.861 111.322 134.151C107.477 134.889 103.944 123.912 105.017 122.011C108.103 116.556 123.887 115.46 119.416 122.145Z" fill="#0B3563"/>
<path d="M118.185 138.734C118.073 138.69 111.947 135.94 111.209 136.163C110.494 136.409 109.6 138.6 109.6 138.6L120.421 141.037C120.421 141.037 119.571 139.316 118.185 138.734Z" fill="#83B7C9"/>
<g opacity="0.2">
<path opacity="0.2" d="M192.971 165.922C189.393 169.723 184.944 172.182 180.249 173.3C172.156 175.223 163.28 173.166 156.774 167.04C146.467 157.337 145.975 141.127 155.678 130.843C161.804 124.337 170.524 121.743 178.729 123.152C183.513 123.979 188.097 126.17 191.898 129.725C202.16 139.406 202.652 155.615 192.971 165.922Z" fill="#ACCEFC"/>
</g>
<path d="M154.986 167.733L123.887 200.8C123.283 201.448 122.523 201.739 122.232 201.448L121.271 200.532C120.958 200.241 121.204 199.481 121.83 198.832L152.907 165.788C153.511 165.14 154.271 164.849 154.561 165.139L155.523 166.056C155.836 166.324 155.59 167.085 154.986 167.733Z" fill="#0B4D87"/>
<path d="M138.128 185.641L123.909 200.755C123.283 201.426 122.5 201.739 122.21 201.47L121.248 200.554C120.935 200.263 121.204 199.48 121.852 198.81L136.071 183.696L138.128 185.641Z" fill="#062538"/>
<path d="M193.217 129.144C193.083 129.009 192.926 128.875 192.792 128.741C181.949 118.524 164.868 119.06 154.673 129.904C147.809 137.192 145.797 147.32 148.524 156.263C149.843 160.623 152.303 164.692 155.835 168.046C166.679 178.263 183.76 177.727 193.977 166.883C204.038 156.151 203.658 139.383 193.217 129.144ZM192.882 165.855C189.327 169.633 184.9 172.07 180.205 173.188C172.156 175.088 163.325 173.054 156.841 166.95C146.579 157.292 146.087 141.172 155.746 130.91C161.849 124.426 170.524 121.855 178.685 123.263C183.447 124.091 188.008 126.259 191.786 129.814C202.026 139.45 202.518 155.593 192.882 165.855Z" fill="#0B3563"/>
<path d="M125.362 181.683C105.308 168.09 106.94 149.422 106.94 149.422C114.765 153.826 122.523 164.289 124.938 172.316C125.116 174.551 125.251 176.497 125.34 177.86C125.362 178.419 125.362 179.783 125.362 181.683Z" fill="#98C7D3"/>
<path d="M143.025 174.797C144.367 174.484 145.261 173.478 145.44 173.299C145.44 173.299 146.021 173.344 145.35 174.551C145.306 174.663 145.171 174.909 145.082 175.11C145.037 175.177 145.104 175.267 145.171 175.289C145.954 175.356 146.714 175.043 148.212 175.356C148.413 175.401 148.48 175.893 148.458 176.094C148.436 176.452 148.48 176.854 148.056 177.391C147.81 177.704 147.139 178.039 145.663 178.643C145.104 178.866 143.472 178.71 141.952 178.173L140.745 177.614L141.147 175.356L141.46 175.423C141.93 175.513 142.533 174.932 143.025 174.797Z" fill="#FFAE73"/>
<path d="M112.82 141.038C112.82 141.038 95.7832 144.279 117.828 168.962C121.36 172.919 140.409 178.039 140.409 178.039C140.409 178.039 142.332 176.385 141.37 175.066C141.37 175.066 128.246 165.541 125.362 164.021C124.066 163.35 120.332 148.818 118.208 145.308C116.084 141.82 112.82 141.038 112.82 141.038Z" fill="#83B7C9"/>
<path d="M145.663 150.249C145.663 150.249 146.222 149.176 146.333 148.617C146.445 148.058 147.138 146.426 147.429 146.135C147.541 146.023 147.921 146.18 147.965 146.672C147.988 146.895 147.876 147.275 147.697 147.745C147.384 148.505 147.451 149.534 147.339 149.891C147.071 150.741 145.663 150.249 145.663 150.249Z" fill="#FFAE73"/>
<path d="M240.346 232.122C242.067 232.815 248.193 232.257 248.395 231.765C248.596 231.273 244.594 226.6 242.872 225.907C241.151 225.214 239.206 226.041 238.512 227.763C237.797 229.484 238.624 231.429 240.346 232.122Z" fill="#9BD399"/>
<path d="M255.794 235.051C254.833 236.639 254.386 242.765 254.855 243.055C255.302 243.324 260.556 240.126 261.518 238.539C262.479 236.952 261.987 234.895 260.4 233.933C258.835 232.972 256.756 233.464 255.794 235.051Z" fill="#9BD399"/>
<path d="M247.545 247.08C249.311 247.639 255.37 246.61 255.549 246.118C255.706 245.604 251.346 241.267 249.602 240.708C247.836 240.149 245.958 241.11 245.399 242.876C244.795 244.62 245.779 246.498 247.545 247.08Z" fill="#9BD399"/>
<path d="M256.466 253.004C256.466 252.87 255.772 238.964 248.171 231.787L248.327 231.608C255.996 238.852 256.689 252.848 256.689 252.982L256.466 253.004Z" fill="#9BD399"/>
<path d="M281.865 232.436C280.792 233.151 276.566 233.621 276.365 233.307C276.164 232.994 278.243 229.283 279.316 228.568C280.39 227.852 281.82 228.143 282.536 229.216C283.229 230.289 282.938 231.72 281.865 232.436Z" fill="#9BD399"/>
<path d="M271.782 236.55C272.653 237.489 273.794 241.602 273.525 241.848C273.257 242.094 269.255 240.641 268.361 239.702C267.489 238.763 267.534 237.287 268.473 236.415C269.434 235.566 270.91 235.611 271.782 236.55Z" fill="#9BD399"/>
<path d="M279.048 243.57C277.93 244.196 273.66 244.33 273.481 244.017C273.302 243.704 275.65 240.149 276.767 239.523C277.885 238.897 279.294 239.299 279.92 240.417C280.568 241.535 280.166 242.944 279.048 243.57Z" fill="#9BD399"/>
<path d="M273.816 248.846C273.793 248.757 272.34 239.232 276.521 233.307L276.387 233.218C272.184 239.187 273.659 248.801 273.659 248.891L273.816 248.846Z" fill="#9BD399"/>
<path d="M266.282 252.2L265.79 252.132C263.89 227.472 256.355 209.765 256.244 209.519L256.691 209.318C256.803 209.564 264.382 227.383 266.282 252.2Z" fill="#9BD399"/>
<path d="M251.123 207.037C252.062 208.088 256.4 209.787 256.713 209.519C257.003 209.25 255.863 204.734 254.946 203.683C254.007 202.633 252.42 202.521 251.369 203.46C250.296 204.376 250.206 205.986 251.123 207.037Z" fill="white"/>
<path d="M257.808 203.37C256.958 204.488 256.198 209.094 256.534 209.34C256.847 209.586 261.05 207.529 261.9 206.411C262.749 205.293 262.503 203.684 261.385 202.856C260.223 202.007 258.635 202.23 257.808 203.37Z" fill="white"/>
<path d="M262.794 208.267C261.43 207.887 256.869 208.871 256.78 209.251C256.668 209.631 260.111 212.783 261.475 213.163C262.839 213.543 264.225 212.739 264.605 211.375C264.963 210.033 264.158 208.625 262.794 208.267Z" fill="white"/>
<path d="M259.731 214.37C259.597 212.984 257.07 209.049 256.668 209.094C256.265 209.139 254.544 213.476 254.678 214.862C254.812 216.248 256.064 217.277 257.45 217.143C258.836 217.009 259.865 215.757 259.731 214.37Z" fill="white"/>
<path d="M252.8 214.058C254.052 213.409 256.713 209.586 256.534 209.229C256.355 208.871 251.682 208.916 250.43 209.564C249.178 210.212 248.709 211.755 249.357 213.007C250.028 214.237 251.548 214.706 252.8 214.058Z" fill="white"/>
<path d="M255.707 209.094C255.774 208.647 256.199 208.334 256.668 208.401C257.115 208.468 257.428 208.893 257.361 209.363C257.294 209.81 256.869 210.123 256.4 210.056C255.953 209.989 255.64 209.564 255.707 209.094Z" fill="#0B3563"/>
<path d="M266.126 226.98C264.74 228.679 263.264 235.812 263.734 236.192C264.226 236.594 270.888 233.665 272.275 231.966C273.661 230.267 273.392 227.763 271.693 226.399C270.016 225.035 267.512 225.281 266.126 226.98Z" fill="#9BD399"/>
<path d="M238.805 254.726H238.469C235.049 238.517 228.476 227.427 228.386 227.293L228.655 227.137C228.766 227.271 235.362 238.427 238.805 254.726Z" fill="#9BD399"/>
<path d="M224.785 226.086C225.501 226.712 228.519 227.45 228.698 227.249C228.877 227.047 227.714 224.141 227.021 223.515C226.306 222.889 225.233 222.978 224.629 223.671C224.003 224.387 224.07 225.46 224.785 226.086Z" fill="white"/>
<path d="M228.877 223.068C228.43 223.895 228.318 227.002 228.542 227.137C228.766 227.271 231.381 225.549 231.829 224.722C232.276 223.895 231.985 222.866 231.18 222.397C230.375 221.95 229.347 222.24 228.877 223.068Z" fill="white"/>
<path d="M232.633 225.862C231.694 225.728 228.765 226.779 228.72 227.047C228.676 227.316 231.247 229.104 232.186 229.238C233.125 229.372 233.974 228.702 234.108 227.785C234.22 226.846 233.572 225.996 232.633 225.862Z" fill="white"/>
<path d="M231.136 230.199C230.935 229.283 228.9 226.913 228.632 226.958C228.364 227.025 227.604 230.043 227.805 230.96C228.006 231.876 228.923 232.435 229.84 232.234C230.779 232.033 231.337 231.116 231.136 230.199Z" fill="white"/>
<path d="M226.507 230.602C227.267 230.065 228.721 227.293 228.564 227.069C228.408 226.846 225.322 227.27 224.54 227.829C223.78 228.366 223.601 229.439 224.137 230.199C224.674 230.959 225.747 231.138 226.507 230.602Z" fill="white"/>
<path d="M228.005 227.047C228.005 226.734 228.274 226.488 228.587 226.51C228.9 226.51 229.146 226.779 229.123 227.092C229.123 227.405 228.855 227.651 228.542 227.628C228.229 227.628 227.983 227.36 228.005 227.047Z" fill="#0B3563"/>
<path d="M236.502 238.002C235.742 239.254 235.362 244.106 235.72 244.33C236.077 244.553 240.258 242.027 241.018 240.775C241.779 239.523 241.398 237.891 240.146 237.13C238.894 236.37 237.262 236.75 236.502 238.002Z" fill="#9BD399"/>
<path d="M291.143 252.58L291.568 252.512C293.267 230.535 299.974 214.773 300.064 214.572L299.661 214.393C299.572 214.616 292.82 230.49 291.143 252.58Z" fill="#9BD399"/>
<path d="M304.625 212.358C303.798 213.297 299.93 214.795 299.662 214.572C299.394 214.326 300.4 210.301 301.227 209.362C302.054 208.423 303.485 208.334 304.424 209.161C305.363 209.988 305.453 211.419 304.625 212.358Z" fill="white"/>
<path d="M298.678 209.094C299.416 210.1 300.109 214.191 299.819 214.415C299.528 214.639 295.794 212.805 295.057 211.799C294.319 210.793 294.52 209.385 295.526 208.624C296.51 207.887 297.941 208.088 298.678 209.094Z" fill="white"/>
<path d="M294.229 213.454C295.436 213.118 299.506 213.99 299.595 214.348C299.684 214.683 296.621 217.5 295.414 217.836C294.207 218.171 292.955 217.456 292.642 216.248C292.306 215.019 293.022 213.767 294.229 213.454Z" fill="white"/>
<path d="M296.978 218.887C297.09 217.635 299.348 214.147 299.706 214.192C300.064 214.237 301.606 218.082 301.472 219.334C301.36 220.586 300.243 221.48 298.991 221.369C297.761 221.234 296.844 220.139 296.978 218.887Z" fill="white"/>
<path d="M303.127 218.618C302.009 218.037 299.639 214.638 299.796 214.325C299.952 214.012 304.111 214.035 305.229 214.616C306.347 215.197 306.772 216.561 306.19 217.679C305.609 218.775 304.245 219.199 303.127 218.618Z" fill="white"/>
<path d="M300.556 214.191C300.489 213.789 300.109 213.498 299.706 213.565C299.304 213.632 299.013 214.012 299.08 214.415C299.148 214.817 299.528 215.108 299.93 215.041C300.332 214.996 300.623 214.594 300.556 214.191Z" fill="#0B3563"/>
<path d="M290.137 236.013C291.367 237.533 292.686 243.883 292.261 244.218C291.836 244.576 285.889 241.982 284.659 240.462C283.43 238.942 283.653 236.728 285.174 235.499C286.672 234.269 288.907 234.492 290.137 236.013Z" fill="#9BD399"/>
<path d="M221.432 256.425C221.432 256.425 223.869 250.008 232.722 249.606C241.576 249.203 247.657 254.435 254.968 252.021C262.279 249.606 274.374 244.151 285.821 247.795C297.269 251.417 299.191 256.425 299.191 256.425H221.432Z" fill="#9BD399"/>
</svg>
