<svg width="475" height="314" viewBox="0 0 475 314" fill="none" xmlns="http://www.w3.org/2000/svg">
<rect width="475" height="314" fill="white"/>
<path fill-rule="evenodd" clip-rule="evenodd" d="M414.341 163.816C411.056 210.253 387.086 253.781 349.816 281.586C316.761 306.246 273.284 303.584 232.257 299.657C196.234 296.209 162.555 284.78 135.201 261.046C105.381 235.173 73.3753 203.268 75.6977 163.816C77.9677 125.254 143.906 132.916 172.5 107C198.84 83.1275 197.5 40.5603 232.257 21.9214C275 -0.999968 330.651 -0.826506 367.748 28.0823C406.936 58.6212 417.85 114.202 414.341 163.816Z" fill="#F5F6FF"/>
<path d="M160.961 197.697H366.309C377.59 197.697 386.832 188.455 386.832 177.174V112.902H160.961C149.68 112.902 140.438 122.144 140.438 133.425V177.195C140.438 188.455 149.68 197.697 160.961 197.697Z" fill="#D5D6DA"/>
<path d="M128.996 192.45H371.193C379.608 192.45 386.489 199.332 386.489 207.747V216.363C386.489 239.651 367.44 258.721 344.132 258.721H128.996C120.581 258.721 113.7 251.839 113.7 243.424V207.767C113.7 199.332 120.581 192.45 128.996 192.45Z" fill="#D5D6DA"/>
<path d="M207.273 258.014C198.859 258.014 191.977 251.133 191.977 242.718V207.061C191.977 200.24 196.518 194.408 202.713 192.45H128.996C120.581 192.45 113.7 199.332 113.7 207.747V243.404C113.7 251.819 120.581 258.7 128.996 258.7H344.152C346.756 258.7 349.318 258.458 351.801 257.994H207.273V258.014Z" fill="#B8C1C9"/>
<path d="M354.806 193.661H372.746V125.191C372.746 118.431 378.275 112.902 385.036 112.902H386.731C387.155 112.902 387.477 113.245 387.477 113.649V194.832V210.33V258.721H334.344C333.699 258.721 333.174 258.196 333.174 257.55V215.274C333.194 203.388 342.921 193.661 354.806 193.661Z" fill="#657285"/>
<path d="M333.315 113.467C333.315 113.467 350.448 111.832 356.381 121.68C362.313 131.528 356.381 168.618 361.405 175.177C366.43 181.755 372.363 185.731 372.141 193.48L335.313 193.883C335.313 193.883 302.925 195.054 303.167 212.307C303.409 229.561 303.167 259.407 303.167 259.407H284.622C284.622 259.407 276.065 183.935 294.833 179.434C335.959 169.587 333.315 113.467 333.315 113.467Z" fill="#B8C1C9"/>
<path d="M273.502 146.098C273.502 146.098 269.366 143.515 267.549 143.898C265.753 144.282 260.83 145.694 260.668 147.732C260.507 149.77 267.711 152.979 273.018 151.183C278.346 149.387 273.502 146.098 273.502 146.098Z" fill="#FFD0C5"/>
<path d="M295.479 254.301C295.479 255.209 295.035 255.835 294.268 256.258C294.268 256.258 294.268 256.258 294.248 256.258C292.835 257.025 290.595 256.44 287.891 256.319C287.548 256.299 283.976 257.832 278.911 258.276C273.14 258.761 271.001 257.005 270.658 256.198C270.375 255.512 272.857 254.745 275.622 253.857C275.763 253.817 275.884 253.776 276.026 253.736C276.389 253.615 276.772 253.494 277.135 253.373C280.425 252.283 283.674 250.971 284.481 247.642C285.349 244.11 282.766 234.222 282.766 234.222L291.927 233.233C291.927 233.233 292.815 243.565 293.38 246.774C293.683 248.489 294.47 249.861 294.934 251.335C294.974 251.435 294.994 251.536 295.035 251.637C295.257 252.505 295.479 253.393 295.479 254.301Z" fill="#FF9783"/>
<path d="M177.628 192.451H318.644L184.187 186.397L157.873 193.46L177.628 192.451Z" fill="#B8C1C9"/>
<path d="M295.479 254.301C295.479 255.209 295.035 255.835 294.268 256.259C294.268 256.259 294.268 256.259 294.248 256.259C292.21 257.57 288.578 255.754 282.665 258.478C282.403 258.6 280.425 258.458 279.053 258.438C277.257 258.418 274.674 258.579 274.068 258.478C271.284 258.035 270.86 256.662 270.678 256.198C270.396 255.512 272.878 254.745 275.642 253.857C276.409 254.16 280.122 255.452 284.501 254.604C288.356 253.878 292.19 251.96 294.934 251.315C294.975 251.416 294.995 251.517 295.035 251.617C295.257 252.505 295.479 253.393 295.479 254.301Z" fill="#131F2D"/>
<path d="M294.571 255.916L293.219 258.438H290.273V256.602L294.571 255.916Z" fill="#131F2D"/>
<path d="M342.779 166.277L313.155 163.452C313.155 163.452 267.811 163.654 263.594 169.647C263.594 169.647 255.502 175.257 264.643 198.464C273.805 221.671 284.54 244.837 284.54 244.837C284.54 244.837 287.285 245.584 291.038 245.301C292.511 245.18 294.529 244.675 294.529 244.675C294.529 244.675 292.471 210.067 287.89 196.587C283.309 183.127 281.897 185.731 290.009 186.477C298.101 187.224 324.153 193.217 336.12 191.724C348.046 190.231 342.779 166.277 342.779 166.277Z" fill="#131F2D"/>
<path d="M180.132 254.301C180.132 255.209 180.576 255.835 181.343 256.258C181.343 256.258 181.343 256.258 181.363 256.258C182.775 257.025 185.257 257.106 187.941 257.005C188.284 256.985 188.587 256.985 188.87 256.985C188.95 256.985 189.011 256.985 189.092 256.985C189.152 256.985 189.213 256.985 189.253 256.985C191.917 257.045 191.634 257.853 196.699 258.276C202.471 258.761 204.61 257.005 204.953 256.198C205.235 255.512 202.753 254.745 199.989 253.857C199.847 253.817 199.726 253.776 199.585 253.736C199.222 253.615 198.838 253.494 198.475 253.373C195.186 252.283 191.937 250.971 191.13 247.642C190.262 244.11 192.845 234.222 192.845 234.222L183.683 233.233C183.683 233.233 182.796 243.565 182.231 246.774C181.928 248.489 181.141 249.861 180.677 251.335C180.636 251.435 180.616 251.536 180.576 251.637C180.374 252.505 180.132 253.393 180.132 254.301Z" fill="#FF7955"/>
<path d="M180.132 254.301C180.132 255.209 180.576 255.835 181.343 256.259C181.343 256.259 181.343 256.259 181.363 256.259C182.856 256.945 185.298 257.046 187.941 256.985C188.284 256.985 188.587 256.965 188.87 256.985C188.95 256.985 189.011 256.985 189.092 256.985C189.152 256.985 189.213 256.985 189.253 256.985C191.917 257.046 191.634 257.853 196.699 258.277C202.471 258.761 204.61 257.005 204.953 256.198C205.235 255.512 202.753 254.745 199.989 253.857C199.222 254.16 195.509 255.452 191.13 254.604C187.275 253.878 183.441 251.96 180.697 251.315C180.657 251.416 180.636 251.517 180.596 251.617C180.374 252.505 180.132 253.393 180.132 254.301Z" fill="#131F2D"/>
<path d="M301.189 254.301C301.189 255.209 300.745 255.835 299.978 256.258C299.978 256.258 299.978 256.258 299.958 256.258C298.546 257.025 296.245 255.33 285.691 257.832C280.041 259.164 276.711 257.005 276.368 256.198C276.086 255.512 278.568 254.745 281.332 253.857C281.474 253.817 281.595 253.776 281.736 253.736C282.099 253.615 282.483 253.494 282.846 253.373C286.135 252.283 289.384 250.971 290.191 247.642C291.059 244.11 288.476 234.222 288.476 234.222L297.638 233.233C297.638 233.233 298.525 243.565 299.091 246.774C299.393 248.489 300.18 249.861 300.644 251.335C300.685 251.435 300.705 251.536 300.745 251.637C300.967 252.505 301.189 253.393 301.189 254.301Z" fill="#FFD0C5"/>
<path d="M239.521 242.637C240.025 245.18 243.657 244.756 247.693 243.768C251.75 242.779 250.781 243.949 256.532 243.324C262.283 242.678 264.039 240.539 264.221 239.691C264.382 238.924 261.537 238.662 258.469 238.319C258.086 238.279 257.703 238.238 257.319 238.178C253.868 237.754 251.346 235.514 248.218 233.698C245.252 231.962 240.832 224.92 240.832 224.92L232.922 225.545C232.922 225.545 237.059 231.841 238.673 234.586C239.622 236.2 239.561 238.319 239.44 239.974C239.4 240.821 239.359 241.729 239.521 242.637Z" fill="#FFD0C5"/>
<path d="M247.714 243.747C251.77 242.758 250.801 243.929 256.553 243.303C262.304 242.658 264.06 240.518 264.241 239.671C264.403 238.904 261.557 238.642 258.49 238.299L258.47 238.339C258.47 238.339 255.019 240.781 250.216 240.902C246.301 241.003 242.165 239.873 239.46 239.913C239.4 240.801 239.339 241.729 239.521 242.617C240.046 245.18 243.658 244.736 247.714 243.747Z" fill="#131F2D"/>
<path d="M221.944 126.584C221.944 126.584 223.821 121.963 225.9 121.781C227.978 121.6 234.557 120.55 235.021 121.499C235.485 122.447 235.021 125.837 233.608 127.048C232.196 128.279 223.438 130.257 223.438 130.257L221.944 126.584Z" fill="#FFD0C5"/>
<path d="M209.251 192.107L192.219 237.936C192.219 237.936 189.596 238.198 187.093 237.471C184.793 236.806 182.149 235.05 182.149 235.05C182.149 235.05 186.367 191.058 194.116 181.897C201.865 172.755 209.251 192.107 209.251 192.107Z" fill="#131F2D"/>
<path d="M194.782 172.937C194.782 172.937 186.326 162.201 188.344 146.885C188.99 142.062 192.118 137.925 196.557 135.927H199.544L199.423 135.665C196.739 129.833 197.022 123.093 200.069 117.422C200.089 117.402 200.089 117.362 200.109 117.342C201.219 115.162 202.087 112.902 204.549 112.902H170.606L168.709 170.777L194.782 172.937Z" fill="#B8C1C9"/>
<path d="M136.463 171.383C139.954 172.775 143.809 172.916 147.4 171.766C160.477 167.589 193.087 157.741 201.765 160.526C212.682 164.037 245.433 229.238 245.433 229.238C245.433 229.238 244.687 230.227 242.669 230.973C240.792 231.68 236.252 231.639 236.252 231.639C236.252 231.639 206.688 206.294 203.157 198.908C199.646 191.522 198.233 184.479 194.702 185.186C191.19 185.892 149.297 202.439 139.793 192.571C130.288 182.724 132.77 169.91 132.77 169.91L136.463 171.383Z" fill="#364154"/>
<path d="M171.797 96.617C172.584 95.0027 173.452 92.1371 173.876 87.0317C173.815 87.5362 172.927 93.9735 170.445 97.626C160.275 104.305 140.761 126.604 141.144 130.842C141.144 130.842 134.283 119.198 134.162 119.117C134.162 119.117 121.489 102.994 136.503 93.7717C144.131 89.09 144.09 83.0563 143.788 77.8297C143.465 72.6032 145.866 50.0826 161.162 55.9751C161.162 55.9751 163.624 54.8854 164.714 55.0468C164.714 55.0468 163.826 55.2285 163.362 55.6926C165.138 55.5917 167.66 55.7128 169.779 56.9236C175.409 60.0918 180.414 88.6864 171.797 96.617Z" fill="#131F2D"/>
<path d="M169.86 97.9488C169.921 97.969 164.956 100.552 161.223 99.5228C157.712 98.5744 155.411 94.0138 155.472 93.9936C156.965 93.6909 157.389 91.6527 157.349 82.8746L158.015 83.0158L169.315 85.2558C169.315 85.2558 169.053 88.8074 169.053 92.1572C169.053 94.9824 169.214 97.6461 169.86 97.9488Z" fill="#FFD0C5"/>
<path d="M169.315 85.2559C169.315 85.2559 169.053 88.8075 169.053 92.1573C162.717 91.9757 159.387 86.2043 158.015 83.0159L169.315 85.2559Z" fill="#FF9783"/>
<path d="M156.844 81.785C156.844 81.785 153.534 76.5383 152.727 72.0584C152.162 68.87 153.797 57.0043 165.703 58.7196C165.703 58.7196 169.154 59.0626 172.423 61.2622C175.006 63.0179 178.739 66.7713 174.562 77.1235L173.472 80.6146L156.844 81.785Z" fill="#131F2D"/>
<path d="M171.434 88.4241C171.434 88.4241 156.461 88.6663 156.461 79.3433C156.44 70.0203 154.503 63.7646 164.068 63.2197C173.633 62.6749 175.49 66.2265 176.237 69.3342C177.004 72.462 175.329 88.1215 171.434 88.4241Z" fill="#FFD0C5"/>
<path d="M157.288 64.9753C157.288 64.9753 167.519 57.9931 170.748 62.816C171.737 61.9685 173.472 61.3631 175.793 64.1681C179.264 68.3655 176.176 75.8118 176.176 75.8118C174.743 75.9732 174.42 71.0897 173.674 68.7085C173.109 66.9125 171.232 65.0964 170.344 64.2892C169.032 67.2354 165.44 74.2781 160.496 75.5494C154.2 77.1638 151.476 75.4889 151.476 75.4889C151.476 75.4889 156.299 71.6548 157.288 64.9753Z" fill="#131F2D"/>
<path d="M136.523 138.227C135.05 132.032 140.075 120.025 145.321 110.077C150.084 101.056 155.008 93.7514 155.452 94.0137C168.003 101.46 169.133 95.2649 169.133 95.2649C169.133 95.2649 180.535 96.7784 183.764 102.328C188.223 110.016 193.087 133.061 197.869 132.718C200.069 132.557 222.125 124.263 222.125 124.263C222.125 124.263 225.798 127.714 225.092 131.931C225.092 131.931 214.195 139.216 204.993 143.878C200.129 146.34 195.71 148.055 193.652 147.571C189.454 146.582 182.896 136.855 179.365 131.124C179.365 131.104 179.344 131.104 179.344 131.084C174.824 156.672 180.979 162.504 177.851 165.188C174.562 168.033 169.88 163.836 159.548 168.315C152.768 171.262 143.384 175.499 137.048 176.246C133.738 176.629 131.256 176.064 130.449 173.824C128.088 167.306 139.348 150.012 136.523 138.227Z" fill="#FFA9D6"/>
<path d="M168.104 82.7739C168.104 82.7739 168.387 83.9645 171.333 83.7829C171.333 83.7829 173.815 83.6214 173.734 82.3299C173.734 82.3299 171.333 81.4017 168.104 82.7739Z" fill="white"/>
<path d="M164.472 155.501C164.775 155.622 165.118 155.461 165.239 155.179L170.587 142.425L168.69 141.698L164.109 154.755C164.008 155.037 164.17 155.38 164.472 155.501Z" fill="#364154"/>
<path d="M170.587 137.804L171.777 138.248L170.607 142.405L168.69 141.678L170.587 137.804Z" fill="#131F2D"/>
<path d="M171.253 134.434L173.573 135.322C174.017 135.503 174.138 136.089 173.775 136.411L173.533 136.775C173.17 137.36 172.645 137.824 172.019 138.127L171.757 138.268L170.587 137.824L170.526 137.663C170.264 137.037 170.183 136.331 170.304 135.665L170.385 135.12C170.344 134.615 170.809 134.252 171.253 134.434Z" fill="#131F2D"/>
<path d="M130.429 173.824C131.236 176.064 133.718 176.65 137.027 176.246C141.406 174.329 160.315 167.004 160.113 162.039C159.79 154.694 156.481 154.452 158.821 145.371C160.698 138.086 143.223 124.546 140.438 121.599C135.191 131.548 135.05 132.012 136.523 138.207C139.348 150.012 128.088 167.306 130.429 173.824Z" fill="#FF64AE"/>
<path d="M179.344 131.144C182.875 136.875 189.434 146.602 193.631 147.591C195.709 148.075 200.109 146.36 204.972 143.898C201.42 144.806 197.97 144.786 194.6 144.463C190.967 144.12 189.898 139.66 184.147 132.961C180.433 128.622 179.525 129.712 179.344 131.144Z" fill="#FF64AE"/>
<path d="M161.808 145.21C161.808 145.21 164.977 142.748 167.963 143.333C170.95 143.918 172.423 145.977 172.302 146.905C172.181 147.853 170.607 150.477 168.306 150.719C166.026 150.961 159.508 149.306 159.508 149.306L161.808 145.21Z" fill="#FFD0C5"/>
<path d="M155.451 94.0139C155.451 94.0139 143.243 94.7606 139.025 100.653C133.072 108.947 118.805 145.835 125.565 150.537C133.173 155.845 162.676 150.376 162.676 150.376C162.676 150.376 163.584 146.178 162.333 144.14C161.082 142.102 140.74 138.813 139.812 137.885C138.864 136.936 151.537 119.582 151.537 116.756C151.557 113.951 155.451 94.0139 155.451 94.0139Z" fill="#FFA9D6"/>
<path d="M346.917 168.396L319.13 166.055C319.13 166.055 273.786 166.257 269.569 172.049C269.569 172.049 262.708 176.347 271.869 198.807C281.031 221.267 290.293 245.987 290.293 245.987C290.293 245.987 292.352 246.27 294.834 246.068C297.962 245.805 298.991 244.796 298.991 244.796C298.991 244.796 298.345 214.063 293.764 201.007C289.183 187.97 287.428 189.282 295.52 190.009C303.612 190.735 326.375 196.406 342.074 193.399C353.92 191.159 346.917 168.396 346.917 168.396Z" fill="#364154"/>
<path d="M276.389 256.218C276.571 256.662 276.975 257.954 279.517 258.438H288.497C291.585 257.026 294.067 256.864 296.004 256.844C297.719 256.824 299.031 256.884 299.979 256.279C299.979 256.279 299.979 256.279 300 256.279C300.04 256.259 300.1 256.218 300.141 256.198C300.827 255.774 301.21 255.169 301.21 254.321C301.21 253.413 300.968 252.525 300.746 251.658C300.726 251.557 300.686 251.456 300.645 251.355C297.901 252.001 294.067 253.918 290.212 254.644C285.833 255.472 282.12 254.18 281.354 253.898C278.569 254.745 276.087 255.532 276.389 256.218Z" fill="#131F2D"/>
<path d="M300.282 255.916L298.93 258.438H295.984V256.602L300.282 255.916Z" fill="#131F2D"/>
<path d="M271.485 151.465C271.525 151.728 271.606 151.97 271.707 152.212C272.877 154.795 297.295 158.084 300.342 156.43C301.714 155.703 303.692 143.393 305.468 130.014C307.667 113.467 309.544 95.2851 309.544 95.2851C309.544 95.2851 299.414 98.4735 298.243 103.882C297.073 109.27 296.831 142.606 293.783 144.241C290.736 145.876 277.821 144.483 273.362 145.189C273.341 145.149 271.001 148.842 271.485 151.465Z" fill="#FFA9D6"/>
<path d="M308.858 56.9035C310.755 55.39 313.499 55.5716 315.275 55.6725C314.811 55.2084 313.923 55.0268 313.923 55.0268C315.013 54.8653 317.475 55.955 317.475 55.955C317.475 55.955 326.777 51.1926 331.076 63.4013C331.076 63.4013 330.329 62.4731 329.32 61.4439C331.802 68.4664 329.3 79.081 321.45 80.9779C316.365 82.2088 289.425 72.5226 308.858 56.9035Z" fill="#131F2D"/>
<path d="M308.797 97.9488C308.736 97.969 313.701 100.552 317.434 99.5228C320.945 98.5744 323.246 94.0138 323.185 93.9936C321.692 93.6909 321.268 91.6527 321.308 82.8746L320.642 83.0158L309.342 85.2558C309.342 85.2558 309.604 88.8074 309.604 92.1572C309.604 94.9824 309.443 97.6461 308.797 97.9488Z" fill="#FFD0C5"/>
<path d="M309.342 85.2559C309.342 85.2559 309.605 88.8075 309.605 92.1573C315.941 91.9757 319.271 86.2043 320.643 83.0159L309.342 85.2559Z" fill="#FF9783"/>
<path d="M321.814 81.785C321.814 81.785 325.123 76.5383 325.93 72.0584C326.495 68.87 324.861 57.0043 312.955 58.7196C312.955 58.7196 309.504 59.0626 306.235 61.2622C303.652 63.0179 299.919 66.7713 304.096 77.1235L305.186 80.6146L321.814 81.785Z" fill="#131F2D"/>
<path d="M307.224 88.4241C307.224 88.4241 322.197 88.6663 322.197 79.3433C322.217 70.0203 324.154 63.7646 314.589 63.2197C305.024 62.6749 303.167 66.2265 302.421 69.3342C301.654 72.462 303.329 88.1215 307.224 88.4241Z" fill="#FFD0C5"/>
<path d="M303.57 109.068C303.833 107.998 301.593 107.211 301.048 108.16C300.019 109.936 299.817 112.176 299.413 113.951C298.243 119.037 299.413 125.999 299.413 125.999L303.57 109.068Z" fill="#FF64AE"/>
<path d="M302.864 64.1681C305.165 61.3632 306.92 61.9685 307.909 62.8161C311.138 57.973 321.369 64.9753 321.369 64.9753C322.378 71.675 327.201 75.4889 327.201 75.4889C327.201 75.4889 324.477 77.184 318.18 75.5495C313.236 74.2782 309.644 67.2354 308.333 64.2892C307.445 65.0762 305.568 66.9126 305.003 68.7086C304.256 71.0898 303.913 75.9733 302.501 75.8118C302.481 75.7916 299.393 68.3655 302.864 64.1681Z" fill="#131F2D"/>
<path d="M310.552 82.7739C310.552 82.7739 310.269 83.9645 307.323 83.7829C307.323 83.7829 304.841 83.6214 304.922 82.3299C304.922 82.3299 307.323 81.4017 310.552 82.7739Z" fill="white"/>
<path d="M271.484 151.466C271.525 151.728 271.605 151.97 271.706 152.212C272.877 154.795 297.294 158.085 300.341 156.43C301.714 155.703 304.095 140.387 302.379 126.705C300.543 134.535 299.978 150.598 295.66 151.345C290.736 152.192 277.881 150.558 271.484 151.466Z" fill="#FF64AE"/>
<path d="M298.486 126.624C304.56 155.865 299.475 160.365 302.623 163.23C302.643 163.25 305.428 164.441 305.448 164.461C308.737 167.306 308.818 163.856 319.15 168.336C324.074 170.475 330.37 173.3 335.879 174.975C337.958 175.6 339.915 176.064 341.651 176.266C344.96 176.65 347.442 176.085 348.249 173.845C350.59 167.327 339.33 150.033 342.155 138.227C342.175 138.127 342.195 138.026 342.216 137.925C342.417 136.896 342.458 135.705 342.357 134.414C341.832 127.835 337.675 118.25 333.357 110.097C328.594 101.077 323.67 93.7716 323.226 94.034C310.675 101.48 309.545 95.2851 309.545 95.2851C309.545 95.2851 296.408 116.635 298.486 126.624Z" fill="#FFA9D6"/>
<path d="M304.438 164.058C304.418 164.037 304.458 164.058 304.438 164.058C307.727 166.903 308.797 163.856 319.129 168.336C324.053 170.475 330.349 173.3 335.858 174.975C338.663 175.459 340.761 175.903 341.629 176.266C344.939 176.65 347.421 176.085 348.228 173.845C350.569 167.327 339.308 150.033 342.134 138.228C342.154 138.127 342.174 138.026 342.194 137.925C342.436 136.754 342.477 135.604 342.335 134.414C341.75 129.409 338.057 123.981 333.9 116.07C331.116 119.017 310.169 115.606 315.133 144.705C316.626 153.605 305.75 157.136 304.438 164.058Z" fill="#FF64AE"/>
<path d="M305.448 165.531C305.448 165.531 300.827 164.441 298.728 165.289C296.61 166.156 292.392 168.336 292.775 169.506C293.159 170.677 298.163 171.302 300.282 170.132C302.401 168.961 303.955 170.455 306.538 169.587C309.141 168.739 305.448 165.531 305.448 165.531Z" fill="#FFD0C5"/>
<path d="M323.205 94.0139C323.205 94.0139 340.237 94.2359 343.284 102.449C346.331 110.662 345.403 139.519 340.943 148.217C336.483 156.894 311.138 168.638 308.333 169.103C305.508 169.567 303.752 165.228 303.873 164.764C303.994 164.3 330.51 142.829 330.389 140.589C330.248 138.349 323.205 94.0139 323.205 94.0139Z" fill="#FFA9D6"/>
<path d="M315.78 121.277L321.995 122.084C323.206 122.246 324.316 121.398 324.457 120.187L324.72 118.129C324.881 116.918 324.033 115.808 322.823 115.667L316.607 114.86C315.396 114.698 314.287 115.546 314.145 116.757L313.883 118.815C313.722 120.026 314.569 121.115 315.78 121.277Z" fill="#131F2D"/>
<path d="M320.909 120.359L323.43 120.69L323.933 116.848L321.412 116.518L320.909 120.359Z" fill="#00A3FE"/>
<path d="M315.135 116.693L320.618 117.411L320.746 116.431L315.264 115.712L315.135 116.693Z" fill="#00A3FE"/>
<path d="M314.897 118.4L320.379 119.118L320.508 118.138L315.026 117.42L314.897 118.4Z" fill="#00A3FE"/>
<path d="M115.919 258.499H220.531C230.358 258.499 238.329 250.528 238.329 240.7V223.911C238.329 214.083 230.358 206.112 220.531 206.112H115.919C106.092 206.112 98.1206 214.083 98.1206 223.911V240.7C98.1206 250.528 106.092 258.499 115.919 258.499Z" fill="#FF64AE"/>
<path d="M106.798 258.499H184.854C194.681 258.499 202.652 250.528 202.652 240.7V223.911C202.652 214.083 194.681 206.112 184.854 206.112H106.798C96.971 206.112 89 214.083 89 223.911V240.7C89 250.528 96.971 258.499 106.798 258.499Z" fill="#FFA9D6"/>
<path d="M202.875 206.193H211.249C212.944 206.193 214.337 204.82 214.337 203.105V200.199C214.337 198.504 212.964 197.112 211.249 197.112H202.875C201.18 197.112 199.787 198.484 199.787 200.199V203.105C199.807 204.82 201.18 206.193 202.875 206.193Z" fill="#B05638"/>
<path d="M199.785 203.876H214.334V200.809H199.785V203.876Z" fill="#A0462D"/>
<path d="M199.785 199.666H214.334V199.141H199.785V199.666Z" fill="#A0462D"/>
<path d="M262.827 152.01L269.144 146.501C270.435 145.391 270.556 143.434 269.446 142.143L267.529 139.943C266.419 138.651 264.462 138.53 263.171 139.64L256.854 145.149C255.563 146.259 255.442 148.217 256.552 149.508L258.469 151.708C259.599 152.999 261.556 153.14 262.827 152.01Z" fill="#131F2D"/>
<path d="M258.977 152.306L269.948 142.748L267.933 140.435L256.962 149.993L258.977 152.306Z" fill="#B05638"/>
<path d="M256.217 149.12L267.188 139.563L266.843 139.167L255.872 148.725L256.217 149.12Z" fill="#016EB9"/>
<path d="M228.764 129.328L234.879 126.766L229.309 108.442L219.562 112.539L228.764 129.328Z" fill="#FF64AE"/>
<path d="M229.167 121.741C230.903 121.014 231.73 118.996 231.004 117.261C230.277 115.526 228.259 114.698 226.524 115.425C224.788 116.151 223.961 118.169 224.687 119.904C225.414 121.66 227.432 122.467 229.167 121.741Z" fill="#C63CC0"/>
<path d="M221.393 114.498L229.483 111.094L229.311 110.685L221.22 114.089L221.393 114.498Z" fill="#A0462D"/>
<path d="M232.881 133.243L234.818 132.416C235.948 131.932 236.493 130.62 236.009 129.49L234.859 126.766L228.785 129.308L229.935 132.033C230.439 133.183 231.731 133.707 232.881 133.243Z" fill="#C63CC0"/>
<path d="M186.024 200.845L192.643 200.906L194.782 181.876L184.188 181.795L186.024 200.845Z" fill="#FF64AE"/>
<path d="M189.394 196.224C191.291 196.244 192.824 194.711 192.845 192.834C192.865 190.937 191.331 189.403 189.454 189.383C187.557 189.363 186.024 190.897 186.004 192.773C185.983 194.65 187.497 196.204 189.394 196.224Z" fill="#C63CC0"/>
<path d="M185.105 184.293L193.883 184.366L193.887 183.922L185.109 183.849L185.105 184.293Z" fill="#A0462D"/>
<path d="M188.244 206.072L190.363 206.092C191.594 206.112 192.603 205.103 192.623 203.872L192.643 200.926L186.065 200.865L186.045 203.812C186.025 205.043 187.013 206.052 188.244 206.072Z" fill="#C63CC0"/>
<path d="M153.877 199.897L161.485 199.957C161.949 199.957 162.313 199.614 162.353 199.15L164.109 177.457L151.597 177.356L152.99 199.069C153.03 199.533 153.413 199.897 153.877 199.897Z" fill="#FFA9D6"/>
<path d="M157.733 194.428C159.973 194.448 161.789 192.652 161.809 190.412C161.829 188.172 160.033 186.356 157.793 186.336C155.553 186.316 153.737 188.112 153.717 190.352C153.717 192.572 155.513 194.408 157.733 194.428Z" fill="#FFD2EC"/>
<path d="M152.673 180.319L163.045 180.406L163.05 179.882L152.677 179.795L152.673 180.319Z" fill="#131F2D"/>
<path d="M152.668 184.704L163.04 184.791L163.062 182.229L152.689 182.142L152.668 184.704Z" fill="#FFD2EC"/>
<path d="M156.4 206.051L158.902 206.072C160.355 206.092 161.545 204.901 161.566 203.448L161.586 199.957L153.817 199.897L153.796 203.388C153.756 204.841 154.926 206.051 156.4 206.051Z" fill="#FFD2EC"/>
<path d="M167.337 206.092H175.369V178.083C175.369 176.569 174.138 175.358 172.645 175.358H170.062C168.548 175.358 167.337 176.589 167.337 178.083V206.092Z" fill="#B2CBFD"/>
<path d="M170.99 175.681H171.999C172.605 175.681 173.069 175.197 173.069 174.612V172.251C173.069 171.645 172.585 171.181 171.999 171.181H170.99C170.385 171.181 169.921 171.665 169.921 172.251V174.612C169.921 175.197 170.405 175.681 170.99 175.681Z" fill="#1A51AA"/>
<path d="M167.336 201.654H173.39V184.28H167.336V201.654Z" fill="#1A51AA"/>
<path d="M113.477 206.031H144.574L135.17 187.648H104.094L113.477 206.031Z" fill="#8C8C8C"/>
<path d="M112.832 206.031H143.929L134.525 187.648H103.449L112.832 206.031Z" fill="#D1D1D1"/>
<path d="M152.445 206.031H143.929V205.386H152.445C152.626 205.386 152.767 205.527 152.767 205.709C152.767 205.89 152.626 206.031 152.445 206.031Z" fill="#8C8C8C"/>
<path d="M121.146 198.222C121.61 199.493 122.78 200.24 123.749 199.877C124.717 199.513 125.141 198.202 124.677 196.93C124.213 195.659 123.043 194.912 122.074 195.276C121.105 195.619 120.702 196.95 121.146 198.222Z" fill="#131F2D"/>
<path d="M251.607 189.928C249.266 188.475 249.629 185.811 249.629 185.811V138.773L245.957 185.791C245.674 189.424 248.398 190.554 248.398 190.554C248.398 190.554 253.948 191.361 251.607 189.928Z" fill="#B8C1C9"/>
</svg>
