<svg width="25" height="28" viewBox="0 0 25 28" fill="none" xmlns="http://www.w3.org/2000/svg">
<path d="M22.4302 8.24912C22.446 8.49641 22.446 8.74375 22.446 8.99103C22.446 16.5336 17.2906 25.2244 7.86802 25.2244C4.96509 25.2244 2.26841 24.2882 0 22.6632C0.412451 22.7161 0.808984 22.7338 1.2373 22.7338C3.63257 22.7338 5.83755 21.8329 7.59834 20.2962C5.3458 20.2431 3.45811 18.6004 2.80771 16.3393C3.125 16.3923 3.44224 16.4276 3.77539 16.4276C4.2354 16.4276 4.69546 16.357 5.12373 16.2334C2.77603 15.7034 1.01519 13.4071 1.01519 10.6338V10.5632C1.69727 10.9871 2.49048 11.2521 3.33115 11.2874C1.95107 10.2628 1.04692 8.51408 1.04692 6.53567C1.04692 5.47584 1.30068 4.50431 1.74487 3.65642C4.26709 7.1186 8.05835 9.37958 12.3096 9.62692C12.2303 9.20298 12.1827 8.76142 12.1827 8.3198C12.1827 5.17554 14.4669 2.61426 17.3064 2.61426C18.7816 2.61426 20.1141 3.30316 21.05 4.41601C22.208 4.16872 23.3184 3.69176 24.302 3.0382C23.9212 4.36305 23.1122 5.47589 22.0494 6.18241C23.0805 6.05882 24.0799 5.7408 24.9999 5.29924C24.302 6.4297 23.4295 7.43652 22.4302 8.24912Z" fill="white"/>
</svg>
